SplineFontDB: 3.0
FontName: Kreon-Light
FullName: Kreon Light
FamilyName: Kreon
Weight: Light
Copyright: Copyright (c) 2010 by Julia Petretta. All rights reserved.
Version: 1.000
ItalicAngle: 0
UnderlinePosition: -50
UnderlineWidth: 50
Ascent: 800
Descent: 200
sfntRevision: 0x00010000
LayerCount: 2
Layer: 0 1 "Back"  1
Layer: 1 1 "Fore"  0
XUID: [1021 288 713564382 16455234]
FSType: 4
OS2Version: 3
OS2_WeightWidthSlopeOnly: 0
OS2_UseTypoMetrics: 1
CreationTime: 1295032080
ModificationTime: 1313529333
PfmFamily: 17
TTFWeight: 300
TTFWidth: 5
LineGap: 0
VLineGap: 0
Panose: 2 0 5 6 0 0 0 2 0 3
OS2TypoAscent: -170
OS2TypoAOffset: 1
OS2TypoDescent: -25
OS2TypoDOffset: 1
OS2TypoLinegap: 0
OS2WinAscent: 0
OS2WinAOffset: 1
OS2WinDescent: 0
OS2WinDOffset: 1
HheadAscent: -267
HheadAOffset: 1
HheadDescent: 49
HheadDOffset: 1
OS2SubXSize: 700
OS2SubYSize: 650
OS2SubXOff: 0
OS2SubYOff: 140
OS2SupXSize: 700
OS2SupYSize: 650
OS2SupXOff: 0
OS2SupYOff: 477
OS2StrikeYSize: 50
OS2StrikeYPos: 250
OS2Vendor: 'pyrs'
OS2CodePages: 00000001.00000000
OS2UnicodeRanges: 00000003.00000000.00000000.00000000
Lookup: 258 0 0 "'kern' Horizontal Kerning in Latin lookup 0"  {"'kern' Horizontal Kerning in Latin lookup 0 subtable"  } ['kern' ('DFLT' <'dflt' > 'latn' <'dflt' > ) ]
MarkAttachClasses: 1
DEI: 91125
ShortTable: maxp 16
  1
  0
  209
  76
  5
  0
  0
  2
  0
  1
  1
  0
  64
  0
  0
  0
EndShort
LangName: 1033 "" "" "" "FontForge 2.0 : Kreon Light : 16-8-2011" "" "Version 1.000" "" "Kreon Light is a trademark of Julia Petretta." "Julia Petretta" "Julia Petretta" "Copyright (c) 2010 by Julia Petretta. All rights reserved." "" "ww.juliapetretta.com" "" "http://scripts.sil.org/OFL" "" "" "" "Kreon light" 
GaspTable: 1 65535 15
Encoding: UnicodeBmp
UnicodeInterp: none
NameList: Adobe Glyph List
DisplaySize: -36
AntiAlias: 1
FitToEm: 1
WinInfo: 34 34 12
BeginChars: 65540 209

StartChar: exclam
Encoding: 33 33 4
Width: 253
GlyphClass: 2
Flags: W
LayerCount: 2
Fore
SplineSet
95 228 m 1,0,-1
 77 679 l 1,1,-1
 159 691 l 1,2,-1
 180 653 l 1,3,-1
 153 228 l 1,4,-1
 95 228 l 1,0,-1
87 12 m 128,-1,6
 72 27 72 27 72 48.5 c 128,-1,7
 72 70 72 70 87 85.5 c 128,-1,8
 102 101 102 101 123.5 101 c 128,-1,9
 145 101 145 101 160.5 85.5 c 128,-1,10
 176 70 176 70 176 48.5 c 128,-1,11
 176 27 176 27 160.5 12 c 128,-1,12
 145 -3 145 -3 123.5 -3 c 128,-1,5
 102 -3 102 -3 87 12 c 128,-1,6
EndSplineSet
EndChar

StartChar: quotedbl
Encoding: 34 34 5
Width: 284
GlyphClass: 2
Flags: W
LayerCount: 2
Fore
SplineSet
60 500 m 1,0,-1
 43 689 l 1,1,-1
 118 694 l 1,2,-1
 127 672 l 1,3,-1
 105 501 l 1,4,-1
 60 500 l 1,0,-1
175 501 m 1,5,-1
 158 689 l 1,6,-1
 233 694 l 1,7,-1
 243 672 l 1,8,-1
 221 501 l 1,9,-1
 175 501 l 1,5,-1
EndSplineSet
EndChar

StartChar: numbersign
Encoding: 35 35 6
Width: 593
GlyphClass: 2
Flags: W
LayerCount: 2
Fore
SplineSet
37 251 m 1,0,-1
 30 291 l 1,1,-1
 37 303 l 1,2,-1
 173 303 l 1,3,-1
 210 423 l 1,4,-1
 92 423 l 1,5,-1
 85 463 l 1,6,-1
 92 476 l 1,7,-1
 227 476 l 1,8,-1
 288 670 l 1,9,-1
 339 670 l 1,10,-1
 347 656 l 1,11,-1
 290 476 l 1,12,-1
 379 476 l 1,13,-1
 440 670 l 1,14,-1
 489 670 l 1,15,-1
 497 656 l 1,16,-1
 441 476 l 1,17,-1
 554 476 l 2,18,19
 560 476 560 476 560 469 c 2,20,-1
 560 423 l 1,21,-1
 424 423 l 1,22,-1
 387 303 l 1,23,-1
 509 303 l 2,24,25
 515 303 515 303 515 296 c 2,26,-1
 515 251 l 1,27,-1
 371 251 l 1,28,-1
 308 48 l 1,29,-1
 259 48 l 1,30,-1
 250 61 l 1,31,-1
 309 251 l 1,32,-1
 219 251 l 1,33,-1
 155 48 l 1,34,-1
 106 48 l 1,35,-1
 97 61 l 1,36,-1
 156 251 l 1,37,-1
 37 251 l 1,0,-1
235 303 m 1,38,-1
 325 303 l 1,39,-1
 363 423 l 1,40,-1
 273 423 l 1,41,-1
 235 303 l 1,38,-1
EndSplineSet
EndChar

StartChar: dollar
Encoding: 36 36 7
Width: 474
GlyphClass: 2
Flags: W
LayerCount: 2
Fore
SplineSet
214 -108 m 1,0,-1
 214 -4 l 1,1,2
 121 -2 121 -2 56 29 c 1,3,-1
 45 183 l 1,4,-1
 103 183 l 1,5,-1
 130 84 l 1,6,7
 168 66 168 66 214 64 c 1,8,-1
 214 334 l 1,9,10
 130 372 130 372 101.5 397.5 c 128,-1,11
 73 423 73 423 59 451.5 c 128,-1,12
 45 480 45 480 45 517.5 c 128,-1,13
 45 555 45 555 58.5 584 c 128,-1,14
 72 613 72 613 95 634 c 0,15,16
 141 678 141 678 214 688 c 1,17,-1
 214 770 l 1,18,-1
 272 770 l 1,19,-1
 272 690 l 1,20,21
 328 687 328 687 402 659 c 1,22,-1
 415 505 l 1,23,-1
 360 505 l 1,24,-1
 318 611 l 1,25,26
 295 620 295 620 272 623 c 1,27,-1
 272 386 l 1,28,-1
 287 380 l 1,29,30
 409 323 409 323 430 240 c 0,31,32
 437 215 437 215 437 182.5 c 128,-1,33
 437 150 437 150 424 118 c 128,-1,34
 411 86 411 86 389 62 c 0,35,36
 346 15 346 15 272 0 c 1,37,-1
 272 -108 l 1,38,-1
 214 -108 l 1,0,-1
338 107 m 128,-1,40
 366 134 366 134 366 176.5 c 128,-1,41
 366 219 366 219 348.5 248.5 c 128,-1,42
 331 278 331 278 280 304 c 0,43,44
 274 306 274 306 272 308 c 1,45,-1
 272 70 l 1,46,39
 310 80 310 80 338 107 c 128,-1,40
124 565 m 0,47,48
 116 549 116 549 116 527 c 128,-1,49
 116 505 116 505 124 487 c 128,-1,50
 132 469 132 469 146 456 c 1,51,52
 170 431 170 431 214 411 c 1,53,-1
 214 622 l 1,54,55
 147 611 147 611 124 565 c 0,47,48
EndSplineSet
EndChar

StartChar: percent
Encoding: 37 37 8
Width: 636
GlyphClass: 2
Flags: W
LayerCount: 2
Fore
SplineSet
124 0 m 1,0,-1
 77 0 l 1,1,-1
 74 13 l 1,2,-1
 516 692 l 1,3,-1
 559 692 l 1,4,-1
 558 677 l 1,5,-1
 124 0 l 1,0,-1
406 171 m 1,6,-1
 406 167 l 2,7,8
 406 91 406 91 440 60 c 0,9,10
 453 48 453 48 473.5 48 c 128,-1,11
 494 48 494 48 507.5 60.5 c 128,-1,12
 521 73 521 73 528 92 c 0,13,14
 542 126 542 126 542 171 c 0,15,16
 542 248 542 248 508 280 c 0,17,18
 494 292 494 292 473 292 c 0,19,20
 419 292 419 292 410 209 c 0,21,22
 407 188 407 188 406 171 c 1,6,-1
348 171 m 1,23,-1
 348 177 l 2,24,25
 348 243 348 243 377 289 c 0,26,27
 411 344 411 344 473 344 c 0,28,29
 538 344 538 344 572 287 c 0,30,31
 599 240 599 240 599 171 c 0,32,33
 599 59 599 59 532 12 c 0,34,35
 508 -4 508 -4 472 -4 c 128,-1,36
 436 -4 436 -4 412.5 12.5 c 128,-1,37
 389 29 389 29 375 55 c 0,38,39
 350 101 350 101 348 171 c 1,23,-1
96 518 m 1,40,-1
 96 514 l 2,41,42
 96 438 96 438 130 407 c 0,43,44
 143 395 143 395 163.5 395 c 128,-1,45
 184 395 184 395 197.5 407.5 c 128,-1,46
 211 420 211 420 218 438 c 0,47,48
 232 472 232 472 232 518 c 0,49,50
 232 595 232 595 198 626 c 0,51,52
 184 638 184 638 163 638 c 0,53,54
 126 638 126 638 109 595 c 0,55,56
 99 569 99 569 96 518 c 1,40,-1
38 518 m 1,57,-1
 38 524 l 2,58,59
 38 588 38 588 67 636 c 0,60,61
 101 691 101 691 163 691 c 0,62,63
 227 691 227 691 261 634 c 0,64,65
 289 587 289 587 289 518 c 0,66,67
 289 404 289 404 223 358 c 0,68,69
 199 342 199 342 162.5 342 c 128,-1,70
 126 342 126 342 102.5 359 c 128,-1,71
 79 376 79 376 65 402 c 0,72,73
 40 446 40 446 38 518 c 1,57,-1
EndSplineSet
EndChar

StartChar: ampersand
Encoding: 38 38 9
Width: 602
GlyphClass: 2
Flags: W
LayerCount: 2
Fore
SplineSet
400 558 m 0,0,1
 400 458 400 458 274 364 c 1,2,-1
 313 312 l 1,3,4
 342 264 342 264 410 183 c 1,5,6
 447 248 447 248 465 341 c 1,7,-1
 424 341 l 1,8,-1
 411 398 l 1,9,-1
 533 398 l 1,10,-1
 540 386 l 1,11,12
 531 313 531 313 496 217 c 0,13,14
 483 183 483 183 468 155 c 2,15,-1
 455 131 l 1,16,17
 514 65 514 65 536 65 c 0,18,19
 547 65 547 65 571 77 c 1,20,21
 576 42 576 42 588 6 c 1,22,23
 568 -1 568 -1 548 -1 c 0,24,25
 495 -1 495 -1 419 77 c 1,26,27
 351 -4 351 -4 243 -4 c 0,28,29
 147 -4 147 -4 90 52 c 1,30,31
 35 104 35 104 35 178 c 0,32,33
 35 242 35 242 82 302 c 1,34,35
 119 351 119 351 179 388 c 1,36,-1
 172 401 l 2,37,38
 163 417 163 417 152.5 433 c 128,-1,39
 142 449 142 449 134 466 c 0,40,41
 115 506 115 506 115 535 c 128,-1,42
 115 564 115 564 123.5 589 c 128,-1,43
 132 614 132 614 150 636 c 0,44,45
 193 690 193 690 266 690 c 0,46,47
 319 690 319 690 358 654 c 0,48,49
 400 616 400 616 400 558 c 0,0,1
373 128 m 1,50,51
 323 189 323 189 238 309 c 1,52,53
 222 328 222 328 214 340 c 1,54,55
 165 304 165 304 146 277 c 1,56,57
 108 227 108 227 108 173 c 0,58,59
 108 121 108 121 151 88 c 0,60,61
 190 59 190 59 235 59 c 0,62,63
 317 59 317 59 373 128 c 1,50,51
242 407 m 1,64,65
 336 482 336 482 336 551 c 0,66,67
 336 581 336 581 322 599 c 0,68,69
 298 632 298 632 268 632 c 128,-1,70
 238 632 238 632 222.5 624.5 c 128,-1,71
 207 617 207 617 198 604 c 0,72,73
 180 581 180 581 180 547 c 128,-1,74
 180 513 180 513 198 478.5 c 128,-1,75
 216 444 216 444 242 407 c 1,64,65
EndSplineSet
EndChar

StartChar: quotesingle
Encoding: 39 39 10
Width: 170
GlyphClass: 2
Flags: W
LayerCount: 2
Fore
SplineSet
61 501 m 1,0,-1
 44 689 l 1,1,-1
 119 694 l 1,2,-1
 128 672 l 1,3,-1
 106 501 l 1,4,-1
 61 501 l 1,0,-1
EndSplineSet
EndChar

StartChar: parenleft
Encoding: 40 40 11
Width: 258
GlyphClass: 2
Flags: W
LayerCount: 2
Fore
SplineSet
164 -162 m 1,0,1
 54 68 54 68 54 290 c 0,2,3
 54 437 54 437 92 572 c 0,4,5
 120 668 120 668 164 742 c 1,6,-1
 224 742 l 1,7,8
 160 622 160 622 134 438 c 0,9,10
 125 369 125 369 125 290 c 128,-1,11
 125 211 125 211 136 141.5 c 128,-1,12
 147 72 147 72 162 14 c 0,13,14
 181 -55 181 -55 224 -162 c 1,15,-1
 164 -162 l 1,0,1
EndSplineSet
EndChar

StartChar: parenright
Encoding: 41 41 12
Width: 259
GlyphClass: 2
Flags: W
LayerCount: 2
Fore
SplineSet
205 290 m 0,0,1
 205 68 205 68 95 -162 c 1,2,-1
 35 -162 l 1,3,4
 78 -55 78 -55 95 8 c 0,5,6
 134 154 134 154 134 291 c 0,7,8
 134 499 134 499 68 667 c 0,9,10
 51 712 51 712 35 742 c 1,11,-1
 95 742 l 1,12,13
 166 622 166 622 194 443 c 0,14,15
 205 372 205 372 205 290 c 0,0,1
EndSplineSet
EndChar

StartChar: asterisk
Encoding: 42 42 13
Width: 332
GlyphClass: 2
Flags: W
LayerCount: 2
Fore
SplineSet
188 691 m 1,0,-1
 196 681 l 1,1,-1
 176 576 l 1,2,-1
 260 649 l 1,3,-1
 290 611 l 1,4,-1
 286 600 l 1,5,-1
 187 558 l 1,6,-1
 291 519 l 1,7,-1
 272 476 l 1,8,-1
 259 472 l 1,9,-1
 175 541 l 1,10,-1
 192 429 l 1,11,-1
 145 425 l 1,12,-1
 136 435 l 1,13,-1
 155 539 l 1,14,-1
 72 467 l 1,15,-1
 44 505 l 1,16,-1
 46 517 l 1,17,-1
 146 558 l 1,18,-1
 41 597 l 1,19,-1
 61 640 l 1,20,-1
 72 644 l 1,21,-1
 156 575 l 1,22,-1
 140 687 l 1,23,-1
 188 691 l 1,0,-1
159 558 m 1,24,-1
 163 552 l 1,25,-1
 170 552 l 1,26,-1
 173 558 l 1,27,-1
 169 564 l 1,28,-1
 163 564 l 1,29,-1
 159 558 l 1,24,-1
EndSplineSet
EndChar

StartChar: plus
Encoding: 43 43 14
Width: 438
GlyphClass: 2
Flags: W
LayerCount: 2
Fore
SplineSet
244 547 m 1,0,-1
 244 378 l 1,1,-1
 404 378 l 1,2,-1
 404 315 l 1,3,-1
 244 315 l 1,4,-1
 244 134 l 1,5,-1
 193 134 l 1,6,-1
 181 142 l 1,7,-1
 181 315 l 1,8,-1
 32 315 l 1,9,-1
 32 365 l 1,10,-1
 40 378 l 1,11,-1
 181 378 l 1,12,-1
 181 547 l 1,13,-1
 244 547 l 1,0,-1
EndSplineSet
EndChar

StartChar: comma
Encoding: 44 44 15
Width: 199
GlyphClass: 2
Flags: W
LayerCount: 2
Fore
SplineSet
131 128 m 1,0,1
 140 92 140 92 140 65 c 128,-1,2
 140 38 140 38 134.5 13 c 128,-1,3
 129 -12 129 -12 119 -35 c 0,4,5
 96 -88 96 -88 69 -113 c 1,6,-1
 33 -95 l 1,7,-1
 33 -81 l 1,8,-1
 76 -1 l 1,9,-1
 53 115 l 1,10,-1
 131 128 l 1,0,1
EndSplineSet
EndChar

StartChar: hyphen
Encoding: 45 45 16
Width: 377
GlyphClass: 2
Flags: W
LayerCount: 2
Fore
SplineSet
63 251 m 1,0,-1
 63 306 l 1,1,-1
 71 314 l 1,2,-1
 308 314 l 2,3,4
 314 314 314 314 314 307 c 2,5,-1
 314 251 l 1,6,-1
 63 251 l 1,0,-1
EndSplineSet
EndChar

StartChar: period
Encoding: 46 46 17
Width: 206
GlyphClass: 2
Flags: W
LayerCount: 2
Fore
SplineSet
66 12 m 128,-1,1
 51 27 51 27 51 48.5 c 128,-1,2
 51 70 51 70 66 85.5 c 128,-1,3
 81 101 81 101 102.5 101 c 128,-1,4
 124 101 124 101 139.5 85.5 c 128,-1,5
 155 70 155 70 155 48.5 c 128,-1,6
 155 27 155 27 139.5 12 c 128,-1,7
 124 -3 124 -3 102.5 -3 c 128,-1,0
 81 -3 81 -3 66 12 c 128,-1,1
EndSplineSet
EndChar

StartChar: slash
Encoding: 47 47 18
Width: 437
GlyphClass: 2
Flags: W
LayerCount: 2
Fore
SplineSet
75 0 m 1,0,-1
 27 0 l 1,1,-1
 24 13 l 1,2,-1
 363 692 l 1,3,-1
 414 692 l 1,4,-1
 413 677 l 1,5,-1
 75 0 l 1,0,-1
EndSplineSet
EndChar

StartChar: zero
Encoding: 48 48 19
Width: 567
GlyphClass: 2
Flags: W
LayerCount: 2
Fore
SplineSet
53 344 m 256,0,1
 53 488 53 488 107 583 c 0,2,3
 169 692 169 692 284 692 c 0,4,5
 398 692 398 692 460 583 c 0,6,7
 514 488 514 488 514 344 c 256,8,9
 514 200 514 200 460 105 c 0,10,11
 398 -4 398 -4 284 -4 c 0,12,13
 169 -4 169 -4 107 105 c 0,14,15
 53 200 53 200 53 344 c 256,0,1
122 344 m 0,16,17
 122 158 122 158 207 88 c 0,18,19
 238 63 238 63 284 63 c 0,20,21
 367 63 367 63 410 154 c 0,22,23
 445 229 445 229 445 344 c 0,24,25
 445 529 445 529 360 600 c 0,26,27
 330 625 330 625 284 625 c 0,28,29
 200 625 200 625 157 534 c 0,30,31
 122 460 122 460 122 344 c 0,16,17
EndSplineSet
EndChar

StartChar: one
Encoding: 49 49 20
Width: 327
GlyphClass: 2
Flags: W
LayerCount: 2
Fore
SplineSet
41 49 m 1,0,-1
 146 68 l 1,1,-1
 146 601 l 1,2,-1
 43 581 l 1,3,-1
 34 638 l 1,4,-1
 192 692 l 1,5,-1
 214 682 l 1,6,-1
 214 68 l 1,7,-1
 308 55 l 1,8,-1
 308 0 l 1,9,-1
 48 0 l 1,10,-1
 41 49 l 1,0,-1
EndSplineSet
EndChar

StartChar: two
Encoding: 50 50 21
Width: 504
GlyphClass: 2
Flags: W
LayerCount: 2
Fore
SplineSet
48 0 m 1,0,-1
 38 58 l 1,1,2
 60 83 60 83 93.5 114 c 128,-1,3
 127 145 127 145 163.5 180.5 c 128,-1,4
 200 216 200 216 236.5 256 c 128,-1,5
 273 296 273 296 302 338 c 0,6,7
 368 433 368 433 368 513 c 0,8,9
 368 574 368 574 323 605 c 0,10,11
 289 628 289 628 248 628 c 0,12,13
 189 628 189 628 155 609 c 1,14,-1
 154 607 l 2,15,16
 153 606 153 606 148 598 c 1,17,18
 141 583 141 583 107 521 c 1,19,-1
 34 566 l 1,20,21
 72 629 72 629 123.5 660.5 c 128,-1,22
 175 692 175 692 234 692 c 128,-1,23
 293 692 293 692 329 677.5 c 128,-1,24
 365 663 365 663 389 638 c 0,25,26
 438 588 438 588 438 508 c 0,27,28
 438 437 438 437 377 340 c 0,29,30
 335 273 335 273 250 181 c 0,31,32
 207 135 207 135 143 75 c 1,33,-1
 131 63 l 1,34,-1
 374 63 l 1,35,-1
 408 171 l 1,36,-1
 457 171 l 1,37,-1
 437 0 l 1,38,-1
 48 0 l 1,0,-1
EndSplineSet
EndChar

StartChar: three
Encoding: 51 51 22
Width: 515
GlyphClass: 2
Flags: W
LayerCount: 2
Fore
SplineSet
71 112 m 1,0,1
 142 59 142 59 235 59 c 0,2,3
 298 59 298 59 342 92 c 0,4,5
 389 127 389 127 389 188 c 0,6,7
 389 267 389 267 311 298 c 0,8,9
 257 319 257 319 162 319 c 2,10,-1
 147 319 l 1,11,-1
 147 382 l 1,12,13
 245 382 245 382 286.5 398.5 c 128,-1,14
 328 415 328 415 350 442.5 c 128,-1,15
 372 470 372 470 372 518 c 0,16,17
 372 567 372 567 332 598 c 0,18,19
 293 628 293 628 242 628 c 0,20,21
 187 628 187 628 157 607 c 1,22,-1
 111 521 l 1,23,-1
 37 566 l 1,24,25
 72 629 72 629 123.5 660.5 c 128,-1,26
 175 692 175 692 250 692 c 256,27,28
 325 692 325 692 382 647 c 0,29,30
 445 598 445 598 445 520 c 0,31,32
 445 464 445 464 413 417 c 0,33,34
 382 371 382 371 328 353 c 1,35,36
 384 342 384 342 422 302 c 1,37,38
 464 256 464 256 464 197 c 128,-1,39
 464 138 464 138 444 101 c 128,-1,40
 424 64 424 64 392 40 c 1,41,42
 330 -4 330 -4 232 -4 c 0,43,44
 123 -4 123 -4 36 55 c 1,45,-1
 71 112 l 1,0,1
EndSplineSet
EndChar

StartChar: four
Encoding: 52 52 23
Width: 508
GlyphClass: 2
Flags: W
LayerCount: 2
Fore
SplineSet
382 73 m 1,0,1
 444 59 444 59 462 59 c 1,2,-1
 462 2 l 1,3,-1
 162 2 l 1,4,-1
 162 56 l 1,5,-1
 314 72 l 1,6,-1
 314 200 l 1,7,-1
 39 200 l 1,8,-1
 8 264 l 1,9,-1
 314 691 l 1,10,-1
 382 691 l 1,11,-1
 382 268 l 1,12,-1
 467 268 l 1,13,-1
 467 200 l 1,14,-1
 382 200 l 1,15,-1
 382 73 l 1,0,1
314 268 m 1,16,-1
 314 592 l 1,17,-1
 85 268 l 1,18,-1
 314 268 l 1,16,-1
EndSplineSet
EndChar

StartChar: five
Encoding: 53 53 24
Width: 502
GlyphClass: 2
Flags: W
LayerCount: 2
Fore
SplineSet
172 390 m 0,0,1
 133 390 133 390 80 382 c 1,2,-1
 80 657 l 1,3,-1
 111 690 l 1,4,-1
 442 690 l 1,5,-1
 442 623 l 1,6,-1
 143 623 l 1,7,-1
 143 451 l 1,8,9
 159 453 159 453 174 453 c 2,10,-1
 203 453 l 2,11,12
 318 453 318 453 386 393 c 0,13,14
 456 331 456 331 456 231 c 0,15,16
 456 126 456 126 387 60 c 0,17,18
 319 -4 319 -4 214 -4 c 0,19,20
 103 -4 103 -4 29 55 c 1,21,-1
 65 112 l 1,22,23
 94 86 94 86 134.5 72.5 c 128,-1,24
 175 59 175 59 213 59 c 128,-1,25
 251 59 251 59 282 71.5 c 128,-1,26
 313 84 313 84 336 106 c 1,27,28
 384 155 384 155 384 226 c 0,29,30
 384 318 384 318 317 358 c 0,31,32
 264 390 264 390 172 390 c 0,0,1
EndSplineSet
EndChar

StartChar: six
Encoding: 54 54 25
Width: 563
GlyphClass: 2
Flags: W
LayerCount: 2
Fore
SplineSet
199.5 404 m 128,-1,1
 246 430 246 430 297.5 430 c 128,-1,2
 349 430 349 430 388 414.5 c 128,-1,3
 427 399 427 399 456 371 c 0,4,5
 515 313 515 313 515 219 c 0,6,7
 515 123 515 123 456 60 c 0,8,9
 395 -4 395 -4 298 -4 c 0,10,11
 230 -4 230 -4 183 28 c 128,-1,12
 136 60 136 60 107 108 c 0,13,14
 51 202 51 202 51 329 c 0,15,16
 51 463 51 463 110 568 c 0,17,18
 153 644 153 644 228 676 c 0,19,20
 266 692 266 692 311.5 692 c 128,-1,21
 357 692 357 692 391.5 681.5 c 128,-1,22
 426 671 426 671 450 658 c 0,23,24
 492 634 492 634 511 612 c 1,25,-1
 438 541 l 1,26,-1
 386 613 l 1,27,28
 354 629 354 629 308 629 c 128,-1,29
 262 629 262 629 225.5 599 c 128,-1,30
 189 569 189 569 166 524 c 0,31,32
 124 440 124 440 124 336 c 1,33,0
 153 378 153 378 199.5 404 c 128,-1,1
301 59 m 0,34,35
 336 59 336 59 363.5 73.5 c 128,-1,36
 391 88 391 88 408 110 c 0,37,38
 443 155 443 155 443 219 c 128,-1,39
 443 283 443 283 404 325 c 128,-1,40
 365 367 365 367 296 367 c 0,41,42
 234 367 234 367 186 321 c 0,43,44
 140 276 140 276 140 211 c 1,45,46
 150 147 150 147 191 104 c 0,47,48
 234 59 234 59 301 59 c 0,34,35
EndSplineSet
EndChar

StartChar: seven
Encoding: 55 55 26
Width: 427
GlyphClass: 2
Flags: W
LayerCount: 2
Fore
SplineSet
102 625 m 1,0,-1
 72 513 l 1,1,-1
 30 513 l 1,2,-1
 30 690 l 1,3,-1
 399 690 l 1,4,-1
 417 665 l 1,5,-1
 196 0 l 1,6,-1
 126 0 l 1,7,-1
 121 14 l 1,8,-1
 345 625 l 1,9,-1
 102 625 l 1,0,-1
EndSplineSet
EndChar

StartChar: eight
Encoding: 56 56 27
Width: 513
GlyphClass: 2
Flags: W
LayerCount: 2
Fore
SplineSet
255 692 m 128,-1,1
 336 692 336 692 383 650.5 c 128,-1,2
 430 609 430 609 430 533 c 0,3,4
 430 486 430 486 401 449.5 c 128,-1,5
 372 413 372 413 321 373 c 1,6,7
 438 303 438 303 459 228 c 0,8,9
 466 202 466 202 466 171 c 128,-1,10
 466 140 466 140 453 109 c 128,-1,11
 440 78 440 78 414 52 c 0,12,13
 355 -4 355 -4 254 -4 c 256,14,15
 153 -4 153 -4 96 52 c 1,16,17
 47 102 47 102 47 172 c 0,18,19
 47 265 47 265 138 334 c 0,20,21
 163 353 163 353 188 369 c 1,22,23
 143 400 143 400 111.5 438.5 c 128,-1,24
 80 477 80 477 80 539.5 c 128,-1,25
 80 602 80 602 127 647 c 128,-1,0
 174 692 174 692 255 692 c 128,-1,1
127 226.5 m 128,-1,27
 115 203 115 203 115 174 c 128,-1,28
 115 145 115 145 126.5 124 c 128,-1,29
 138 103 138 103 157 88 c 0,30,31
 196 59 196 59 254 59 c 0,32,33
 314 59 314 59 354 88 c 1,34,35
 397 121 397 121 397 173 c 0,36,37
 397 247 397 247 298 302 c 0,38,39
 248 330 248 330 243 335 c 1,40,41
 222 320 222 320 199.5 304 c 128,-1,42
 177 288 177 288 158 269 c 128,-1,26
 139 250 139 250 127 226.5 c 128,-1,27
354 502.5 m 128,-1,44
 362 520 362 520 362 542 c 128,-1,45
 362 564 362 564 352 581 c 128,-1,46
 342 598 342 598 326 608 c 0,47,48
 295 629 295 629 254 629 c 0,49,50
 219 629 219 629 195 614.5 c 128,-1,51
 171 600 171 600 159.5 583.5 c 128,-1,52
 148 567 148 567 148 542.5 c 128,-1,53
 148 518 148 518 156 499.5 c 128,-1,54
 164 481 164 481 179 465 c 0,55,56
 198 445 198 445 265 405 c 1,57,58
 315 447 315 447 330.5 466 c 128,-1,43
 346 485 346 485 354 502.5 c 128,-1,44
EndSplineSet
EndChar

StartChar: nine
Encoding: 57 57 28
Width: 535
GlyphClass: 2
Flags: W
LayerCount: 2
Fore
SplineSet
338.5 275.5 m 128,-1,1
 297 257 297 257 250.5 257 c 128,-1,2
 204 257 204 257 166.5 275 c 128,-1,3
 129 293 129 293 104 323 c 0,4,5
 51 385 51 385 51 473 c 0,6,7
 51 558 51 558 98 618 c 0,8,9
 155 691 155 691 256 691 c 0,10,11
 460 691 460 691 478 406 c 0,12,13
 480 365 480 365 480 308 c 128,-1,14
 480 251 480 251 462.5 189.5 c 128,-1,15
 445 128 445 128 413 85 c 0,16,17
 347 -4 347 -4 240 -4 c 0,18,19
 126 -4 126 -4 46 64 c 1,20,-1
 89 124 l 1,21,22
 130 83 130 83 192 65 c 0,23,24
 212 59 212 59 238 59 c 128,-1,25
 264 59 264 59 294.5 71.5 c 128,-1,26
 325 84 325 84 350 115 c 0,27,28
 403 183 403 183 407 329 c 1,29,0
 380 294 380 294 338.5 275.5 c 128,-1,1
316 614 m 0,30,31
 291 628 291 628 261 628 c 128,-1,32
 231 628 231 628 206.5 617.5 c 128,-1,33
 182 607 182 607 164 588 c 0,34,35
 124 546 124 546 124 478 c 0,36,37
 124 413 124 413 158 368 c 0,38,39
 193 321 193 321 259 321 c 0,40,41
 307 321 307 321 348 355 c 0,42,43
 391 390 391 390 401 444 c 1,44,45
 385 576 385 576 316 614 c 0,30,31
EndSplineSet
EndChar

StartChar: colon
Encoding: 58 58 29
Width: 230
GlyphClass: 2
Flags: W
LayerCount: 2
Fore
SplineSet
78.5 192 m 128,-1,1
 63 207 63 207 63 228.5 c 128,-1,2
 63 250 63 250 78.5 265.5 c 128,-1,3
 94 281 94 281 115.5 281 c 128,-1,4
 137 281 137 281 152 265.5 c 128,-1,5
 167 250 167 250 167 228.5 c 128,-1,6
 167 207 167 207 152 192 c 128,-1,7
 137 177 137 177 115.5 177 c 128,-1,0
 94 177 94 177 78.5 192 c 128,-1,1
78.5 402 m 128,-1,9
 63 417 63 417 63 438.5 c 128,-1,10
 63 460 63 460 78.5 475.5 c 128,-1,11
 94 491 94 491 115.5 491 c 128,-1,12
 137 491 137 491 152 475.5 c 128,-1,13
 167 460 167 460 167 438.5 c 128,-1,14
 167 417 167 417 152 402 c 128,-1,15
 137 387 137 387 115.5 387 c 128,-1,8
 94 387 94 387 78.5 402 c 128,-1,9
EndSplineSet
EndChar

StartChar: semicolon
Encoding: 59 59 30
Width: 228
GlyphClass: 2
Flags: W
LayerCount: 2
Fore
SplineSet
56 -95 m 1,0,-1
 92 -113 l 1,1,2
 119 -88 119 -88 136 -50 c 0,3,4
 163 13 163 13 163 61 c 0,5,6
 163 92 163 92 154 128 c 1,7,-1
 76 115 l 1,8,-1
 99 -1 l 1,9,-1
 56 -81 l 1,10,-1
 56 -95 l 1,0,-1
71.5 222 m 128,-1,12
 56 237 56 237 56 258.5 c 128,-1,13
 56 280 56 280 71.5 295.5 c 128,-1,14
 87 311 87 311 108.5 311 c 128,-1,15
 130 311 130 311 145 295.5 c 128,-1,16
 160 280 160 280 160 258.5 c 128,-1,17
 160 237 160 237 145 222 c 128,-1,18
 130 207 130 207 108.5 207 c 128,-1,11
 87 207 87 207 71.5 222 c 128,-1,12
EndSplineSet
EndChar

StartChar: less
Encoding: 60 60 31
Width: 401
GlyphClass: 2
Flags: W
LayerCount: 2
Fore
SplineSet
326 484 m 1,0,-1
 120 339 l 1,1,-1
 326 195 l 1,2,-1
 326 124 l 1,3,-1
 29 332 l 1,4,-1
 29 348 l 1,5,-1
 326 553 l 1,6,-1
 326 484 l 1,0,-1
EndSplineSet
EndChar

StartChar: equal
Encoding: 61 61 32
Width: 438
GlyphClass: 2
Flags: W
LayerCount: 2
Fore
SplineSet
68 310 m 1,0,-1
 370 310 l 1,1,-1
 370 247 l 1,2,-1
 68 247 l 1,3,-1
 68 310 l 1,0,-1
68 434 m 1,4,-1
 370 434 l 1,5,-1
 370 371 l 1,6,-1
 68 371 l 1,7,-1
 68 434 l 1,4,-1
EndSplineSet
EndChar

StartChar: greater
Encoding: 62 62 33
Width: 401
GlyphClass: 2
Flags: W
LayerCount: 2
Fore
SplineSet
75 553 m 1,0,-1
 372 348 l 1,1,-1
 372 332 l 1,2,-1
 75 124 l 1,3,-1
 75 195 l 1,4,-1
 281 339 l 1,5,-1
 75 484 l 1,6,-1
 75 553 l 1,0,-1
EndSplineSet
EndChar

StartChar: question
Encoding: 63 63 34
Width: 397
GlyphClass: 2
Flags: W
LayerCount: 2
Fore
SplineSet
161 251 m 1,0,-1
 162 238 l 1,1,-1
 104 237 l 1,2,3
 102 247 102 247 102 274.5 c 128,-1,4
 102 302 102 302 116 327 c 128,-1,5
 130 352 130 352 151 370.5 c 128,-1,6
 172 389 172 389 196.5 405 c 128,-1,7
 221 421 221 421 242 440 c 0,8,9
 291 483 291 483 291 543 c 0,10,11
 291 578 291 578 275 594 c 0,12,13
 244 627 244 627 192 627 c 0,14,15
 156 627 156 627 125 618 c 1,16,-1
 98 522 l 1,17,-1
 47 522 l 1,18,-1
 66 665 l 1,19,20
 143 690 143 690 193 690 c 128,-1,21
 243 690 243 690 274.5 679 c 128,-1,22
 306 668 306 668 326 648 c 0,23,24
 365 610 365 610 365 547 c 0,25,26
 365 453 365 453 270 384 c 0,27,28
 242 364 242 364 210 343 c 0,29,30
 161 310 161 310 161 251 c 1,0,-1
102.5 12 m 128,-1,32
 87 27 87 27 87 48.5 c 128,-1,33
 87 70 87 70 102.5 85.5 c 128,-1,34
 118 101 118 101 139.5 101 c 128,-1,35
 161 101 161 101 176 85.5 c 128,-1,36
 191 70 191 70 191 48.5 c 128,-1,37
 191 27 191 27 176 12 c 128,-1,38
 161 -3 161 -3 139.5 -3 c 128,-1,31
 118 -3 118 -3 102.5 12 c 128,-1,32
EndSplineSet
EndChar

StartChar: at
Encoding: 64 64 35
Width: 807
GlyphClass: 2
Flags: W
LayerCount: 2
Fore
SplineSet
498 28 m 1,0,1
 460 -4 460 -4 397 -4 c 0,2,3
 317 -4 317 -4 267 50 c 0,4,5
 214 106 214 106 214 202 c 0,6,7
 214 315 214 315 282 368 c 0,8,9
 332 408 332 408 400 408 c 0,10,11
 445 408 445 408 485 389 c 1,12,-1
 528 409 l 1,13,-1
 550 403 l 1,14,-1
 550 85 l 2,15,16
 550 59 550 59 582 59 c 0,17,18
 623 59 623 59 656 115 c 0,19,20
 687 169 687 169 687 231.5 c 128,-1,21
 687 294 687 294 668 345.5 c 128,-1,22
 649 397 649 397 614 434 c 0,23,24
 540 512 540 512 417 512 c 0,25,26
 285 512 285 512 197 426 c 0,27,28
 110 340 110 340 110 215 c 0,29,30
 110 154 110 154 132.5 97.5 c 128,-1,31
 155 41 155 41 194.5 -2 c 128,-1,32
 234 -45 234 -45 287 -71 c 128,-1,33
 340 -97 340 -97 405.5 -97 c 128,-1,34
 471 -97 471 -97 525 -75 c 1,35,-1
 538 -79 l 1,36,-1
 521 -143 l 1,37,38
 462 -160 462 -160 392.5 -160 c 128,-1,39
 323 -160 323 -160 257.5 -129 c 128,-1,40
 192 -98 192 -98 144 -46 c 128,-1,41
 96 6 96 6 69 74.5 c 128,-1,42
 42 143 42 143 42 218 c 128,-1,43
 42 293 42 293 72.5 358.5 c 128,-1,44
 103 424 103 424 155 472 c 128,-1,45
 207 520 207 520 275.5 547.5 c 128,-1,46
 344 575 344 575 419 575 c 0,47,48
 568 575 568 575 662 478 c 1,49,50
 755 384 755 384 755 230 c 0,51,52
 755 141 755 141 710 72 c 0,53,54
 660 -4 660 -4 579 -4 c 0,55,56
 522 -4 522 -4 498 28 c 1,0,1
482 325 m 1,57,58
 447 345 447 345 405 345 c 0,59,60
 329 345 329 345 295 278 c 0,61,62
 281 251 281 251 281 205.5 c 128,-1,63
 281 160 281 160 293 131.5 c 128,-1,64
 305 103 305 103 324 87 c 0,65,66
 356 59 356 59 401.5 59 c 128,-1,67
 447 59 447 59 482 84 c 1,68,-1
 482 325 l 1,57,58
EndSplineSet
EndChar

StartChar: A
Encoding: 65 65 36
Width: 570
GlyphClass: 2
Flags: W
LayerCount: 2
Fore
SplineSet
364 0 m 1,0,-1
 364 44 l 1,1,-1
 445 65 l 1,2,-1
 392 241 l 1,3,-1
 169 241 l 1,4,-1
 117 62 l 1,5,-1
 205 45 l 1,6,-1
 205 0 l 1,7,-1
 11 0 l 1,8,-1
 -2 47 l 1,9,-1
 52 65 l 1,10,-1
 243 691 l 1,11,-1
 327 691 l 1,12,-1
 519 65 l 1,13,-1
 566 47 l 1,14,-1
 555 0 l 1,15,-1
 364 0 l 1,0,-1
279 616 m 1,16,-1
 188 304 l 1,17,-1
 373 304 l 1,18,-1
 279 616 l 1,16,-1
EndSplineSet
EndChar

StartChar: B
Encoding: 66 66 37
Width: 557
GlyphClass: 2
Flags: W
LayerCount: 2
Fore
SplineSet
181 314 m 1,0,-1
 181 68 l 1,1,-1
 309 68 l 2,2,3
 378 68 378 68 411 108 c 0,4,5
 439 142 439 142 439 195 c 0,6,7
 439 246 439 246 397.5 280 c 128,-1,8
 356 314 356 314 293 314 c 2,9,-1
 181 314 l 1,0,-1
409 505 m 0,10,11
 409 587 409 587 330 614 c 0,12,13
 301 623 301 623 261 623 c 2,14,-1
 181 623 l 1,15,-1
 181 377 l 1,16,-1
 276 377 l 2,17,18
 341 377 341 377 378 417 c 0,19,20
 409 451 409 451 409 505 c 0,10,11
480 510 m 0,21,22
 480 401 480 401 392 354 c 1,23,24
 445 330 445 330 466 306 c 0,25,26
 510 257 510 257 510 187 c 0,27,28
 510 94 510 94 449 46 c 0,29,30
 391 0 391 0 289 0 c 2,31,-1
 62 0 l 1,32,-1
 55 56 l 1,33,-1
 112 68 l 1,34,-1
 112 627 l 1,35,-1
 55 632 l 1,36,-1
 55 691 l 1,37,-1
 263 691 l 2,38,39
 366 691 366 691 424 638 c 1,40,41
 480 589 480 589 480 510 c 0,21,22
EndSplineSet
EndChar

StartChar: C
Encoding: 67 67 38
Width: 556
GlyphClass: 2
Flags: W
LayerCount: 2
Fore
SplineSet
378 64 m 0,0,1
 445 64 445 64 500 99 c 1,2,-1
 525 38 l 1,3,4
 499 20 499 20 457 8 c 128,-1,5
 415 -4 415 -4 373 -4 c 0,6,7
 224 -4 224 -4 130 96 c 0,8,9
 40 192 40 192 40 346 c 0,10,11
 40 416 40 416 64.5 479 c 128,-1,12
 89 542 89 542 133 589 c 0,13,14
 228 691 228 691 375 691 c 0,15,16
 429 691 429 691 492 678 c 1,17,-1
 510 520 l 1,18,-1
 453 520 l 1,19,-1
 429 618 l 1,20,21
 421 619 421 619 411.5 621 c 128,-1,22
 402 623 402 623 377 623 c 0,23,24
 258 623 258 623 183 539 c 0,25,26
 113 461 113 461 111 348 c 1,27,28
 113 225 113 225 180 148 c 0,29,30
 253 64 253 64 378 64 c 0,0,1
EndSplineSet
EndChar

StartChar: D
Encoding: 68 68 39
Width: 605
GlyphClass: 2
Flags: W
LayerCount: 2
Fore
SplineSet
55 56 m 1,0,-1
 112 69 l 1,1,-1
 112 627 l 1,2,-1
 55 632 l 1,3,-1
 55 691 l 1,4,-1
 198 691 l 2,5,6
 361 691 361 691 456 608 c 0,7,8
 561 516 561 516 561 349 c 0,9,10
 561 175 561 175 466 86 c 1,11,12
 376 0 376 0 211 0 c 2,13,-1
 62 0 l 1,14,-1
 55 56 l 1,0,-1
490 353 m 0,15,16
 490 409 490 409 471 459.5 c 128,-1,17
 452 510 452 510 416 546 c 0,18,19
 341 623 341 623 208 623 c 2,20,-1
 181 623 l 1,21,-1
 181 68 l 1,22,-1
 225 68 l 2,23,24
 369 68 369 68 436 156 c 0,25,26
 490 228 490 228 490 353 c 0,15,16
EndSplineSet
EndChar

StartChar: E
Encoding: 69 69 40
Width: 523
GlyphClass: 2
Flags: W
LayerCount: 2
Fore
SplineSet
55 632 m 1,0,-1
 55 691 l 1,1,-1
 453 691 l 1,2,-1
 473 520 l 1,3,-1
 425 520 l 1,4,-1
 391 623 l 1,5,-1
 181 623 l 1,6,-1
 181 377 l 1,7,-1
 343 377 l 1,8,-1
 343 314 l 1,9,-1
 181 314 l 1,10,-1
 181 68 l 1,11,-1
 401 68 l 1,12,-1
 436 171 l 1,13,-1
 483 171 l 1,14,-1
 464 0 l 1,15,-1
 62 0 l 1,16,-1
 55 56 l 1,17,-1
 112 68 l 1,18,-1
 112 627 l 1,19,-1
 55 632 l 1,0,-1
EndSplineSet
EndChar

StartChar: F
Encoding: 70 70 41
Width: 492
GlyphClass: 2
Flags: W
LayerCount: 2
Fore
SplineSet
328 0 m 1,0,-1
 61 0 l 1,1,-1
 55 56 l 1,2,-1
 112 68 l 1,3,-1
 112 627 l 1,4,-1
 55 632 l 1,5,-1
 55 691 l 1,6,-1
 453 691 l 1,7,-1
 474 520 l 1,8,-1
 426 520 l 1,9,-1
 391 624 l 1,10,-1
 181 624 l 1,11,-1
 181 377 l 1,12,-1
 343 377 l 1,13,-1
 343 314 l 1,14,-1
 181 314 l 1,15,-1
 181 72 l 1,16,-1
 333 51 l 1,17,-1
 328 0 l 1,0,-1
EndSplineSet
EndChar

StartChar: G
Encoding: 71 71 42
Width: 607
GlyphClass: 2
Flags: W
LayerCount: 2
Fore
SplineSet
277.5 84 m 128,-1,1
 329 64 329 64 386 64 c 128,-1,2
 443 64 443 64 475 71 c 1,3,-1
 475 238 l 1,4,-1
 352 252 l 1,5,-1
 370 313 l 1,6,-1
 544 313 l 1,7,-1
 544 17 l 1,8,9
 473 -4 473 -4 392 -4 c 128,-1,10
 311 -4 311 -4 247.5 21.5 c 128,-1,11
 184 47 184 47 138 92 c 0,12,13
 40 189 40 189 40 340 c 0,14,15
 40 496 40 496 134 592 c 0,16,17
 231 691 231 691 386 691 c 0,18,19
 453 691 453 691 525 673 c 1,20,-1
 536 519 l 1,21,-1
 473 519 l 1,22,-1
 450 618 l 1,23,24
 412 623 412 623 381 623 c 0,25,26
 255 623 255 623 180 541 c 1,27,28
 111 464 111 464 111 343 c 0,29,30
 111 219 111 219 189 141 c 0,31,0
 226 104 226 104 277.5 84 c 128,-1,1
EndSplineSet
EndChar

StartChar: H
Encoding: 72 72 43
Width: 656
GlyphClass: 2
Flags: W
LayerCount: 2
Fore
SplineSet
476 64 m 1,0,-1
 476 324 l 1,1,-1
 180 324 l 1,2,-1
 180 64 l 1,3,-1
 238 60 l 1,4,-1
 238 0 l 1,5,-1
 62 0 l 1,6,-1
 57 56 l 1,7,-1
 112 64 l 1,8,-1
 112 627 l 1,9,-1
 54 631 l 1,10,-1
 54 691 l 1,11,-1
 231 691 l 1,12,-1
 235 635 l 1,13,-1
 180 627 l 1,14,-1
 180 387 l 1,15,-1
 476 387 l 1,16,-1
 476 627 l 1,17,-1
 418 631 l 1,18,-1
 418 691 l 1,19,-1
 594 691 l 1,20,-1
 599 635 l 1,21,-1
 544 627 l 1,22,-1
 544 64 l 1,23,-1
 602 60 l 1,24,-1
 602 0 l 1,25,-1
 425 0 l 1,26,-1
 421 56 l 1,27,-1
 476 64 l 1,0,-1
EndSplineSet
EndChar

StartChar: I
Encoding: 73 73 44
Width: 293
GlyphClass: 2
Flags: W
LayerCount: 2
Fore
SplineSet
112 64 m 1,0,-1
 112 627 l 1,1,-1
 55 631 l 1,2,-1
 55 691 l 1,3,-1
 231 691 l 1,4,-1
 235 635 l 1,5,-1
 181 627 l 1,6,-1
 181 64 l 1,7,-1
 238 60 l 1,8,-1
 238 0 l 1,9,-1
 62 0 l 1,10,-1
 58 56 l 1,11,-1
 112 64 l 1,0,-1
EndSplineSet
EndChar

StartChar: J
Encoding: 74 74 45
Width: 358
GlyphClass: 2
Flags: W
LayerCount: 2
Fore
SplineSet
50 102 m 1,0,1
 90 62 90 62 138 62 c 0,2,3
 159 62 159 62 174 75.5 c 128,-1,4
 189 89 189 89 189 123 c 2,5,-1
 189 627 l 1,6,-1
 116 635 l 1,7,-1
 122 691 l 1,8,-1
 315 691 l 1,9,-1
 315 631 l 1,10,-1
 257 627 l 1,11,-1
 257 144 l 2,12,13
 257 51 257 51 207 16 c 0,14,15
 178 -4 178 -4 139 -4 c 0,16,17
 66 -4 66 -4 11 44 c 1,18,-1
 50 102 l 1,0,1
EndSplineSet
EndChar

StartChar: K
Encoding: 75 75 46
Width: 594
GlyphClass: 2
Flags: W
LayerCount: 2
Fore
SplineSet
112 64 m 1,0,-1
 112 627 l 1,1,-1
 55 631 l 1,2,-1
 55 691 l 1,3,-1
 231 691 l 1,4,-1
 235 635 l 1,5,-1
 181 627 l 1,6,-1
 181 286 l 1,7,-1
 461 631 l 1,8,-1
 382 637 l 1,9,-1
 382 691 l 1,10,-1
 572 691 l 1,11,-1
 572 635 l 1,12,-1
 538 628 l 1,13,-1
 338 381 l 1,14,-1
 517 66 l 1,15,-1
 577 57 l 1,16,-1
 577 0 l 1,17,-1
 471 0 l 1,18,-1
 291 323 l 1,19,-1
 181 187 l 1,20,-1
 181 64 l 1,21,-1
 238 60 l 1,22,-1
 238 0 l 1,23,-1
 62 0 l 1,24,-1
 58 56 l 1,25,-1
 112 64 l 1,0,-1
EndSplineSet
EndChar

StartChar: L
Encoding: 76 76 47
Width: 496
GlyphClass: 2
Flags: W
LayerCount: 2
Fore
SplineSet
54 631 m 1,0,-1
 54 691 l 1,1,-1
 240 691 l 1,2,-1
 244 635 l 1,3,-1
 180 627 l 1,4,-1
 180 68 l 1,5,-1
 400 68 l 1,6,-1
 435 171 l 1,7,-1
 482 171 l 1,8,-1
 463 0 l 1,9,-1
 61 0 l 1,10,-1
 54 56 l 1,11,-1
 111 64 l 1,12,-1
 111 627 l 1,13,-1
 54 631 l 1,0,-1
EndSplineSet
EndChar

StartChar: M
Encoding: 77 77 48
Width: 831
GlyphClass: 2
Flags: W
LayerCount: 2
Fore
SplineSet
226 691 m 1,0,-1
 421 87 l 1,1,-1
 608 691 l 1,2,-1
 766 691 l 1,3,-1
 772 631 l 1,4,-1
 720 626 l 1,5,-1
 720 67 l 1,6,-1
 780 55 l 1,7,-1
 780 0 l 1,8,-1
 600 0 l 1,9,-1
 595 55 l 1,10,-1
 651 68 l 1,11,-1
 651 636 l 1,12,-1
 458 15 l 1,13,-1
 371 15 l 1,14,-1
 175 623 l 1,15,-1
 175 66 l 1,16,-1
 238 56 l 1,17,-1
 238 0 l 1,18,-1
 62 0 l 1,19,-1
 54 56 l 1,20,-1
 112 68 l 1,21,-1
 112 627 l 1,22,-1
 55 632 l 1,23,-1
 55 691 l 1,24,-1
 226 691 l 1,0,-1
EndSplineSet
EndChar

StartChar: N
Encoding: 78 78 49
Width: 659
GlyphClass: 2
Flags: W
LayerCount: 2
Fore
SplineSet
174 629 m 1,0,-1
 174 66 l 1,1,-1
 241 56 l 1,2,-1
 241 0 l 1,3,-1
 62 0 l 1,4,-1
 54 56 l 1,5,-1
 112 68 l 1,6,-1
 112 627 l 1,7,-1
 54 632 l 1,8,-1
 54 691 l 1,9,-1
 221 691 l 1,10,-1
 491 75 l 1,11,-1
 491 625 l 1,12,-1
 427 635 l 1,13,-1
 427 691 l 1,14,-1
 605 691 l 1,15,-1
 615 635 l 1,16,-1
 554 623 l 1,17,-1
 554 0 l 1,18,-1
 449 0 l 1,19,-1
 174 629 l 1,0,-1
EndSplineSet
EndChar

StartChar: O
Encoding: 79 79 50
Width: 645
GlyphClass: 2
Flags: W
LayerCount: 2
Fore
SplineSet
323 -4 m 0,0,1
 190 -4 190 -4 116 106 c 0,2,3
 50 203 50 203 50 343 c 256,4,5
 50 483 50 483 116 580 c 0,6,7
 149 629 149 629 200.5 660 c 128,-1,8
 252 691 252 691 323 691 c 256,9,10
 394 691 394 691 445.5 660 c 128,-1,11
 497 629 497 629 530 580 c 0,12,13
 595 482 595 482 595 343 c 256,14,15
 595 204 595 204 530 106 c 0,16,17
 497 57 497 57 445.5 26.5 c 128,-1,18
 394 -4 394 -4 323 -4 c 0,0,1
121 341 m 0,19,20
 121 227 121 227 167 152 c 0,21,22
 220 64 220 64 323 64 c 0,23,24
 425 64 425 64 478 152 c 0,25,26
 524 227 524 227 524 341 c 0,27,28
 524 456 524 456 478 533 c 0,29,30
 424 623 424 623 323 623 c 0,31,32
 221 623 221 623 167 533 c 0,33,34
 121 456 121 456 121 341 c 0,19,20
EndSplineSet
EndChar

StartChar: P
Encoding: 80 80 51
Width: 520
GlyphClass: 2
Flags: W
LayerCount: 2
Fore
SplineSet
235 332 m 2,0,1
 344 332 344 332 388 378 c 1,2,3
 423 413 423 413 423 480 c 0,4,5
 423 551 423 551 372 588 c 0,6,7
 325 623 325 623 245 623 c 2,8,-1
 181 623 l 1,9,-1
 181 332 l 1,10,-1
 235 332 l 2,0,1
55 55 m 1,11,-1
 112 68 l 1,12,-1
 112 627 l 1,13,-1
 55 632 l 1,14,-1
 55 691 l 1,15,-1
 219 691 l 2,16,17
 368 691 368 691 438 623 c 0,18,19
 494 569 494 569 494 481 c 0,20,21
 494 372 494 372 416 315 c 0,22,23
 346 264 346 264 238 264 c 2,24,-1
 181 264 l 1,25,-1
 181 70 l 1,26,-1
 321 51 l 1,27,-1
 321 0 l 1,28,-1
 62 0 l 1,29,-1
 55 55 l 1,11,-1
EndSplineSet
EndChar

StartChar: Q
Encoding: 81 81 52
Width: 649
GlyphClass: 2
Flags: W
LayerCount: 2
Fore
SplineSet
417 -191 m 1,0,1
 334 -124 334 -124 260 -56 c 1,2,-1
 283 -29 l 1,3,-1
 496 -102 l 1,4,-1
 501 -130 l 1,5,-1
 417 -191 l 1,0,1
325 -4 m 0,6,7
 192 -4 192 -4 116 106 c 0,8,9
 50 203 50 203 50 343 c 256,10,11
 50 483 50 483 116 580 c 0,12,13
 150 629 150 629 202 660 c 128,-1,14
 254 691 254 691 325 691 c 256,15,16
 396 691 396 691 448 660 c 128,-1,17
 500 629 500 629 534 580 c 1,18,19
 600 481 600 481 600 343 c 256,20,21
 600 205 600 205 534 106 c 1,22,23
 500 57 500 57 448 26.5 c 128,-1,24
 396 -4 396 -4 325 -4 c 0,6,7
123 341 m 0,25,26
 123 227 123 227 169 152 c 0,27,28
 222 64 222 64 325 64 c 0,29,30
 427 64 427 64 480 152 c 0,31,32
 526 227 526 227 526 341 c 0,33,34
 526 456 526 456 480 534 c 0,35,36
 426 624 426 624 325 624 c 0,37,38
 223 624 223 624 169 534 c 0,39,40
 123 456 123 456 123 341 c 0,25,26
EndSplineSet
EndChar

StartChar: R
Encoding: 82 82 53
Width: 544
GlyphClass: 2
Flags: W
LayerCount: 2
Fore
SplineSet
272 266 m 1,0,1
 250 264 250 264 228 264 c 2,2,-1
 181 264 l 1,3,-1
 181 70 l 1,4,-1
 259 51 l 1,5,-1
 259 0 l 1,6,-1
 62 0 l 1,7,-1
 55 55 l 1,8,-1
 112 68 l 1,9,-1
 112 627 l 1,10,-1
 55 632 l 1,11,-1
 55 691 l 1,12,-1
 229 691 l 2,13,14
 416 691 416 691 474 576 c 0,15,16
 494 536 494 536 494 488 c 128,-1,17
 494 440 494 440 482.5 408 c 128,-1,18
 471 376 471 376 450 352 c 1,19,20
 410 303 410 303 343 282 c 1,21,-1
 445 65 l 1,22,-1
 510 51 l 1,23,-1
 510 0 l 1,24,-1
 392 0 l 1,25,-1
 272 266 l 1,0,1
235 332 m 2,26,27
 423 332 423 332 423 480 c 0,28,29
 423 552 423 552 374 590 c 0,30,31
 331 623 331 623 255 623 c 2,32,-1
 181 623 l 1,33,-1
 181 332 l 1,34,-1
 235 332 l 2,26,27
EndSplineSet
EndChar

StartChar: S
Encoding: 83 83 54
Width: 491
GlyphClass: 2
Flags: W
LayerCount: 2
Fore
SplineSet
112 183 m 1,0,-1
 139 84 l 1,1,2
 181 64 181 64 220 64 c 128,-1,3
 259 64 259 64 284.5 71 c 128,-1,4
 310 78 310 78 330 92 c 0,5,6
 375 125 375 125 375 181 c 0,7,8
 375 219 375 219 357.5 248.5 c 128,-1,9
 340 278 340 278 294.5 300.5 c 128,-1,10
 249 323 249 323 207.5 341 c 128,-1,11
 166 359 166 359 132 382 c 128,-1,12
 98 405 98 405 76 437.5 c 128,-1,13
 54 470 54 470 54 515 c 128,-1,14
 54 560 54 560 70.5 591.5 c 128,-1,15
 87 623 87 623 115 645 c 0,16,17
 174 691 174 691 257 691 c 0,18,19
 326 691 326 691 411 659 c 1,20,-1
 424 505 l 1,21,-1
 369 505 l 1,22,-1
 327 611 l 1,23,24
 296 624 296 624 261 624 c 128,-1,25
 226 624 226 624 204 618 c 128,-1,26
 182 612 182 612 164 600 c 0,27,28
 125 573 125 573 125 534 c 128,-1,29
 125 495 125 495 141 472.5 c 128,-1,30
 157 450 157 450 181.5 434 c 128,-1,31
 206 418 206 418 236.5 405.5 c 128,-1,32
 267 393 267 393 304 376 c 128,-1,33
 341 359 341 359 370.5 336 c 128,-1,34
 400 313 400 313 416 289 c 0,35,36
 446 246 446 246 446 194.5 c 128,-1,37
 446 143 446 143 428.5 107 c 128,-1,38
 411 71 411 71 382 46 c 0,39,40
 322 -4 322 -4 233 -4 c 0,41,42
 135 -4 135 -4 65 29 c 1,43,-1
 54 183 l 1,44,-1
 112 183 l 1,0,-1
EndSplineSet
EndChar

StartChar: T
Encoding: 84 84 55
Width: 547
GlyphClass: 2
Flags: W
LayerCount: 2
Fore
SplineSet
127 0 m 1,0,-1
 127 52 l 1,1,-1
 240 70 l 1,2,-1
 240 623 l 1,3,-1
 103 623 l 1,4,-1
 64 526 l 1,5,-1
 18 526 l 1,6,-1
 41 691 l 1,7,-1
 506 691 l 1,8,-1
 529 526 l 1,9,-1
 483 526 l 1,10,-1
 444 623 l 1,11,-1
 308 623 l 1,12,-1
 308 70 l 1,13,-1
 423 52 l 1,14,-1
 423 0 l 1,15,-1
 127 0 l 1,0,-1
EndSplineSet
EndChar

StartChar: U
Encoding: 85 85 56
Width: 628
GlyphClass: 2
Flags: W
LayerCount: 2
Fore
SplineSet
417 631 m 1,0,-1
 417 691 l 1,1,-1
 587 691 l 1,2,-1
 591 635 l 1,3,-1
 536 627 l 1,4,-1
 536 202 l 2,5,6
 536 106 536 106 471 50 c 0,7,8
 409 -4 409 -4 313 -4 c 128,-1,9
 217 -4 217 -4 157 52 c 0,10,11
 96 109 96 109 96 202 c 2,12,-1
 96 627 l 1,13,-1
 38 631 l 1,14,-1
 38 691 l 1,15,-1
 215 691 l 1,16,-1
 219 635 l 1,17,-1
 164 627 l 1,18,-1
 164 213 l 2,19,20
 164 141 164 141 205 102 c 128,-1,21
 246 63 246 63 319 63 c 0,22,23
 426 63 426 63 462 144 c 0,24,25
 474 172 474 172 474 213 c 2,26,-1
 474 627 l 1,27,-1
 417 631 l 1,0,-1
EndSplineSet
EndChar

StartChar: V
Encoding: 86 86 57
Width: 562
GlyphClass: 2
Flags: W
LayerCount: 2
Fore
SplineSet
205 691 m 1,0,-1
 205 647 l 1,1,-1
 117 626 l 1,2,-1
 284 111 l 1,3,-1
 455 629 l 1,4,-1
 364 646 l 1,5,-1
 364 691 l 1,6,-1
 560 691 l 1,7,-1
 560 644 l 1,8,-1
 520 626 l 1,9,-1
 312 0 l 1,10,-1
 247 0 l 1,11,-1
 44 626 l 1,12,-1
 8 644 l 1,13,-1
 8 691 l 1,14,-1
 205 691 l 1,0,-1
EndSplineSet
EndChar

StartChar: W
Encoding: 87 87 58
Width: 856
GlyphClass: 2
Flags: W
LayerCount: 2
Fore
SplineSet
201 691 m 1,0,-1
 201 647 l 1,1,-1
 123 626 l 1,2,-1
 236 88 l 1,3,-1
 391 668 l 1,4,-1
 476 668 l 1,5,-1
 628 82 l 1,6,-1
 742 629 l 1,7,-1
 664 646 l 1,8,-1
 664 691 l 1,9,-1
 846 691 l 1,10,-1
 846 644 l 1,11,-1
 806 626 l 1,12,-1
 673 0 l 1,13,-1
 582 0 l 1,14,-1
 431 576 l 1,15,-1
 281 0 l 1,16,-1
 181 0 l 1,17,-1
 52 626 l 1,18,-1
 13 644 l 1,19,-1
 13 691 l 1,20,-1
 201 691 l 1,0,-1
EndSplineSet
EndChar

StartChar: X
Encoding: 88 88 59
Width: 566
GlyphClass: 2
Flags: W
LayerCount: 2
Fore
SplineSet
20 0 m 1,0,-1
 20 54 l 1,1,-1
 65 61 l 1,2,-1
 240 347 l 1,3,-1
 69 627 l 1,4,-1
 22 638 l 1,5,-1
 22 691 l 1,6,-1
 217 691 l 1,7,-1
 217 648 l 1,8,-1
 146 633 l 1,9,-1
 288 401 l 1,10,-1
 417 633 l 1,11,-1
 358 643 l 1,12,-1
 358 691 l 1,13,-1
 537 691 l 1,14,-1
 537 637 l 1,15,-1
 492 630 l 1,16,-1
 325 341 l 1,17,-1
 490 75 l 1,18,-1
 554 52 l 1,19,-1
 554 0 l 1,20,-1
 356 0 l 1,21,-1
 356 52 l 1,22,-1
 418 58 l 1,23,-1
 276 289 l 1,24,-1
 139 58 l 1,25,-1
 197 48 l 1,26,-1
 197 0 l 1,27,-1
 20 0 l 1,0,-1
EndSplineSet
EndChar

StartChar: Y
Encoding: 89 89 60
Width: 539
GlyphClass: 2
Flags: W
LayerCount: 2
Fore
SplineSet
189 691 m 1,0,-1
 189 638 l 1,1,-1
 126 628 l 1,2,-1
 278 330 l 1,3,-1
 418 629 l 1,4,-1
 357 637 l 1,5,-1
 357 691 l 1,6,-1
 529 691 l 1,7,-1
 529 631 l 1,8,-1
 486 621 l 1,9,-1
 305 243 l 1,10,-1
 305 70 l 1,11,-1
 420 52 l 1,12,-1
 411 0 l 1,13,-1
 131 0 l 1,14,-1
 121 52 l 1,15,-1
 237 70 l 1,16,-1
 237 257 l 1,17,-1
 50 622 l 1,18,-1
 7 631 l 1,19,-1
 7 691 l 1,20,-1
 189 691 l 1,0,-1
EndSplineSet
EndChar

StartChar: Z
Encoding: 90 90 61
Width: 542
GlyphClass: 2
Flags: W
LayerCount: 2
Fore
SplineSet
487 604 m 1,0,-1
 127 68 l 1,1,-1
 426 68 l 1,2,-1
 446 170 l 1,3,-1
 493 170 l 1,4,-1
 493 0 l 1,5,-1
 56 0 l 1,6,-1
 47 75 l 1,7,-1
 415 623 l 1,8,-1
 119 623 l 1,9,-1
 99 521 l 1,10,-1
 52 521 l 1,11,-1
 52 691 l 1,12,-1
 477 691 l 1,13,-1
 487 604 l 1,0,-1
EndSplineSet
EndChar

StartChar: bracketleft
Encoding: 91 91 62
Width: 306
GlyphClass: 2
Flags: W
LayerCount: 2
Fore
SplineSet
88 669 m 1,0,-1
 294 669 l 2,1,2
 300 669 300 669 300 661 c 2,3,-1
 300 607 l 1,4,-1
 149 607 l 1,5,-1
 149 -117 l 1,6,-1
 300 -117 l 1,7,-1
 300 -171 l 2,8,9
 300 -179 300 -179 294 -179 c 2,10,-1
 94 -179 l 1,11,-1
 81 -163 l 1,12,-1
 81 655 l 1,13,-1
 88 669 l 1,0,-1
EndSplineSet
EndChar

StartChar: backslash
Encoding: 92 92 63
Width: 453
GlyphClass: 2
Flags: W
LayerCount: 2
Fore
SplineSet
23 681 m 1,0,-1
 24 691 l 1,1,-1
 90 691 l 1,2,-1
 429 13 l 1,3,-1
 426 0 l 1,4,-1
 365 0 l 1,5,-1
 23 681 l 1,0,-1
EndSplineSet
EndChar

StartChar: bracketright
Encoding: 93 93 64
Width: 306
GlyphClass: 2
Flags: W
LayerCount: 2
Fore
SplineSet
225 655 m 1,0,-1
 225 -163 l 1,1,-1
 212 -179 l 1,2,-1
 12 -179 l 2,3,4
 6 -179 6 -179 6 -171 c 2,5,-1
 6 -117 l 1,6,-1
 157 -117 l 1,7,-1
 157 607 l 1,8,-1
 6 607 l 1,9,-1
 6 661 l 2,10,11
 6 669 6 669 12 669 c 2,12,-1
 218 669 l 1,13,-1
 225 655 l 1,0,-1
EndSplineSet
EndChar

StartChar: asciicircum
Encoding: 94 94 65
Width: 352
GlyphClass: 2
Flags: W
LayerCount: 2
Fore
SplineSet
52 582 m 1,0,-1
 169 724 l 1,1,-1
 184 724 l 1,2,-1
 300 584 l 1,3,-1
 297 577 l 1,4,-1
 242 577 l 1,5,-1
 176 646 l 1,6,-1
 110 577 l 1,7,-1
 56 577 l 1,8,-1
 52 582 l 1,0,-1
EndSplineSet
EndChar

StartChar: underscore
Encoding: 95 95 66
Width: 573
GlyphClass: 2
Flags: W
LayerCount: 2
Fore
SplineSet
10 -63 m 1,0,-1
 10 -13 l 1,1,-1
 22 0 l 1,2,-1
 557 0 l 2,3,4
 563 0 563 0 563 -7 c 2,5,-1
 563 -63 l 1,6,-1
 10 -63 l 1,0,-1
EndSplineSet
EndChar

StartChar: grave
Encoding: 96 96 67
Width: 284
GlyphClass: 2
Flags: W
LayerCount: 2
Fore
SplineSet
195 553 m 1,0,-1
 55 673 l 1,1,-1
 99 726 l 1,2,-1
 125 726 l 1,3,-1
 229 586 l 1,4,-1
 195 553 l 1,0,-1
EndSplineSet
EndChar

StartChar: a
Encoding: 97 97 68
Width: 448
GlyphClass: 2
Flags: W
LayerCount: 2
Fore
SplineSet
308 40 m 1,0,1
 260 -4 260 -4 190 -4 c 0,2,3
 128 -4 128 -4 86 31 c 0,4,5
 41 68 41 68 41 123.5 c 128,-1,6
 41 179 41 179 68.5 210 c 128,-1,7
 96 241 96 241 136 258 c 0,8,9
 200 285 200 285 303 288 c 1,10,-1
 303 352 l 2,11,12
 303 384 303 384 279 403 c 128,-1,13
 255 422 255 422 215 422 c 0,14,15
 167 422 167 422 146 409 c 1,16,-1
 130 356 l 1,17,-1
 48 371 l 1,18,19
 65 423 65 423 112 452 c 0,20,21
 154 479 154 479 209 479 c 0,22,23
 292 479 292 479 329 440.5 c 128,-1,24
 366 402 366 402 366 337 c 2,25,-1
 366 79 l 2,26,27
 366 50 366 50 389 50 c 0,28,29
 398 50 398 50 410 55 c 1,30,-1
 421 17 l 1,31,32
 400 -4 400 -4 366 -4 c 0,33,34
 320 -4 320 -4 308 40 c 1,0,1
128 184 m 0,35,36
 107 164 107 164 107 130 c 128,-1,37
 107 96 107 96 131 74.5 c 128,-1,38
 155 53 155 53 192 53 c 0,39,40
 267 53 267 53 303 108 c 1,41,-1
 303 232 l 1,42,43
 178 232 178 232 128 184 c 0,35,36
EndSplineSet
EndChar

StartChar: b
Encoding: 98 98 69
Width: 484
GlyphClass: 2
Flags: W
LayerCount: 2
Fore
SplineSet
127 22 m 1,0,1
 96 0 96 0 91 0 c 2,2,-1
 75 0 l 1,3,-1
 75 661 l 1,4,-1
 14 657 l 1,5,-1
 6 709 l 1,6,-1
 111 727 l 1,7,-1
 138 697 l 1,8,-1
 138 442 l 1,9,10
 183 479 183 479 240 479 c 128,-1,11
 297 479 297 479 333.5 459.5 c 128,-1,12
 370 440 370 440 394 408 c 0,13,14
 442 342 442 342 442 242 c 0,15,16
 442 140 442 140 392 72 c 0,17,18
 336 -4 336 -4 235 -4 c 0,19,20
 172 -4 172 -4 127 22 c 1,0,1
138 85 m 1,21,22
 178 53 178 53 225.5 53 c 128,-1,23
 273 53 273 53 300.5 69 c 128,-1,24
 328 85 328 85 345 112 c 0,25,26
 376 160 376 160 376 237 c 0,27,28
 376 359 376 359 305 405 c 0,29,30
 279 422 279 422 246 422 c 128,-1,31
 213 422 213 422 182.5 408 c 128,-1,32
 152 394 152 394 138 371 c 1,33,-1
 138 85 l 1,21,22
EndSplineSet
EndChar

StartChar: c
Encoding: 99 99 70
Width: 405
GlyphClass: 2
Flags: W
LayerCount: 2
Fore
SplineSet
377 31 m 1,0,1
 332 -4 332 -4 248 -4 c 0,2,3
 147 -4 147 -4 92 68 c 0,4,5
 43 133 43 133 43 233 c 0,6,7
 43 400 43 400 155 458 c 0,8,9
 194 479 194 479 244 479 c 0,10,11
 333 479 333 479 383 442 c 1,12,-1
 339 373 l 1,13,-1
 280 420 l 1,14,15
 272 422 272 422 261 422 c 2,16,-1
 244 422 l 2,17,18
 170 422 170 422 136 361 c 0,19,20
 109 312 109 312 109 232 c 0,21,22
 109 110 109 110 186 68 c 0,23,24
 214 53 214 53 264 53 c 128,-1,25
 314 53 314 53 360 80 c 1,26,-1
 377 31 l 1,0,1
EndSplineSet
EndChar

StartChar: d
Encoding: 100 100 71
Width: 495
GlyphClass: 2
Flags: W
LayerCount: 2
Fore
SplineSet
249 479 m 0,0,1
 301 479 301 479 346 459 c 1,2,-1
 346 661 l 1,3,-1
 285 657 l 1,4,-1
 277 709 l 1,5,-1
 382 727 l 1,6,-1
 409 697 l 1,7,-1
 409 79 l 2,8,9
 409 50 409 50 432 50 c 0,10,11
 440 50 440 50 453 55 c 1,12,-1
 464 15 l 1,13,14
 445 -4 445 -4 405 -4 c 128,-1,15
 365 -4 365 -4 352 37 c 1,16,17
 307 -4 307 -4 248 -4 c 128,-1,18
 189 -4 189 -4 152 17 c 128,-1,19
 115 38 115 38 90 72 c 0,20,21
 42 138 42 138 42 235 c 0,22,23
 42 340 42 340 94 407 c 0,24,25
 149 479 149 479 249 479 c 0,0,1
346 387 m 1,26,27
 315 422 315 422 254 422 c 0,28,29
 180 422 180 422 140 364 c 0,30,31
 108 316 108 316 108 239 c 0,32,33
 108 117 108 117 182 70 c 0,34,35
 208 53 208 53 242 53 c 0,36,37
 313 53 313 53 346 104 c 1,38,-1
 346 387 l 1,26,27
EndSplineSet
EndChar

StartChar: e
Encoding: 101 101 72
Width: 443
GlyphClass: 2
Flags: W
LayerCount: 2
Fore
SplineSet
398 34 m 1,0,1
 346 -4 346 -4 259 -4 c 0,2,3
 154 -4 154 -4 96 65 c 0,4,5
 42 129 42 129 42 232 c 0,6,7
 42 338 42 338 97 406 c 0,8,9
 155 479 155 479 252 479 c 0,10,11
 315 479 315 479 357 444 c 0,12,13
 401 408 401 408 401 351 c 128,-1,14
 401 294 401 294 373.5 262 c 128,-1,15
 346 230 346 230 303 213 c 0,16,17
 232 185 232 185 111 185 c 1,18,19
 121 127 121 127 157.5 89.5 c 128,-1,20
 194 52 194 52 263 52 c 128,-1,21
 332 52 332 52 381 88 c 1,22,-1
 398 34 l 1,0,1
125 244 m 2,23,24
 214 244 214 244 252 256.5 c 128,-1,25
 290 269 290 269 312.5 289.5 c 128,-1,26
 335 310 335 310 335 348 c 0,27,28
 335 385 335 385 308 405 c 0,29,30
 285 422 285 422 250.5 422 c 128,-1,31
 216 422 216 422 190 407.5 c 128,-1,32
 164 393 164 393 146 368 c 0,33,34
 110 317 110 317 108 244 c 1,35,-1
 125 244 l 2,23,24
EndSplineSet
EndChar

StartChar: f
Encoding: 102 102 73
Width: 311
GlyphClass: 2
Flags: W
LayerCount: 2
Fore
SplineSet
230 670 m 1,0,-1
 212 671 l 1,1,2
 171 671 171 671 166 631 c 0,3,4
 164 620 164 620 164 608 c 2,5,-1
 164 479 l 1,6,-1
 274 479 l 2,7,8
 279 479 279 479 279 473 c 2,9,-1
 279 422 l 1,10,-1
 164 422 l 1,11,-1
 164 61 l 1,12,-1
 274 45 l 1,13,-1
 274 0 l 1,14,-1
 50 0 l 1,15,-1
 42 44 l 1,16,-1
 101 58 l 1,17,-1
 101 422 l 1,18,-1
 38 422 l 1,19,-1
 24 468 l 1,20,-1
 31 479 l 1,21,-1
 101 479 l 1,22,-1
 101 596 l 2,23,24
 101 654 101 654 129.5 690.5 c 128,-1,25
 158 727 158 727 223 727 c 0,26,27
 273 727 273 727 335 690 c 1,28,-1
 286 622 l 1,29,-1
 230 670 l 1,0,-1
EndSplineSet
EndChar

StartChar: g
Encoding: 103 103 74
Width: 476
GlyphClass: 2
Flags: W
LayerCount: 2
Fore
SplineSet
118 159 m 1,0,1
 47 208 47 208 47 303 c 0,2,3
 47 382 47 382 97 430 c 0,4,5
 148 479 148 479 223.5 479 c 128,-1,6
 299 479 299 479 346 438 c 1,7,-1
 437 483 l 1,8,-1
 456 480 l 1,9,-1
 466 412 l 1,10,-1
 379 401 l 1,11,12
 406 359 406 359 406 312 c 128,-1,13
 406 265 406 265 392.5 232.5 c 128,-1,14
 379 200 379 200 355 177 c 0,15,16
 304 128 304 128 226 128 c 0,17,18
 198 128 198 128 174 134 c 1,19,-1
 153 103 l 1,20,-1
 156 82 l 1,21,22
 177 76 177 76 195 71 c 128,-1,23
 213 66 213 66 231 61 c 2,24,-1
 261 54 l 1,25,26
 337 34 337 34 366 13 c 128,-1,27
 395 -8 395 -8 408 -33 c 128,-1,28
 421 -58 421 -58 421 -97.5 c 128,-1,29
 421 -137 421 -137 403.5 -169 c 128,-1,30
 386 -201 386 -201 358 -222 c 0,31,32
 301 -265 301 -265 217 -265 c 0,33,34
 137 -265 137 -265 82 -224 c 0,35,36
 22 -180 22 -180 22 -105 c 0,37,38
 22 -36 22 -36 81 10 c 0,39,40
 97 23 97 23 114 31 c 1,41,42
 81 53 81 53 81 86 c 128,-1,43
 81 119 81 119 118 159 c 1,0,1
113 -34.5 m 128,-1,45
 85 -62 85 -62 85 -95.5 c 128,-1,46
 85 -129 85 -129 98.5 -147.5 c 128,-1,47
 112 -166 112 -166 132 -178 c 0,48,49
 172 -202 172 -202 209.5 -202 c 128,-1,50
 247 -202 247 -202 272.5 -195 c 128,-1,51
 298 -188 298 -188 318 -176 c 0,52,53
 364 -148 364 -148 364 -102 c 0,54,55
 364 -52 364 -52 302 -27 c 0,56,57
 275 -16 275 -16 242 -9 c 128,-1,58
 209 -2 209 -2 178 6 c 1,59,44
 141 -7 141 -7 113 -34.5 c 128,-1,45
226 422 m 256,60,61
 172 422 172 422 142.5 388.5 c 128,-1,62
 113 355 113 355 113 304 c 256,63,64
 113 253 113 253 142.5 219 c 128,-1,65
 172 185 172 185 226 185 c 256,66,67
 280 185 280 185 310 219 c 128,-1,68
 340 253 340 253 340 304 c 256,69,70
 340 355 340 355 310 388.5 c 128,-1,71
 280 422 280 422 226 422 c 256,60,61
EndSplineSet
EndChar

StartChar: h
Encoding: 104 104 75
Width: 498
GlyphClass: 2
Flags: W
LayerCount: 2
Fore
SplineSet
266 422 m 0,0,1
 200 422 200 422 151 379 c 1,2,-1
 151 58 l 1,3,-1
 207 45 l 1,4,-1
 207 0 l 1,5,-1
 35 0 l 1,6,-1
 30 44 l 1,7,-1
 88 58 l 1,8,-1
 88 661 l 1,9,-1
 33 661 l 1,10,-1
 24 710 l 1,11,-1
 122 727 l 1,12,-1
 151 697 l 1,13,-1
 151 441 l 1,14,15
 206 479 206 479 273 479 c 128,-1,16
 340 479 340 479 377 442.5 c 128,-1,17
 414 406 414 406 414 334 c 2,18,-1
 414 58 l 1,19,-1
 475 44 l 1,20,-1
 475 0 l 1,21,-1
 295 0 l 1,22,-1
 291 44 l 1,23,-1
 351 58 l 1,24,-1
 351 327 l 2,25,26
 351 422 351 422 266 422 c 0,0,1
EndSplineSet
EndChar

StartChar: i
Encoding: 105 105 76
Width: 249
GlyphClass: 2
Flags: W
LayerCount: 2
Fore
SplineSet
160 451 m 1,0,-1
 160 59 l 1,1,-1
 221 44 l 1,2,-1
 221 0 l 1,3,-1
 46 0 l 1,4,-1
 37 43 l 1,5,-1
 97 58 l 1,6,-1
 97 416 l 1,7,-1
 43 412 l 1,8,-1
 34 463 l 1,9,-1
 133 481 l 1,10,-1
 160 451 l 1,0,-1
59 671 m 256,11,12
 59 693 59 693 74 708.5 c 128,-1,13
 89 724 89 724 111 724 c 256,14,15
 133 724 133 724 148.5 708.5 c 128,-1,16
 164 693 164 693 164 671 c 256,17,18
 164 649 164 649 148.5 634 c 128,-1,19
 133 619 133 619 111 619 c 256,20,21
 89 619 89 619 74 634 c 128,-1,22
 59 649 59 649 59 671 c 256,11,12
EndSplineSet
EndChar

StartChar: j
Encoding: 106 106 77
Width: 228
GlyphClass: 2
Flags: W
LayerCount: 2
Fore
SplineSet
53 671 m 256,0,1
 53 693 53 693 68 708.5 c 128,-1,2
 83 724 83 724 105 724 c 256,3,4
 127 724 127 724 142.5 708.5 c 128,-1,5
 158 693 158 693 158 671 c 256,6,7
 158 649 158 649 142.5 634 c 128,-1,8
 127 619 127 619 105 619 c 256,9,10
 83 619 83 619 68 634 c 128,-1,11
 53 649 53 649 53 671 c 256,0,1
7 -190 m 1,12,13
 34 -217 34 -217 58 -217 c 128,-1,14
 82 -217 82 -217 87 -199 c 128,-1,15
 92 -181 92 -181 92 -156 c 2,16,-1
 92 416 l 1,17,-1
 23 411 l 1,18,-1
 15 462 l 1,19,-1
 128 481 l 1,20,-1
 155 451 l 1,21,-1
 155 -166 l 2,22,23
 155 -213 155 -213 140 -234 c 0,24,25
 111 -273 111 -273 59 -273 c 0,26,27
 9 -273 9 -273 -26 -238 c 1,28,-1
 7 -190 l 1,12,13
EndSplineSet
EndChar

StartChar: k
Encoding: 107 107 78
Width: 458
GlyphClass: 2
Flags: W
LayerCount: 2
Fore
SplineSet
151 697 m 1,0,-1
 151 271 l 1,1,-1
 327 434 l 1,2,-1
 286 434 l 1,3,-1
 278 481 l 1,4,-1
 416 481 l 1,5,-1
 430 454 l 1,6,-1
 262 297 l 1,7,-1
 385 55 l 1,8,-1
 437 44 l 1,9,-1
 437 0 l 1,10,-1
 338 0 l 1,11,-1
 210 250 l 1,12,-1
 151 194 l 1,13,-1
 151 58 l 1,14,-1
 207 45 l 1,15,-1
 207 0 l 1,16,-1
 35 0 l 1,17,-1
 30 44 l 1,18,-1
 88 58 l 1,19,-1
 88 661 l 1,20,-1
 33 661 l 1,21,-1
 24 710 l 1,22,-1
 124 727 l 1,23,-1
 151 697 l 1,0,-1
EndSplineSet
EndChar

StartChar: l
Encoding: 108 108 79
Width: 241
GlyphClass: 2
Flags: W
LayerCount: 2
Fore
SplineSet
152 697 m 1,0,-1
 152 57 l 1,1,-1
 213 44 l 1,2,-1
 213 0 l 1,3,-1
 30 0 l 1,4,-1
 25 44 l 1,5,-1
 89 58 l 1,6,-1
 89 661 l 1,7,-1
 34 661 l 1,8,-1
 25 710 l 1,9,-1
 123 727 l 1,10,-1
 152 697 l 1,0,-1
EndSplineSet
EndChar

StartChar: m
Encoding: 109 109 80
Width: 767
GlyphClass: 2
Flags: W
LayerCount: 2
Fore
SplineSet
395 429 m 1,0,1
 459 479 459 479 533 479 c 0,2,3
 683 479 683 479 683 334 c 2,4,-1
 683 58 l 1,5,-1
 744 44 l 1,6,-1
 744 0 l 1,7,-1
 564 0 l 1,8,-1
 560 44 l 1,9,-1
 620 58 l 1,10,-1
 620 327 l 2,11,12
 620 422 620 422 535 422 c 0,13,14
 512 422 512 422 481 414 c 128,-1,15
 450 406 450 406 418 372 c 1,16,17
 421 354 421 354 421 334 c 2,18,-1
 421 58 l 1,19,-1
 482 44 l 1,20,-1
 482 0 l 1,21,-1
 302 0 l 1,22,-1
 298 44 l 1,23,-1
 358 58 l 1,24,-1
 358 327 l 2,25,26
 358 422 358 422 273 422 c 0,27,28
 206 422 206 422 158 380 c 1,29,-1
 158 59 l 1,30,-1
 219 44 l 1,31,-1
 219 0 l 1,32,-1
 46 0 l 1,33,-1
 40 43 l 1,34,-1
 95 58 l 1,35,-1
 95 420 l 1,36,-1
 41 416 l 1,37,-1
 32 463 l 1,38,-1
 133 481 l 1,39,-1
 155 440 l 1,40,41
 183 459 183 459 217 469 c 128,-1,42
 251 479 251 479 278 479 c 0,43,44
 358 479 358 479 395 429 c 1,0,1
EndSplineSet
EndChar

StartChar: n
Encoding: 110 110 81
Width: 505
GlyphClass: 2
Flags: W
LayerCount: 2
Fore
SplineSet
273 422 m 0,0,1
 206 422 206 422 158 380 c 1,2,-1
 158 59 l 1,3,-1
 219 44 l 1,4,-1
 219 0 l 1,5,-1
 46 0 l 1,6,-1
 40 43 l 1,7,-1
 95 58 l 1,8,-1
 95 420 l 1,9,-1
 41 416 l 1,10,-1
 32 463 l 1,11,-1
 133 481 l 1,12,-1
 155 440 l 1,13,14
 211 479 211 479 279 479 c 128,-1,15
 347 479 347 479 384 442.5 c 128,-1,16
 421 406 421 406 421 334 c 2,17,-1
 421 58 l 1,18,-1
 482 44 l 1,19,-1
 482 0 l 1,20,-1
 302 0 l 1,21,-1
 298 44 l 1,22,-1
 358 58 l 1,23,-1
 358 327 l 2,24,25
 358 422 358 422 273 422 c 0,0,1
EndSplineSet
EndChar

StartChar: o
Encoding: 111 111 82
Width: 489
GlyphClass: 2
Flags: W
LayerCount: 2
Fore
SplineSet
42 241 m 0,0,1
 42 288 42 288 55 332 c 128,-1,2
 68 376 68 376 94 409 c 0,3,4
 149 481 149 481 244 481 c 0,5,6
 345 481 345 481 398 407 c 0,7,8
 447 340 447 340 447 240 c 256,9,10
 447 140 447 140 398 72 c 1,11,12
 345 -4 345 -4 244 -4 c 0,13,14
 147 -4 147 -4 91 72 c 0,15,16
 42 139 42 139 42 241 c 0,0,1
115 290.5 m 128,-1,18
 108 256 108 256 108 226 c 128,-1,19
 108 196 108 196 115.5 165 c 128,-1,20
 123 134 123 134 140 110 c 0,21,22
 177 54 177 54 244 54 c 0,23,24
 315 54 315 54 351 112 c 0,25,26
 381 161 381 161 381 235 c 0,27,28
 381 356 381 356 308 406 c 0,29,30
 282 423 282 423 243.5 423 c 128,-1,31
 205 423 205 423 179 403 c 128,-1,32
 153 383 153 383 137.5 354 c 128,-1,17
 122 325 122 325 115 290.5 c 128,-1,18
EndSplineSet
EndChar

StartChar: p
Encoding: 112 112 83
Width: 500
GlyphClass: 2
Flags: W
LayerCount: 2
Fore
SplineSet
249 -4 m 0,0,1
 194 -4 194 -4 154 16 c 1,2,-1
 154 -208 l 1,3,-1
 275 -229 l 1,4,-1
 275 -273 l 1,5,-1
 41 -273 l 1,6,-1
 32 -229 l 1,7,-1
 91 -215 l 1,8,-1
 91 416 l 1,9,-1
 30 412 l 1,10,-1
 22 463 l 1,11,-1
 127 481 l 1,12,-1
 154 445 l 1,13,14
 201 479 201 479 257 479 c 128,-1,15
 313 479 313 479 349.5 459.5 c 128,-1,16
 386 440 386 440 410 408 c 0,17,18
 458 342 458 342 458 242 c 0,19,20
 458 140 458 140 408 72 c 0,21,22
 352 -4 352 -4 249 -4 c 0,0,1
154 85 m 1,23,24
 194 53 194 53 241.5 53 c 128,-1,25
 289 53 289 53 316.5 69 c 128,-1,26
 344 85 344 85 361 112 c 0,27,28
 392 160 392 160 392 237 c 0,29,30
 392 359 392 359 321 405 c 0,31,32
 295 422 295 422 262 422 c 128,-1,33
 229 422 229 422 198.5 408 c 128,-1,34
 168 394 168 394 154 371 c 1,35,-1
 154 85 l 1,23,24
EndSplineSet
EndChar

StartChar: q
Encoding: 113 113 84
Width: 483
GlyphClass: 2
Flags: W
LayerCount: 2
Fore
SplineSet
351 451 m 1,0,-1
 374 480 l 1,1,-1
 409 470 l 1,2,-1
 409 -215 l 1,3,-1
 468 -229 l 1,4,-1
 468 -273 l 1,5,-1
 232 -273 l 1,6,-1
 225 -229 l 1,7,-1
 346 -202 l 1,8,-1
 346 32 l 1,9,10
 304 -4 304 -4 237 -4 c 0,11,12
 152 -4 152 -4 99 58 c 0,13,14
 42 125 42 125 42 234 c 0,15,16
 42 364 42 364 116 431 c 0,17,18
 171 481 171 481 238 481 c 128,-1,19
 305 481 305 481 351 451 c 1,0,-1
311 411 m 128,-1,21
 286 423 286 423 257.5 423 c 128,-1,22
 229 423 229 423 203.5 415 c 128,-1,23
 178 407 178 407 157 386 c 0,24,25
 108 339 108 339 108 239 c 0,26,27
 108 140 108 140 154 92 c 0,28,29
 190 54 190 54 235 54 c 128,-1,30
 280 54 280 54 307.5 70 c 128,-1,31
 335 86 335 86 346 104 c 1,32,-1
 346 387 l 1,33,20
 336 399 336 399 311 411 c 128,-1,21
EndSplineSet
EndChar

StartChar: r
Encoding: 114 114 85
Width: 386
GlyphClass: 2
Flags: W
LayerCount: 2
Fore
SplineSet
159 440 m 1,0,1
 204 481 204 481 260 481 c 0,2,3
 329 481 329 481 377 415 c 1,4,-1
 301 378 l 1,5,-1
 267 424 l 1,6,7
 231 424 231 424 199 398 c 0,8,9
 159 367 159 367 159 312 c 2,10,-1
 159 64 l 1,11,-1
 299 44 l 1,12,-1
 299 0 l 1,13,-1
 46 0 l 1,14,-1
 37 44 l 1,15,-1
 96 58 l 1,16,-1
 96 415 l 1,17,-1
 42 415 l 1,18,-1
 34 463 l 1,19,-1
 132 480 l 1,20,-1
 159 440 l 1,0,1
EndSplineSet
EndChar

StartChar: s
Encoding: 115 115 86
Width: 397
GlyphClass: 2
Flags: W
LayerCount: 2
Fore
SplineSet
201 481 m 0,0,1
 232 481 232 481 259 471.5 c 128,-1,2
 286 462 286 462 306 448 c 0,3,4
 344 422 344 422 361 384 c 1,5,-1
 283 355 l 1,6,-1
 260 406 l 1,7,8
 240 423 240 423 199 423 c 0,9,10
 171 423 171 423 153 412 c 0,11,12
 118 389 118 389 118 356 c 0,13,14
 118 324 118 324 142 306 c 1,15,16
 168 289 168 289 231 268.5 c 128,-1,17
 294 248 294 248 322.5 214.5 c 128,-1,18
 351 181 351 181 351 139 c 128,-1,19
 351 97 351 97 337 71.5 c 128,-1,20
 323 46 323 46 301 30 c 0,21,22
 256 -4 256 -4 194 -4 c 0,23,24
 134 -4 134 -4 87 29 c 0,25,26
 53 53 53 53 32 92 c 1,27,-1
 110 122 l 1,28,-1
 133 70 l 1,29,30
 160 54 160 54 200 54 c 0,31,32
 230 54 230 54 249 67 c 0,33,34
 285 92 285 92 285 124 c 0,35,36
 285 160 285 160 262 180 c 0,37,38
 241 197 241 197 176 220 c 1,39,40
 52 259 52 259 52 350 c 0,41,42
 52 411 52 411 96 446 c 0,43,44
 139 481 139 481 201 481 c 0,0,1
EndSplineSet
EndChar

StartChar: t
Encoding: 116 116 87
Width: 303
GlyphClass: 2
Flags: W
LayerCount: 2
Fore
SplineSet
99 139 m 1,0,-1
 101 424 l 1,1,-1
 21 424 l 1,2,-1
 7 468 l 1,3,-1
 14 479 l 1,4,-1
 102 479 l 1,5,-1
 103 647 l 1,6,-1
 159 661 l 1,7,-1
 165 650 l 1,8,9
 164 626 164 626 164 603 c 2,10,-1
 164 479 l 1,11,-1
 270 479 l 2,12,13
 275 479 275 479 275 473 c 2,14,-1
 275 424 l 1,15,-1
 163 424 l 1,16,-1
 163 101 l 2,17,18
 163 74 163 74 174.5 64 c 128,-1,19
 186 54 186 54 211 54 c 128,-1,20
 236 54 236 54 272 80 c 1,21,-1
 289 29 l 1,22,23
 277 20 277 20 254.5 8 c 128,-1,24
 232 -4 232 -4 187.5 -4 c 128,-1,25
 143 -4 143 -4 121 27 c 128,-1,26
 99 58 99 58 99 106 c 2,27,-1
 99 139 l 1,0,-1
EndSplineSet
EndChar

StartChar: u
Encoding: 117 117 88
Width: 490
GlyphClass: 2
Flags: W
LayerCount: 2
Fore
SplineSet
348 37 m 1,0,1
 298 -4 298 -4 231 -4 c 0,2,3
 129 -4 129 -4 94 80 c 0,4,5
 82 110 82 110 82 156 c 2,6,-1
 82 415 l 1,7,-1
 28 415 l 1,8,-1
 19 463 l 1,9,-1
 120 481 l 1,10,-1
 145 453 l 1,11,-1
 145 159 l 2,12,13
 145 92 145 92 182 68 c 0,14,15
 204 54 204 54 238.5 54 c 128,-1,16
 273 54 273 54 302.5 68 c 128,-1,17
 332 82 332 82 344 101 c 1,18,-1
 344 415 l 1,19,-1
 290 415 l 1,20,-1
 283 463 l 1,21,-1
 383 482 l 1,22,-1
 407 453 l 1,23,-1
 407 73 l 2,24,25
 407 51 407 51 430 51 c 1,26,-1
 448 54 l 1,27,-1
 456 19 l 1,28,29
 450 12 450 12 435 4 c 128,-1,30
 420 -4 420 -4 399 -4 c 0,31,32
 359 -4 359 -4 348 37 c 1,0,1
EndSplineSet
EndChar

StartChar: v
Encoding: 118 118 89
Width: 439
GlyphClass: 2
Flags: W
LayerCount: 2
Fore
SplineSet
192 0 m 1,0,-1
 48 426 l 1,1,-1
 10 426 l 1,2,-1
 2 474 l 1,3,-1
 102 481 l 1,4,-1
 232 92 l 1,5,-1
 359 426 l 1,6,-1
 314 426 l 1,7,-1
 309 474 l 1,8,-1
 409 481 l 1,9,-1
 428 444 l 1,10,-1
 256 0 l 1,11,-1
 192 0 l 1,0,-1
EndSplineSet
EndChar

StartChar: w
Encoding: 119 119 90
Width: 665
GlyphClass: 2
Flags: W
LayerCount: 2
Fore
SplineSet
366 445 m 1,0,-1
 485 76 l 1,1,-1
 566 426 l 1,2,-1
 521 426 l 1,3,-1
 512 475 l 1,4,-1
 620 480 l 1,5,-1
 634 454 l 1,6,-1
 523 0 l 1,7,-1
 437 0 l 1,8,-1
 337 328 l 1,9,-1
 238 0 l 1,10,-1
 142 0 l 1,11,-1
 57 426 l 1,12,-1
 15 426 l 1,13,-1
 7 475 l 1,14,-1
 117 480 l 1,15,-1
 195 71 l 1,16,-1
 313 445 l 1,17,-1
 366 445 l 1,0,-1
EndSplineSet
EndChar

StartChar: x
Encoding: 120 120 91
Width: 456
GlyphClass: 2
Flags: W
LayerCount: 2
Fore
SplineSet
40 0 m 1,0,-1
 30 52 l 1,1,-1
 72 52 l 1,2,-1
 186 243 l 1,3,-1
 72 421 l 1,4,-1
 30 421 l 1,5,-1
 30 479 l 1,6,-1
 113 479 l 1,7,-1
 236 289 l 1,8,-1
 350 479 l 1,9,-1
 420 479 l 1,10,-1
 420 426 l 1,11,-1
 387 426 l 1,12,-1
 271 235 l 1,13,-1
 386 58 l 1,14,-1
 428 58 l 1,15,-1
 428 0 l 1,16,-1
 343 0 l 1,17,-1
 221 188 l 1,18,-1
 109 0 l 1,19,-1
 40 0 l 1,0,-1
EndSplineSet
EndChar

StartChar: y
Encoding: 121 121 92
Width: 449
GlyphClass: 2
Flags: W
LayerCount: 2
Fore
SplineSet
42 -185 m 1,0,1
 72 -215 72 -215 100 -215 c 0,2,3
 136 -215 136 -215 162 -152 c 0,4,5
 168 -135 168 -135 173 -120 c 2,6,-1
 199 -47 l 1,7,-1
 45 425 l 1,8,-1
 11 425 l 1,9,-1
 3 474 l 1,10,-1
 98 480 l 1,11,-1
 235 54 l 1,12,-1
 367 425 l 1,13,-1
 331 425 l 1,14,-1
 323 474 l 1,15,-1
 419 480 l 1,16,-1
 436 445 l 1,17,18
 388 314 388 314 333 163.5 c 128,-1,19
 278 13 278 13 245 -74.5 c 128,-1,20
 212 -162 212 -162 202 -185.5 c 128,-1,21
 192 -209 192 -209 178 -228 c 0,22,23
 146 -273 146 -273 99 -273 c 0,24,25
 57 -273 57 -273 11 -237 c 1,26,-1
 42 -185 l 1,0,1
EndSplineSet
EndChar

StartChar: z
Encoding: 122 122 93
Width: 428
GlyphClass: 2
Flags: W
LayerCount: 2
Fore
SplineSet
379 420 m 1,0,-1
 126 58 l 1,1,-1
 316 58 l 1,2,-1
 332 152 l 1,3,-1
 379 152 l 1,4,-1
 379 0 l 1,5,-1
 47 0 l 1,6,-1
 47 58 l 1,7,-1
 293 420 l 1,8,-1
 110 420 l 1,9,-1
 94 337 l 1,10,-1
 47 337 l 1,11,-1
 47 479 l 1,12,-1
 379 479 l 1,13,-1
 379 420 l 1,0,-1
EndSplineSet
EndChar

StartChar: braceleft
Encoding: 123 123 94
Width: 309
GlyphClass: 2
Flags: W
LayerCount: 2
Fore
SplineSet
125 27 m 1,0,-1
 126 106 l 1,1,-1
 126 131 l 2,2,3
 126 182 126 182 95.5 207 c 128,-1,4
 65 232 65 232 14 232 c 1,5,-1
 14 316 l 1,6,7
 59 316 59 316 92 342 c 0,8,9
 126 370 126 370 126 417 c 2,10,-1
 126 440 l 1,11,-1
 125 512 l 1,12,-1
 125 540 l 2,13,14
 125 699 125 699 248 699 c 0,15,16
 267 699 267 699 309 694 c 1,17,-1
 288 617 l 1,18,-1
 231 634 l 1,19,-1
 222 632 l 1,20,21
 191 619 191 619 191 527 c 1,22,-1
 193 426 l 1,23,24
 193 320 193 320 130 290 c 0,25,26
 111 280 111 280 78 276 c 1,27,-1
 78 272 l 1,28,29
 137 265 137 265 165 231 c 128,-1,30
 193 197 193 197 193 118 c 1,31,-1
 191 21 l 1,32,33
 191 -80 191 -80 222 -93 c 1,34,-1
 231 -96 l 1,35,-1
 288 -79 l 1,36,-1
 309 -155 l 1,37,38
 275 -161 275 -161 243 -161 c 128,-1,39
 211 -161 211 -161 187.5 -148 c 128,-1,40
 164 -135 164 -135 150 -113 c 0,41,42
 125 -74 125 -74 125 -1 c 2,43,-1
 125 27 l 1,0,-1
EndSplineSet
EndChar

StartChar: bar
Encoding: 124 124 95
Width: 221
GlyphClass: 2
Flags: W
LayerCount: 2
Fore
SplineSet
139 666 m 1,0,-1
 139 -166 l 1,1,-1
 82 -166 l 1,2,-1
 82 666 l 1,3,-1
 139 666 l 1,0,-1
EndSplineSet
EndChar

StartChar: braceright
Encoding: 125 125 96
Width: 310
GlyphClass: 2
Flags: W
LayerCount: 2
Fore
SplineSet
184 512 m 1,0,-1
 183 440 l 1,1,-1
 183 417 l 2,2,3
 183 370 183 370 218 342 c 0,4,5
 250 316 250 316 296 316 c 1,6,-1
 296 232 l 1,7,8
 244 232 244 232 213.5 207 c 128,-1,9
 183 182 183 182 183 131 c 2,10,-1
 183 106 l 1,11,-1
 184 27 l 1,12,-1
 184 -1 l 2,13,14
 184 -161 184 -161 61 -161 c 0,15,16
 34 -161 34 -161 0 -155 c 1,17,-1
 21 -79 l 1,18,-1
 78 -96 l 1,19,-1
 88 -93 l 1,20,21
 107 -85 107 -85 112.5 -52.5 c 128,-1,22
 118 -20 118 -20 118 21 c 2,23,-1
 116 118 l 1,24,25
 116 197 116 197 144 231 c 256,26,27
 172 265 172 265 231 272 c 1,28,-1
 231 276 l 1,29,30
 170 284 170 284 144 316 c 1,31,32
 116 353 116 353 116 426 c 1,33,-1
 118 527 l 2,34,35
 118 564 118 564 112.5 594 c 128,-1,36
 107 624 107 624 88 632 c 1,37,-1
 78 634 l 1,38,-1
 21 617 l 1,39,-1
 0 694 l 1,40,41
 42 699 42 699 61 699 c 0,42,43
 184 699 184 699 184 540 c 2,44,-1
 184 512 l 1,0,-1
EndSplineSet
EndChar

StartChar: asciitilde
Encoding: 126 126 97
Width: 387
GlyphClass: 2
Flags: W
LayerCount: 2
Fore
SplineSet
359 601 m 1,0,1
 314 563 314 563 265 563 c 0,2,3
 246 563 246 563 230 569 c 128,-1,4
 214 575 214 575 198 581.5 c 128,-1,5
 182 588 182 588 166 594 c 128,-1,6
 150 600 150 600 130.5 600 c 128,-1,7
 111 600 111 600 96 586 c 128,-1,8
 81 572 81 572 74 554 c 1,9,-1
 31 580 l 1,10,11
 43 621 43 621 73.5 642 c 128,-1,12
 104 663 104 663 130 663 c 128,-1,13
 156 663 156 663 174.5 656.5 c 128,-1,14
 193 650 193 650 209 642 c 0,15,16
 251 621 251 621 266 621 c 1,17,-1
 322 663 l 1,18,-1
 359 601 l 1,0,1
EndSplineSet
EndChar

StartChar: exclamdown
Encoding: 161 161 99
Width: 239
GlyphClass: 2
Flags: W
LayerCount: 2
Fore
SplineSet
146 260 m 1,0,-1
 173 -165 l 1,1,-1
 152 -203 l 1,2,-1
 70 -191 l 1,3,-1
 88 260 l 1,4,-1
 146 260 l 1,0,-1
80 402.5 m 128,-1,6
 65 418 65 418 65 439.5 c 128,-1,7
 65 461 65 461 80 476 c 128,-1,8
 95 491 95 491 116.5 491 c 128,-1,9
 138 491 138 491 153.5 476 c 128,-1,10
 169 461 169 461 169 439.5 c 128,-1,11
 169 418 169 418 153.5 402.5 c 128,-1,12
 138 387 138 387 116.5 387 c 128,-1,5
 95 387 95 387 80 402.5 c 128,-1,6
EndSplineSet
EndChar

StartChar: cent
Encoding: 162 162 100
Width: 408
GlyphClass: 2
Flags: W
LayerCount: 2
Fore
SplineSet
371 31 m 1,0,1
 332 1 332 1 270 -3 c 1,2,-1
 270 -158 l 1,3,-1
 212 -158 l 1,4,-1
 212 -2 l 1,5,6
 123 10 123 10 76 78 c 0,7,8
 32 142 32 142 32 233 c 0,9,10
 32 382 32 382 132 448 c 1,11,12
 165 471 165 471 212 477 c 1,13,-1
 212 609 l 1,14,-1
 270 609 l 1,15,-1
 270 478 l 1,16,17
 336 471 336 471 377 442 c 1,18,-1
 333 373 l 1,19,-1
 274 420 l 1,20,-1
 270 421 l 1,21,-1
 270 53 l 1,22,23
 316 57 316 57 354 80 c 1,24,-1
 371 31 l 1,0,1
98 233 m 0,25,26
 98 203 98 203 104 174.5 c 128,-1,27
 110 146 110 146 124 122 c 0,28,29
 153 70 153 70 212 57 c 1,30,-1
 212 420 l 1,31,32
 153 409 153 409 122 351 c 0,33,34
 98 304 98 304 98 233 c 0,25,26
EndSplineSet
EndChar

StartChar: sterling
Encoding: 163 163 101
Width: 487
GlyphClass: 2
Flags: W
LayerCount: 2
Fore
SplineSet
454 34 m 1,0,1
 404 -4 404 -4 365 -4 c 128,-1,2
 326 -4 326 -4 297.5 3 c 128,-1,3
 269 10 269 10 244 18 c 0,4,5
 176 41 176 41 147.5 41 c 128,-1,6
 119 41 119 41 102.5 27 c 128,-1,7
 86 13 86 13 81 -4 c 1,8,-1
 27 14 l 1,9,10
 34 39 34 39 51 56 c 128,-1,11
 68 73 68 73 88 90.5 c 128,-1,12
 108 108 108 108 121 134 c 128,-1,13
 134 160 134 160 141 191 c 0,14,15
 151 235 151 235 151 329 c 1,16,-1
 81 329 l 1,17,-1
 81 383 l 1,18,-1
 88 392 l 1,19,-1
 151 392 l 1,20,-1
 151 527 l 2,21,22
 151 614 151 614 201 656 c 0,23,24
 242 691 242 691 305 691 c 0,25,26
 342 691 342 691 368 678 c 0,27,28
 407 657 407 657 425 642 c 1,29,-1
 377 576 l 1,30,-1
 318 626 l 1,31,32
 308 628 308 628 297.5 628 c 128,-1,33
 287 628 287 628 273.5 625 c 128,-1,34
 260 622 260 622 248 612 c 0,35,36
 219 588 219 588 219 532 c 2,37,-1
 219 392 l 1,38,-1
 357 392 l 2,39,40
 363 392 363 392 363 384 c 2,41,-1
 363 329 l 1,42,-1
 219 329 l 1,43,44
 217 261 217 261 210.5 202.5 c 128,-1,45
 204 144 204 144 174 103 c 1,46,47
 222 98 222 98 264 83 c 128,-1,48
 306 68 306 68 326 61 c 128,-1,49
 346 54 346 54 362 54 c 1,50,-1
 418 96 l 1,51,-1
 454 34 l 1,0,1
EndSplineSet
EndChar

StartChar: currency
Encoding: 164 164 102
Width: 257
GlyphClass: 2
Flags: W
LayerCount: 2
Fore
SplineSet
168 800 m 1,0,-1
 168 356 l 1,1,-1
 89 356 l 1,2,-1
 89 800 l 1,3,-1
 168 800 l 1,0,-1
89 -214 m 1,4,-1
 89 265 l 1,5,-1
 168 265 l 1,6,-1
 168 -214 l 1,7,-1
 89 -214 l 1,4,-1
EndSplineSet
EndChar

StartChar: yen
Encoding: 165 165 103
Width: 551
GlyphClass: 2
Flags: W
LayerCount: 2
Fore
SplineSet
121 210 m 1,0,-1
 242 210 l 1,1,-1
 242 239 l 1,2,-1
 121 239 l 1,3,-1
 121 302 l 1,4,-1
 242 302 l 1,5,-1
 242 313 l 1,6,-1
 68 627 l 1,7,-1
 28 636 l 1,8,-1
 28 691 l 1,9,-1
 196 691 l 1,10,-1
 196 644 l 1,11,-1
 141 633 l 1,12,-1
 281 384 l 1,13,-1
 420 633 l 1,14,-1
 363 642 l 1,15,-1
 363 691 l 1,16,-1
 523 691 l 1,17,-1
 523 635 l 1,18,-1
 491 625 l 1,19,-1
 310 311 l 1,20,-1
 310 302 l 1,21,-1
 424 302 l 1,22,-1
 424 239 l 1,23,-1
 310 239 l 1,24,-1
 310 210 l 1,25,-1
 424 210 l 1,26,-1
 424 147 l 1,27,-1
 310 147 l 1,28,-1
 310 70 l 1,29,-1
 424 52 l 1,30,-1
 416 0 l 1,31,-1
 142 0 l 1,32,-1
 133 52 l 1,33,-1
 242 70 l 1,34,-1
 242 147 l 1,35,-1
 121 147 l 1,36,-1
 121 210 l 1,0,-1
EndSplineSet
EndChar

StartChar: brokenbar
Encoding: 166 166 104
Width: 231
GlyphClass: 2
Flags: W
LayerCount: 2
Fore
SplineSet
84 290 m 1,0,-1
 84 670 l 1,1,-1
 147 670 l 1,2,-1
 147 290 l 1,3,-1
 84 290 l 1,0,-1
84 -173 m 1,4,-1
 84 201 l 1,5,-1
 147 201 l 1,6,-1
 147 -173 l 1,7,-1
 84 -173 l 1,4,-1
EndSplineSet
EndChar

StartChar: section
Encoding: 167 167 105
Width: 495
GlyphClass: 2
Flags: W
LayerCount: 2
Fore
SplineSet
107 422 m 1,0,1
 53 466 53 466 53 533 c 0,2,3
 53 602 53 602 110 647 c 0,4,5
 165 691 165 691 250 691 c 0,6,7
 331 691 331 691 409 659 c 1,8,-1
 421 505 l 1,9,-1
 367 505 l 1,10,-1
 325 615 l 1,11,12
 295 628 295 628 260 628 c 128,-1,13
 225 628 225 628 202.5 621.5 c 128,-1,14
 180 615 180 615 162 604 c 0,15,16
 125 579 125 579 125 547 c 128,-1,17
 125 515 125 515 140.5 495.5 c 128,-1,18
 156 476 156 476 180 460.5 c 128,-1,19
 204 445 204 445 233.5 433 c 128,-1,20
 263 421 263 421 292 409 c 0,21,22
 373 374 373 374 411 334 c 128,-1,23
 449 294 449 294 449 231 c 128,-1,24
 449 168 449 168 395 109 c 1,25,26
 439 65 439 65 439 3 c 0,27,28
 439 -75 439 -75 374 -120 c 0,29,30
 315 -161 315 -161 227 -161 c 0,31,32
 146 -161 146 -161 64 -128 c 1,33,-1
 54 24 l 1,34,-1
 112 24 l 1,35,-1
 132 -82 l 1,36,37
 164 -98 164 -98 231 -98 c 0,38,39
 320 -98 320 -98 354 -44 c 0,40,41
 366 -24 366 -24 366 3.5 c 128,-1,42
 366 31 366 31 351 50.5 c 128,-1,43
 336 70 336 70 313 85 c 128,-1,44
 290 100 290 100 263 112 c 0,45,46
 147 164 147 164 102 206 c 128,-1,47
 57 248 57 248 57 310 c 128,-1,48
 57 372 57 372 107 422 c 1,0,1
347 147 m 1,49,50
 375 184 375 184 375 218.5 c 128,-1,51
 375 253 375 253 362.5 272 c 128,-1,52
 350 291 350 291 330 306 c 0,53,54
 301 329 301 329 257 346 c 0,55,56
 198 370 198 370 160 389 c 1,57,58
 130 354 130 354 130 327 c 128,-1,59
 130 300 130 300 139 284 c 128,-1,60
 148 268 148 268 166 253 c 0,61,62
 194 229 194 229 245 203 c 0,63,64
 319 165 319 165 347 147 c 1,49,50
EndSplineSet
EndChar

StartChar: dieresis
Encoding: 168 168 106
Width: 355
GlyphClass: 2
Flags: W
LayerCount: 2
Fore
SplineSet
66 492.5 m 128,-1,1
 52 507 52 507 52 527.5 c 128,-1,2
 52 548 52 548 66 562.5 c 128,-1,3
 80 577 80 577 100.5 577 c 128,-1,4
 121 577 121 577 136 562.5 c 128,-1,5
 151 548 151 548 151 527.5 c 128,-1,6
 151 507 151 507 136 492.5 c 128,-1,7
 121 478 121 478 100.5 478 c 128,-1,0
 80 478 80 478 66 492.5 c 128,-1,1
219 492.5 m 128,-1,9
 204 507 204 507 204 527.5 c 128,-1,10
 204 548 204 548 219 562.5 c 128,-1,11
 234 577 234 577 254.5 577 c 128,-1,12
 275 577 275 577 289 562.5 c 128,-1,13
 303 548 303 548 303 527.5 c 128,-1,14
 303 507 303 507 289 492.5 c 128,-1,15
 275 478 275 478 254.5 478 c 128,-1,8
 234 478 234 478 219 492.5 c 128,-1,9
EndSplineSet
EndChar

StartChar: copyright
Encoding: 169 169 107
Width: 728
GlyphClass: 2
Flags: W
LayerCount: 2
Fore
SplineSet
478 198 m 1,0,1
 430 168 430 168 377 168 c 128,-1,2
 324 168 324 168 288.5 182 c 128,-1,3
 253 196 253 196 227 222 c 0,4,5
 171 278 171 278 171 365 c 0,6,7
 171 458 171 458 228 516 c 0,8,9
 282 572 282 572 370 572 c 0,10,11
 424 572 424 572 450 565 c 1,12,-1
 460 456 l 1,13,-1
 420 456 l 1,14,-1
 407 512 l 1,15,16
 397 514 397 514 368 514 c 128,-1,17
 339 514 339 514 314 505 c 128,-1,18
 289 496 289 496 270 478 c 1,19,20
 230 437 230 437 230 370 c 128,-1,21
 230 303 230 303 267 264.5 c 128,-1,22
 304 226 304 226 370 226 c 0,23,24
 394 226 394 226 418 232 c 0,25,26
 454 242 454 242 463 251 c 1,27,-1
 478 198 l 1,0,1
41 372 m 256,28,29
 41 507 41 507 132 600 c 0,30,31
 225 695 225 695 364 695 c 0,32,33
 434 695 434 695 493.5 669.5 c 128,-1,34
 553 644 553 644 596 600 c 0,35,36
 687 507 687 507 687 372 c 256,37,38
 687 237 687 237 596 144 c 0,39,40
 553 100 553 100 493.5 74.5 c 128,-1,41
 434 49 434 49 363.5 49 c 128,-1,42
 293 49 293 49 234 74.5 c 128,-1,43
 175 100 175 100 132 144 c 0,44,45
 41 237 41 237 41 372 c 256,28,29
99 372 m 256,46,47
 99 257 99 257 174 182 c 128,-1,48
 249 107 249 107 364 107 c 256,49,50
 479 107 479 107 554 182 c 128,-1,51
 629 257 629 257 629 372 c 256,52,53
 629 487 629 487 554 562 c 128,-1,54
 479 637 479 637 364 637 c 256,55,56
 249 637 249 637 174 562 c 128,-1,57
 99 487 99 487 99 372 c 256,46,47
EndSplineSet
EndChar

StartChar: ordfeminine
Encoding: 170 170 108
Width: 297
GlyphClass: 2
Flags: W
LayerCount: 2
Fore
SplineSet
43 504 m 0,0,1
 43 583 43 583 177 589 c 1,2,-1
 177 611 l 2,3,4
 177 635 177 635 158 644 c 1,5,6
 150 649 150 649 136 649 c 256,7,8
 122 649 122 649 112 642 c 1,9,-1
 105 613 l 1,10,-1
 43 622 l 1,11,12
 51 672 51 672 106 687 c 0,13,14
 120 691 120 691 134.5 691 c 128,-1,15
 149 691 149 691 166 687 c 128,-1,16
 183 683 183 683 197 674 c 0,17,18
 230 653 230 653 230 610 c 2,19,-1
 230 491 l 2,20,21
 230 478 230 478 238 478 c 1,22,-1
 250 481 l 1,23,-1
 260 450 l 1,24,25
 241 434 241 434 218 434 c 128,-1,26
 195 434 195 434 184 451 c 1,27,28
 161 433 161 433 136 433 c 128,-1,29
 111 433 111 433 96.5 437.5 c 128,-1,30
 82 442 82 442 70 451 c 0,31,32
 43 471 43 471 43 504 c 0,0,1
177 547 m 1,33,34
 99 547 99 547 99 505 c 0,35,36
 99 498 99 498 105 486.5 c 128,-1,37
 111 475 111 475 131 475 c 0,38,39
 163 475 163 475 176 501 c 1,40,-1
 177 506 l 1,41,-1
 177 547 l 1,33,34
EndSplineSet
EndChar

StartChar: guillemotleft
Encoding: 171 171 109
Width: 454
GlyphClass: 2
Flags: W
LayerCount: 2
Fore
SplineSet
264 512 m 1,0,-1
 91 338 l 1,1,-1
 264 164 l 1,2,-1
 223 123 l 1,3,-1
 10 337 l 1,4,-1
 223 553 l 1,5,-1
 264 512 l 1,0,-1
408 491 m 1,6,-1
 256 338 l 1,7,-1
 408 185 l 1,8,-1
 367 144 l 1,9,-1
 175 337 l 1,10,-1
 367 532 l 1,11,-1
 408 491 l 1,6,-1
EndSplineSet
EndChar

StartChar: logicalnot
Encoding: 172 172 110
Width: 600
GlyphClass: 2
Flags: W
LayerCount: 2
Fore
SplineSet
465 417 m 1,0,-1
 53 417 l 1,1,-1
 53 471 l 1,2,-1
 60 480 l 1,3,-1
 519 480 l 1,4,-1
 528 472 l 1,5,-1
 528 267 l 2,6,7
 528 260 528 260 520 260 c 2,8,-1
 465 260 l 1,9,-1
 465 417 l 1,0,-1
EndSplineSet
EndChar

StartChar: uni00AD
Encoding: 173 173 111
Width: 377
GlyphClass: 2
Flags: W
LayerCount: 2
Fore
SplineSet
328 262 m 1,0,-1
 48 262 l 1,1,-1
 48 353 l 1,2,-1
 328 353 l 1,3,-1
 328 262 l 1,0,-1
EndSplineSet
EndChar

StartChar: registered
Encoding: 174 174 112
Width: 728
GlyphClass: 2
Flags: W
LayerCount: 2
Fore
SplineSet
41 372 m 256,0,1
 41 507 41 507 132 600 c 0,2,3
 225 695 225 695 364 695 c 0,4,5
 434 695 434 695 493.5 669.5 c 128,-1,6
 553 644 553 644 596 600 c 0,7,8
 687 507 687 507 687 372 c 256,9,10
 687 237 687 237 596 144 c 0,11,12
 553 100 553 100 493.5 74.5 c 128,-1,13
 434 49 434 49 363.5 49 c 128,-1,14
 293 49 293 49 234 74.5 c 128,-1,15
 175 100 175 100 132 144 c 0,16,17
 41 237 41 237 41 372 c 256,0,1
99 372 m 256,18,19
 99 257 99 257 174 182 c 128,-1,20
 249 107 249 107 364 107 c 256,21,22
 479 107 479 107 554 182 c 128,-1,23
 629 257 629 257 629 372 c 256,24,25
 629 487 629 487 554 562 c 128,-1,26
 479 637 479 637 364 637 c 256,27,28
 249 637 249 637 174 562 c 128,-1,29
 99 487 99 487 99 372 c 256,18,19
234 224 m 1,30,-1
 260 231 l 1,31,-1
 260 523 l 1,32,-1
 234 526 l 1,33,-1
 234 577 l 1,34,-1
 325 577 l 2,35,36
 416 577 416 577 459 542.5 c 128,-1,37
 502 508 502 508 502 448 c 0,38,39
 502 407 502 407 479 378.5 c 128,-1,40
 456 350 456 350 417 336 c 1,41,-1
 489 229 l 1,42,-1
 523 222 l 1,43,-1
 523 178 l 1,44,-1
 448 178 l 1,45,-1
 360 323 l 1,46,47
 352 322 352 322 345 322 c 2,48,-1
 318 322 l 1,49,-1
 318 232 l 1,50,-1
 369 222 l 1,51,-1
 369 178 l 1,52,-1
 238 178 l 1,53,-1
 234 224 l 1,30,-1
334 380 m 2,54,55
 439 380 439 380 439 448 c 0,56,57
 439 488 439 488 410 504 c 128,-1,58
 381 520 381 520 341 520 c 2,59,-1
 318 520 l 1,60,-1
 318 380 l 1,61,-1
 334 380 l 2,54,55
EndSplineSet
EndChar

StartChar: macron
Encoding: 175 175 113
Width: 365
GlyphClass: 2
Flags: W
LayerCount: 2
Fore
SplineSet
57 630 m 1,0,-1
 57 684 l 1,1,-1
 64 693 l 1,2,-1
 301 693 l 2,3,4
 308 693 308 693 308 685 c 2,5,-1
 308 630 l 1,6,-1
 57 630 l 1,0,-1
EndSplineSet
EndChar

StartChar: degree
Encoding: 176 176 114
Width: 264
GlyphClass: 2
Flags: W
LayerCount: 2
Fore
SplineSet
38 630 m 256,0,1
 38 675 38 675 61 704.5 c 128,-1,2
 84 734 84 734 132 734 c 256,3,4
 180 734 180 734 203 704.5 c 128,-1,5
 226 675 226 675 226 630 c 256,6,7
 226 585 226 585 203 555 c 128,-1,8
 180 525 180 525 132 525 c 256,9,10
 84 525 84 525 61 555 c 128,-1,11
 38 585 38 585 38 630 c 256,0,1
101 668 m 128,-1,13
 91 649 91 649 91 629 c 128,-1,14
 91 609 91 609 101 590.5 c 128,-1,15
 111 572 111 572 132 572 c 256,16,17
 153 572 153 572 163.5 590.5 c 128,-1,18
 174 609 174 609 174 629 c 128,-1,19
 174 649 174 649 163.5 668 c 128,-1,20
 153 687 153 687 132 687 c 256,21,12
 111 687 111 687 101 668 c 128,-1,13
EndSplineSet
EndChar

StartChar: plusminus
Encoding: 177 177 115
Width: 481
GlyphClass: 2
Flags: W
LayerCount: 2
Fore
SplineSet
271 560 m 1,0,-1
 271 449 l 1,1,-1
 409 449 l 1,2,-1
 409 386 l 1,3,-1
 271 386 l 1,4,-1
 271 273 l 1,5,-1
 216 273 l 1,6,-1
 208 286 l 1,7,-1
 208 386 l 1,8,-1
 70 386 l 1,9,-1
 70 434 l 1,10,-1
 83 449 l 1,11,-1
 208 449 l 1,12,-1
 208 560 l 1,13,-1
 271 560 l 1,0,-1
409 169 m 1,14,-1
 70 169 l 1,15,-1
 70 227 l 1,16,-1
 78 239 l 1,17,-1
 409 239 l 1,18,-1
 409 169 l 1,14,-1
EndSplineSet
EndChar

StartChar: twosuperior
Encoding: 178 178 116
Width: 265
GlyphClass: 2
Flags: W
LayerCount: 2
Fore
SplineSet
100 639 m 1,0,1
 100 639 100 639 89 608 c 1,2,-1
 42 622 l 1,3,4
 52 660 52 660 79 675.5 c 128,-1,5
 106 691 106 691 135.5 691 c 128,-1,6
 165 691 165 691 188 671.5 c 128,-1,7
 211 652 211 652 211 623 c 128,-1,8
 211 594 211 594 203.5 575 c 128,-1,9
 196 556 196 556 185 540 c 0,10,11
 170 517 170 517 139 486 c 2,12,-1
 129 476 l 1,13,-1
 175 476 l 1,14,-1
 189 508 l 1,15,-1
 220 508 l 1,16,-1
 209 434 l 1,17,-1
 53 434 l 1,18,-1
 50 462 l 1,19,20
 158 555 158 555 158 610 c 0,21,22
 158 644 158 644 125 644 c 0,23,24
 112 644 112 644 100 639 c 1,0,1
EndSplineSet
EndChar

StartChar: threesuperior
Encoding: 179 179 117
Width: 264
GlyphClass: 2
Flags: W
LayerCount: 2
Fore
SplineSet
166 568 m 1,0,1
 225 557 225 557 225 508 c 0,2,3
 225 471 225 471 197 452.5 c 128,-1,4
 169 434 169 434 132 434 c 0,5,6
 76 434 76 434 39 468 c 1,7,-1
 68 507 l 1,8,9
 79 497 79 497 92.5 489 c 128,-1,10
 106 481 106 481 129.5 481 c 128,-1,11
 153 481 153 481 162.5 491.5 c 128,-1,12
 172 502 172 502 172 512 c 0,13,14
 172 542 172 542 104 542 c 1,15,-1
 104 586 l 1,16,17
 159 586 159 586 159 618 c 0,18,19
 159 627 159 627 152.5 635.5 c 128,-1,20
 146 644 146 644 128.5 644 c 128,-1,21
 111 644 111 644 104 638 c 1,22,-1
 92 607 l 1,23,-1
 43 622 l 1,24,25
 52 652 52 652 75 671.5 c 128,-1,26
 98 691 98 691 134 691 c 0,27,28
 180 691 180 691 203 652 c 0,29,30
 210 640 210 640 210 623 c 128,-1,31
 210 606 210 606 200 589 c 128,-1,32
 190 572 190 572 166 568 c 1,0,1
EndSplineSet
EndChar

StartChar: acute
Encoding: 180 180 118
Width: 279
GlyphClass: 2
Flags: W
LayerCount: 2
Fore
SplineSet
52 585 m 1,0,-1
 156 724 l 1,1,-1
 183 724 l 1,2,-1
 227 672 l 1,3,-1
 87 552 l 1,4,-1
 52 585 l 1,0,-1
EndSplineSet
EndChar

StartChar: mu
Encoding: 181 181 119
AltUni2: 0003bc.ffffffff.0
Width: 513
GlyphClass: 2
Flags: W
LayerCount: 2
Fore
SplineSet
156 -4 m 1,0,-1
 157 -58 l 1,1,-1
 157 -274 l 1,2,-1
 94 -274 l 1,3,-1
 94 415 l 1,4,-1
 40 415 l 1,5,-1
 31 463 l 1,6,-1
 130 481 l 1,7,-1
 157 449 l 1,8,-1
 157 146 l 2,9,10
 157 89 157 89 200 67 c 0,11,12
 226 54 226 54 255.5 54 c 128,-1,13
 285 54 285 54 313.5 66 c 128,-1,14
 342 78 342 78 356 100 c 1,15,-1
 356 415 l 1,16,-1
 302 415 l 1,17,-1
 295 463 l 1,18,-1
 395 482 l 1,19,-1
 419 453 l 1,20,-1
 419 73 l 2,21,22
 419 51 419 51 442 51 c 1,23,-1
 460 54 l 1,24,-1
 468 19 l 1,25,26
 448 -4 448 -4 409.5 -4 c 128,-1,27
 371 -4 371 -4 360 36 c 1,28,29
 316 -4 316 -4 256.5 -4 c 128,-1,30
 197 -4 197 -4 157 25 c 1,31,32
 156 18 156 18 156 11 c 2,33,-1
 156 -4 l 1,0,-1
EndSplineSet
EndChar

StartChar: paragraph
Encoding: 182 182 120
Width: 523
GlyphClass: 2
Flags: W
LayerCount: 2
Fore
SplineSet
47 420.5 m 128,-1,1
 31 457 31 457 31 494.5 c 128,-1,2
 31 532 31 532 42.5 566 c 128,-1,3
 54 600 54 600 80 628 c 0,4,5
 138 691 138 691 250 691 c 2,6,-1
 462 691 l 1,7,-1
 462 632 l 1,8,-1
 420 632 l 1,9,-1
 420 0 l 1,10,-1
 363 0 l 1,11,-1
 363 632 l 1,12,-1
 331 632 l 1,13,-1
 331 125 l 2,14,15
 331 84 331 84 324 77 c 0,16,17
 290 39 290 39 241 -8 c 1,18,-1
 188 66 l 1,19,-1
 263 109 l 1,20,-1
 263 299 l 1,21,22
 157 301 157 301 93 358 c 0,23,0
 63 384 63 384 47 420.5 c 128,-1,1
EndSplineSet
EndChar

StartChar: periodcentered
Encoding: 183 183 121
Width: 230
GlyphClass: 2
Flags: W
LayerCount: 2
Fore
SplineSet
63 399 m 1,0,-1
 158 399 l 1,1,-1
 167 390 l 1,2,-1
 167 255 l 1,3,-1
 63 255 l 1,4,-1
 63 399 l 1,0,-1
EndSplineSet
EndChar

StartChar: cedilla
Encoding: 184 184 122
Width: 398
GlyphClass: 2
Flags: W
LayerCount: 2
Fore
SplineSet
155 -106 m 1,0,-1
 137 -87 l 1,1,-1
 175 15 l 1,2,-1
 243 15 l 1,3,-1
 221 -49 l 1,4,5
 289 -56 289 -56 316 -112 c 0,6,7
 326 -132 326 -132 326 -158 c 0,8,9
 326 -209 326 -209 291.5 -241 c 128,-1,10
 257 -273 257 -273 187 -273 c 0,11,12
 150 -273 150 -273 123.5 -264 c 128,-1,13
 97 -255 97 -255 72 -246 c 1,14,-1
 115 -164 l 1,15,-1
 189 -210 l 1,16,17
 216 -210 216 -210 234 -196.5 c 128,-1,18
 252 -183 252 -183 252 -162 c 128,-1,19
 252 -141 252 -141 232.5 -123.5 c 128,-1,20
 213 -106 213 -106 164 -106 c 2,21,-1
 155 -106 l 1,0,-1
EndSplineSet
EndChar

StartChar: onesuperior
Encoding: 185 185 123
Width: 220
GlyphClass: 2
Flags: W
LayerCount: 2
Fore
SplineSet
51 468 m 1,0,-1
 89 476 l 1,1,-1
 89 635 l 1,2,-1
 50 629 l 1,3,-1
 41 664 l 1,4,-1
 134 693 l 1,5,-1
 143 688 l 1,6,-1
 143 479 l 1,7,-1
 178 470 l 1,8,-1
 178 434 l 1,9,-1
 54 434 l 1,10,-1
 51 468 l 1,0,-1
EndSplineSet
EndChar

StartChar: ordmasculine
Encoding: 186 186 124
Width: 296
GlyphClass: 2
Flags: W
LayerCount: 2
Fore
SplineSet
39 563 m 0,0,1
 39 657 39 657 106 684 c 0,2,3
 125 692 125 692 147 692 c 0,4,5
 193 692 193 692 225 660.5 c 128,-1,6
 257 629 257 629 257 563 c 256,7,8
 257 497 257 497 225 465 c 128,-1,9
 193 433 193 433 147.5 433 c 128,-1,10
 102 433 102 433 70.5 465 c 128,-1,11
 39 497 39 497 39 563 c 0,0,1
108.5 617.5 m 128,-1,13
 95 595 95 595 95 560.5 c 128,-1,14
 95 526 95 526 108.5 505 c 128,-1,15
 122 484 122 484 148 484 c 128,-1,16
 174 484 174 484 187.5 505 c 128,-1,17
 201 526 201 526 201 560.5 c 128,-1,18
 201 595 201 595 187.5 617.5 c 128,-1,19
 174 640 174 640 148 640 c 128,-1,12
 122 640 122 640 108.5 617.5 c 128,-1,13
EndSplineSet
EndChar

StartChar: guillemotright
Encoding: 187 187 125
Width: 455
GlyphClass: 2
Flags: W
LayerCount: 2
Fore
SplineSet
190 164 m 1,0,-1
 363 338 l 1,1,-1
 190 512 l 1,2,-1
 231 553 l 1,3,-1
 444 339 l 1,4,-1
 231 123 l 1,5,-1
 190 164 l 1,0,-1
46 185 m 1,6,-1
 198 338 l 1,7,-1
 46 491 l 1,8,-1
 87 532 l 1,9,-1
 279 339 l 1,10,-1
 87 144 l 1,11,-1
 46 185 l 1,6,-1
EndSplineSet
EndChar

StartChar: onequarter
Encoding: 188 188 126
Width: 598
GlyphClass: 2
Flags: W
LayerCount: 2
Fore
SplineSet
380 37 m 1,0,-1
 464 48 l 1,1,-1
 464 117 l 1,2,-1
 317 117 l 1,3,-1
 317 181 l 1,4,-1
 464 376 l 1,5,-1
 517 376 l 1,6,-1
 517 164 l 1,7,-1
 566 164 l 1,8,-1
 566 117 l 1,9,-1
 517 117 l 1,10,-1
 517 47 l 1,11,-1
 553 41 l 1,12,-1
 553 0 l 1,13,-1
 382 0 l 1,14,-1
 380 37 l 1,0,-1
127 -21 m 1,15,-1
 79 -21 l 1,16,-1
 76 -8 l 1,17,-1
 425 691 l 1,18,-1
 477 691 l 1,19,-1
 476 677 l 1,20,-1
 127 -21 l 1,15,-1
51 350 m 1,21,-1
 94 357 l 1,22,-1
 94 635 l 1,23,-1
 44 629 l 1,24,-1
 36 664 l 1,25,-1
 139 693 l 1,26,-1
 148 688 l 1,27,-1
 148 360 l 1,28,-1
 183 352 l 1,29,-1
 183 315 l 1,30,-1
 54 315 l 1,31,-1
 51 350 l 1,21,-1
464 164 m 1,32,-1
 464 300 l 1,33,-1
 361 164 l 1,34,-1
 464 164 l 1,32,-1
EndSplineSet
EndChar

StartChar: onehalf
Encoding: 189 189 127
Width: 625
GlyphClass: 2
Flags: W
LayerCount: 2
Fore
SplineSet
344 0 m 1,0,-1
 339 31 l 1,1,2
 346 39 346 39 363 54 c 128,-1,3
 380 69 380 69 401 89 c 128,-1,4
 422 109 422 109 444.5 132 c 128,-1,5
 467 155 467 155 486 178 c 0,6,7
 529 232 529 232 529 269 c 0,8,9
 529 309 529 309 502 326 c 0,10,11
 485 337 485 337 466 337 c 0,12,13
 439 337 439 337 416 327 c 1,14,-1
 387 267 l 1,15,-1
 333 301 l 1,16,17
 351 332 351 332 384.5 355.5 c 128,-1,18
 418 379 418 379 465.5 379 c 128,-1,19
 513 379 513 379 547 352 c 128,-1,20
 581 325 581 325 581 269 c 0,21,22
 581 187 581 187 462 80 c 0,23,24
 436 56 436 56 422 42 c 1,25,-1
 533 42 l 1,26,-1
 552 93 l 1,27,-1
 590 93 l 1,28,-1
 578 0 l 1,29,-1
 344 0 l 1,0,-1
50 350 m 1,30,-1
 93 357 l 1,31,-1
 93 635 l 1,32,-1
 43 629 l 1,33,-1
 35 664 l 1,34,-1
 138 693 l 1,35,-1
 147 688 l 1,36,-1
 147 360 l 1,37,-1
 182 352 l 1,38,-1
 182 315 l 1,39,-1
 53 315 l 1,40,-1
 50 350 l 1,30,-1
125 -21 m 1,41,-1
 77 -21 l 1,42,-1
 74 -8 l 1,43,-1
 423 691 l 1,44,-1
 475 691 l 1,45,-1
 474 677 l 1,46,-1
 125 -21 l 1,41,-1
EndSplineSet
EndChar

StartChar: threequarters
Encoding: 190 190 128
Width: 654
GlyphClass: 2
Flags: W
LayerCount: 2
Fore
SplineSet
436 37 m 1,0,-1
 520 48 l 1,1,-1
 520 117 l 1,2,-1
 373 117 l 1,3,-1
 373 181 l 1,4,-1
 520 376 l 1,5,-1
 573 376 l 1,6,-1
 573 164 l 1,7,-1
 622 164 l 1,8,-1
 622 117 l 1,9,-1
 573 117 l 1,10,-1
 573 47 l 1,11,-1
 609 41 l 1,12,-1
 609 0 l 1,13,-1
 438 0 l 1,14,-1
 436 37 l 1,0,-1
182 -21 m 1,15,-1
 134 -21 l 1,16,-1
 130 -8 l 1,17,-1
 480 691 l 1,18,-1
 532 691 l 1,19,-1
 530 677 l 1,20,-1
 182 -21 l 1,15,-1
225 413 m 0,21,22
 225 484 225 484 105 484 c 1,23,-1
 105 526 l 1,24,25
 164 526 164 526 183 534 c 0,26,27
 222 549 222 549 222 591 c 0,28,29
 222 616 222 616 196 633 c 0,30,31
 176 647 176 647 155 647 c 128,-1,32
 134 647 134 647 123 642 c 2,33,-1
 106 635 l 1,34,-1
 79 589 l 1,35,-1
 35 617 l 1,36,37
 58 664 58 664 112 682 c 0,38,39
 132 689 132 689 156 689 c 128,-1,40
 180 689 180 689 200 683 c 128,-1,41
 220 677 220 677 235 664 c 0,42,43
 269 636 269 636 269 590 c 0,44,45
 269 560 269 560 251 534 c 128,-1,46
 233 508 233 508 198 503 c 1,47,48
 238 497 238 497 256.5 470.5 c 128,-1,49
 275 444 275 444 275 416.5 c 128,-1,50
 275 389 275 389 263.5 368 c 128,-1,51
 252 347 252 347 233 333 c 0,52,53
 194 304 194 304 152 304 c 0,54,55
 79 304 79 304 34 336 c 1,56,-1
 62 379 l 1,57,58
 97 346 97 346 144 346 c 0,59,60
 174 346 174 346 192 358 c 0,61,62
 225 380 225 380 225 413 c 0,21,22
520 164 m 1,63,-1
 520 300 l 1,64,-1
 417 164 l 1,65,-1
 520 164 l 1,63,-1
EndSplineSet
EndChar

StartChar: questiondown
Encoding: 191 191 129
Width: 383
GlyphClass: 2
Flags: W
LayerCount: 2
Fore
SplineSet
230 229 m 1,0,-1
 229 241 l 1,1,-1
 286 243 l 1,2,3
 289 232 289 232 289 204.5 c 128,-1,4
 289 177 289 177 275 152.5 c 128,-1,5
 261 128 261 128 240 109 c 128,-1,6
 219 90 219 90 194.5 74.5 c 128,-1,7
 170 59 170 59 149 40 c 0,8,9
 100 -3 100 -3 100 -63 c 0,10,11
 100 -98 100 -98 116 -114 c 0,12,13
 147 -147 147 -147 198 -147 c 0,14,15
 230 -147 230 -147 265 -139 c 1,16,-1
 293 -42 l 1,17,-1
 343 -42 l 1,18,-1
 324 -189 l 1,19,20
 267 -208 267 -208 187 -208 c 128,-1,21
 107 -208 107 -208 66.5 -168 c 128,-1,22
 26 -128 26 -128 26 -67 c 0,23,24
 26 25 26 25 120 93 c 0,25,26
 147 113 147 113 170.5 129.5 c 128,-1,27
 194 146 194 146 204.5 158.5 c 128,-1,28
 215 171 215 171 220 184 c 1,29,30
 230 205 230 205 230 229 c 1,0,-1
288 468 m 128,-1,32
 303 453 303 453 303 431 c 128,-1,33
 303 409 303 409 288 394 c 128,-1,34
 273 379 273 379 251.5 379 c 128,-1,35
 230 379 230 379 214.5 394 c 128,-1,36
 199 409 199 409 199 431 c 128,-1,37
 199 453 199 453 214.5 468 c 128,-1,38
 230 483 230 483 251.5 483 c 128,-1,31
 273 483 273 483 288 468 c 128,-1,32
EndSplineSet
EndChar

StartChar: Agrave
Encoding: 192 192 130
Width: 570
GlyphClass: 2
Flags: W
LayerCount: 2
Fore
SplineSet
372 717 m 1,0,-1
 168 818 l 1,1,-1
 205 890 l 1,2,-1
 235 897 l 1,3,-1
 403 764 l 1,4,-1
 372 717 l 1,0,-1
364 0 m 1,5,-1
 364 44 l 1,6,-1
 445 65 l 1,7,-1
 392 241 l 1,8,-1
 169 241 l 1,9,-1
 117 62 l 1,10,-1
 205 45 l 1,11,-1
 205 0 l 1,12,-1
 11 0 l 1,13,-1
 -2 47 l 1,14,-1
 52 65 l 1,15,-1
 243 691 l 1,16,-1
 327 691 l 1,17,-1
 519 65 l 1,18,-1
 566 47 l 1,19,-1
 555 0 l 1,20,-1
 364 0 l 1,5,-1
279 616 m 1,21,-1
 188 304 l 1,22,-1
 373 304 l 1,23,-1
 279 616 l 1,21,-1
EndSplineSet
EndChar

StartChar: Aacute
Encoding: 193 193 131
Width: 570
GlyphClass: 2
Flags: W
LayerCount: 2
Fore
SplineSet
176 764 m 1,0,-1
 334 897 l 1,1,-1
 364 890 l 1,2,-1
 401 818 l 1,3,-1
 208 717 l 1,4,-1
 176 764 l 1,0,-1
364 0 m 1,5,-1
 364 44 l 1,6,-1
 445 65 l 1,7,-1
 392 241 l 1,8,-1
 169 241 l 1,9,-1
 117 62 l 1,10,-1
 205 45 l 1,11,-1
 205 0 l 1,12,-1
 11 0 l 1,13,-1
 -2 47 l 1,14,-1
 52 65 l 1,15,-1
 243 691 l 1,16,-1
 327 691 l 1,17,-1
 519 65 l 1,18,-1
 566 47 l 1,19,-1
 555 0 l 1,20,-1
 364 0 l 1,5,-1
279 616 m 1,21,-1
 188 304 l 1,22,-1
 373 304 l 1,23,-1
 279 616 l 1,21,-1
EndSplineSet
EndChar

StartChar: Acircumflex
Encoding: 194 194 132
Width: 570
GlyphClass: 2
Flags: W
LayerCount: 2
Fore
SplineSet
273 884 m 1,0,-1
 289 884 l 1,1,-1
 429 727 l 1,2,-1
 356 727 l 1,3,-1
 280 790 l 1,4,-1
 205 727 l 1,5,-1
 131 727 l 1,6,-1
 273 884 l 1,0,-1
364 0 m 1,7,-1
 364 44 l 1,8,-1
 445 65 l 1,9,-1
 392 241 l 1,10,-1
 169 241 l 1,11,-1
 117 62 l 1,12,-1
 205 45 l 1,13,-1
 205 0 l 1,14,-1
 11 0 l 1,15,-1
 -2 47 l 1,16,-1
 52 65 l 1,17,-1
 243 691 l 1,18,-1
 327 691 l 1,19,-1
 519 65 l 1,20,-1
 566 47 l 1,21,-1
 555 0 l 1,22,-1
 364 0 l 1,7,-1
279 616 m 1,23,-1
 188 304 l 1,24,-1
 373 304 l 1,25,-1
 279 616 l 1,23,-1
EndSplineSet
EndChar

StartChar: Atilde
Encoding: 195 195 133
Width: 570
GlyphClass: 2
Flags: W
LayerCount: 2
Fore
SplineSet
466 770 m 1,0,1
 417 727 417 727 382 727 c 0,2,3
 359 727 359 727 343 735 c 128,-1,4
 327 743 327 743 312 752.5 c 128,-1,5
 297 762 297 762 281 770 c 128,-1,6
 265 778 265 778 238 778 c 128,-1,7
 211 778 211 778 195 762.5 c 128,-1,8
 179 747 179 747 168 729 c 1,9,-1
 131 760 l 1,10,-1
 131 776 l 1,11,12
 151 816 151 816 196 834 c 0,13,14
 216 842 216 842 249 842 c 128,-1,15
 282 842 282 842 308.5 825 c 128,-1,16
 335 808 335 808 367 786 c 1,17,-1
 429 836 l 1,18,-1
 466 770 l 1,0,1
364 0 m 1,19,-1
 364 44 l 1,20,-1
 445 65 l 1,21,-1
 392 241 l 1,22,-1
 169 241 l 1,23,-1
 117 62 l 1,24,-1
 205 45 l 1,25,-1
 205 0 l 1,26,-1
 11 0 l 1,27,-1
 -2 47 l 1,28,-1
 52 65 l 1,29,-1
 243 691 l 1,30,-1
 327 691 l 1,31,-1
 519 65 l 1,32,-1
 566 47 l 1,33,-1
 555 0 l 1,34,-1
 364 0 l 1,19,-1
279 616 m 1,35,-1
 188 304 l 1,36,-1
 373 304 l 1,37,-1
 279 616 l 1,35,-1
EndSplineSet
EndChar

StartChar: Adieresis
Encoding: 196 196 134
Width: 570
GlyphClass: 2
Flags: W
LayerCount: 2
Fore
SplineSet
364 0 m 1,0,-1
 364 44 l 1,1,-1
 445 65 l 1,2,-1
 392 241 l 1,3,-1
 169 241 l 1,4,-1
 117 62 l 1,5,-1
 205 45 l 1,6,-1
 205 0 l 1,7,-1
 11 0 l 1,8,-1
 -2 47 l 1,9,-1
 52 65 l 1,10,-1
 243 691 l 1,11,-1
 327 691 l 1,12,-1
 519 65 l 1,13,-1
 566 47 l 1,14,-1
 555 0 l 1,15,-1
 364 0 l 1,0,-1
279 616 m 1,16,-1
 188 304 l 1,17,-1
 373 304 l 1,18,-1
 279 616 l 1,16,-1
127 772 m 256,19,20
 127 796 127 796 143.5 812.5 c 128,-1,21
 160 829 160 829 183.5 829 c 128,-1,22
 207 829 207 829 224.5 812.5 c 128,-1,23
 242 796 242 796 242 772 c 256,24,25
 242 748 242 748 224.5 731 c 128,-1,26
 207 714 207 714 183.5 714 c 128,-1,27
 160 714 160 714 143.5 731 c 128,-1,28
 127 748 127 748 127 772 c 256,19,20
303 772 m 256,29,30
 303 796 303 796 320.5 812.5 c 128,-1,31
 338 829 338 829 362 829 c 128,-1,32
 386 829 386 829 402 812.5 c 128,-1,33
 418 796 418 796 418 772 c 256,34,35
 418 748 418 748 402 731 c 128,-1,36
 386 714 386 714 362 714 c 128,-1,37
 338 714 338 714 320.5 731 c 128,-1,38
 303 748 303 748 303 772 c 256,29,30
EndSplineSet
EndChar

StartChar: Aring
Encoding: 197 197 135
Width: 567
GlyphClass: 2
Flags: W
LayerCount: 2
Fore
SplineSet
380 751 m 0,0,1
 380 697 380 697 333 668 c 1,2,-1
 518 65 l 1,3,-1
 565 47 l 1,4,-1
 554 0 l 1,5,-1
 363 0 l 1,6,-1
 363 44 l 1,7,-1
 444 65 l 1,8,-1
 391 241 l 1,9,-1
 168 241 l 1,10,-1
 116 62 l 1,11,-1
 204 45 l 1,12,-1
 204 0 l 1,13,-1
 10 0 l 1,14,-1
 -3 47 l 1,15,-1
 51 65 l 1,16,-1
 235 670 l 1,17,18
 215 682 215 682 203 703.5 c 128,-1,19
 191 725 191 725 191 747.5 c 128,-1,20
 191 770 191 770 198.5 787.5 c 128,-1,21
 206 805 206 805 218 818 c 1,22,23
 246 845 246 845 286 845 c 0,24,25
 325 845 325 845 352.5 817.5 c 128,-1,26
 380 790 380 790 380 751 c 0,0,1
278 616 m 1,27,-1
 187 304 l 1,28,-1
 372 304 l 1,29,-1
 278 616 l 1,27,-1
248 751 m 256,30,31
 248 734 248 734 258.5 723.5 c 128,-1,32
 269 713 269 713 286 713 c 256,33,34
 303 713 303 713 313 723.5 c 128,-1,35
 323 734 323 734 323 751 c 256,36,37
 323 768 323 768 313 778.5 c 128,-1,38
 303 789 303 789 286 789 c 256,39,40
 269 789 269 789 258.5 778.5 c 128,-1,41
 248 768 248 768 248 751 c 256,30,31
EndSplineSet
EndChar

StartChar: AE
Encoding: 198 198 136
Width: 720
GlyphClass: 2
Flags: W
LayerCount: 2
Fore
SplineSet
1 0 m 1,0,-1
 -12 47 l 1,1,-1
 41 65 l 1,2,-1
 278 691 l 1,3,-1
 650 691 l 1,4,-1
 670 520 l 1,5,-1
 622 520 l 1,6,-1
 588 623 l 1,7,-1
 399 623 l 1,8,-1
 399 364 l 1,9,-1
 541 364 l 1,10,-1
 541 301 l 1,11,-1
 399 301 l 1,12,-1
 399 68 l 1,13,-1
 598 68 l 1,14,-1
 633 171 l 1,15,-1
 680 171 l 1,16,-1
 661 0 l 1,17,-1
 291 0 l 1,18,-1
 283 56 l 1,19,-1
 331 68 l 1,20,-1
 331 298 l 1,21,-1
 196 298 l 1,22,-1
 107 62 l 1,23,-1
 193 45 l 1,24,-1
 193 0 l 1,25,-1
 1 0 l 1,0,-1
331 627 m 1,26,-1
 320 628 l 1,27,-1
 219 361 l 1,28,-1
 331 361 l 1,29,-1
 331 627 l 1,26,-1
EndSplineSet
EndChar

StartChar: Ccedilla
Encoding: 199 199 137
Width: 559
GlyphClass: 2
Flags: W
LayerCount: 2
Fore
SplineSet
375 -4 m 1,0,-1
 363 -3 l 1,1,-1
 351 -41 l 1,2,3
 413 -49 413 -49 435 -96 c 0,4,5
 443 -113 443 -113 443 -136 c 0,6,7
 443 -180 443 -180 413 -208 c 128,-1,8
 383 -236 383 -236 321 -236 c 0,9,10
 280 -236 280 -236 233 -216 c 1,11,-1
 221 -212 l 1,12,-1
 258 -141 l 1,13,-1
 323 -181 l 1,14,15
 347 -181 347 -181 362.5 -169 c 128,-1,16
 378 -157 378 -157 378 -139 c 128,-1,17
 378 -121 378 -121 361 -105.5 c 128,-1,18
 344 -90 344 -90 301 -90 c 2,19,-1
 293 -90 l 1,20,-1
 278 -74 l 1,21,-1
 306 2 l 1,22,23
 186 24 186 24 114 118 c 0,24,25
 42 211 42 211 42 346 c 0,26,27
 42 416 42 416 66.5 479 c 128,-1,28
 91 542 91 542 135 589 c 0,29,30
 230 691 230 691 377 691 c 0,31,32
 431 691 431 691 494 678 c 1,33,-1
 512 520 l 1,34,-1
 455 520 l 1,35,-1
 431 618 l 1,36,37
 423 619 423 619 413.5 621 c 128,-1,38
 404 623 404 623 379 623 c 0,39,40
 260 623 260 623 184 539 c 0,41,42
 113 461 113 461 113 348 c 0,43,44
 113 226 113 226 182 148 c 0,45,46
 256 64 256 64 374 64 c 0,47,48
 447 64 447 64 502 99 c 1,49,-1
 527 38 l 1,50,51
 501 20 501 20 459 8 c 128,-1,52
 417 -4 417 -4 375 -4 c 1,0,-1
EndSplineSet
EndChar

StartChar: Egrave
Encoding: 200 200 138
Width: 523
GlyphClass: 2
Flags: W
LayerCount: 2
Fore
SplineSet
328 717 m 1,0,-1
 124 818 l 1,1,-1
 161 890 l 1,2,-1
 191 897 l 1,3,-1
 359 764 l 1,4,-1
 328 717 l 1,0,-1
55 632 m 1,5,-1
 55 691 l 1,6,-1
 453 691 l 1,7,-1
 473 520 l 1,8,-1
 425 520 l 1,9,-1
 391 623 l 1,10,-1
 181 623 l 1,11,-1
 181 377 l 1,12,-1
 343 377 l 1,13,-1
 343 314 l 1,14,-1
 181 314 l 1,15,-1
 181 68 l 1,16,-1
 401 68 l 1,17,-1
 436 171 l 1,18,-1
 483 171 l 1,19,-1
 464 0 l 1,20,-1
 62 0 l 1,21,-1
 55 56 l 1,22,-1
 112 68 l 1,23,-1
 112 627 l 1,24,-1
 55 632 l 1,5,-1
EndSplineSet
EndChar

StartChar: Eacute
Encoding: 201 201 139
Width: 523
GlyphClass: 2
Flags: W
LayerCount: 2
Fore
SplineSet
173 764 m 1,0,-1
 331 897 l 1,1,-1
 361 890 l 1,2,-1
 398 818 l 1,3,-1
 205 717 l 1,4,-1
 173 764 l 1,0,-1
55 632 m 1,5,-1
 55 691 l 1,6,-1
 453 691 l 1,7,-1
 473 520 l 1,8,-1
 425 520 l 1,9,-1
 391 623 l 1,10,-1
 181 623 l 1,11,-1
 181 377 l 1,12,-1
 343 377 l 1,13,-1
 343 314 l 1,14,-1
 181 314 l 1,15,-1
 181 68 l 1,16,-1
 401 68 l 1,17,-1
 436 171 l 1,18,-1
 483 171 l 1,19,-1
 464 0 l 1,20,-1
 62 0 l 1,21,-1
 55 56 l 1,22,-1
 112 68 l 1,23,-1
 112 627 l 1,24,-1
 55 632 l 1,5,-1
EndSplineSet
EndChar

StartChar: Ecircumflex
Encoding: 202 202 140
Width: 523
GlyphClass: 2
Flags: W
LayerCount: 2
Fore
SplineSet
251 884 m 1,0,-1
 267 884 l 1,1,-1
 408 727 l 1,2,-1
 334 727 l 1,3,-1
 258 790 l 1,4,-1
 183 727 l 1,5,-1
 109 727 l 1,6,-1
 251 884 l 1,0,-1
55 632 m 1,7,-1
 55 691 l 1,8,-1
 453 691 l 1,9,-1
 473 520 l 1,10,-1
 425 520 l 1,11,-1
 391 623 l 1,12,-1
 181 623 l 1,13,-1
 181 377 l 1,14,-1
 343 377 l 1,15,-1
 343 314 l 1,16,-1
 181 314 l 1,17,-1
 181 68 l 1,18,-1
 401 68 l 1,19,-1
 436 171 l 1,20,-1
 483 171 l 1,21,-1
 464 0 l 1,22,-1
 62 0 l 1,23,-1
 55 56 l 1,24,-1
 112 68 l 1,25,-1
 112 627 l 1,26,-1
 55 632 l 1,7,-1
EndSplineSet
EndChar

StartChar: Edieresis
Encoding: 203 203 141
Width: 523
GlyphClass: 2
Flags: W
LayerCount: 2
Fore
SplineSet
55 632 m 1,0,-1
 55 691 l 1,1,-1
 453 691 l 1,2,-1
 473 520 l 1,3,-1
 425 520 l 1,4,-1
 391 623 l 1,5,-1
 181 623 l 1,6,-1
 181 377 l 1,7,-1
 343 377 l 1,8,-1
 343 314 l 1,9,-1
 181 314 l 1,10,-1
 181 68 l 1,11,-1
 401 68 l 1,12,-1
 436 171 l 1,13,-1
 483 171 l 1,14,-1
 464 0 l 1,15,-1
 62 0 l 1,16,-1
 55 56 l 1,17,-1
 112 68 l 1,18,-1
 112 627 l 1,19,-1
 55 632 l 1,0,-1
119 793 m 256,20,21
 119 817 119 817 135.5 833.5 c 128,-1,22
 152 850 152 850 175.5 850 c 128,-1,23
 199 850 199 850 216.5 833.5 c 128,-1,24
 234 817 234 817 234 793 c 256,25,26
 234 769 234 769 216.5 752 c 128,-1,27
 199 735 199 735 175.5 735 c 128,-1,28
 152 735 152 735 135.5 752 c 128,-1,29
 119 769 119 769 119 793 c 256,20,21
295 793 m 256,30,31
 295 817 295 817 312.5 833.5 c 128,-1,32
 330 850 330 850 354 850 c 128,-1,33
 378 850 378 850 394 833.5 c 128,-1,34
 410 817 410 817 410 793 c 256,35,36
 410 769 410 769 394 752 c 128,-1,37
 378 735 378 735 354 735 c 128,-1,38
 330 735 330 735 312.5 752 c 128,-1,39
 295 769 295 769 295 793 c 256,30,31
EndSplineSet
EndChar

StartChar: Igrave
Encoding: 204 204 142
Width: 293
GlyphClass: 2
Flags: W
LayerCount: 2
Fore
SplineSet
243 717 m 1,0,-1
 40 818 l 1,1,-1
 76 890 l 1,2,-1
 107 897 l 1,3,-1
 275 764 l 1,4,-1
 243 717 l 1,0,-1
112 64 m 1,5,-1
 112 627 l 1,6,-1
 55 631 l 1,7,-1
 55 691 l 1,8,-1
 231 691 l 1,9,-1
 235 635 l 1,10,-1
 181 627 l 1,11,-1
 181 64 l 1,12,-1
 238 60 l 1,13,-1
 238 0 l 1,14,-1
 62 0 l 1,15,-1
 58 56 l 1,16,-1
 112 64 l 1,5,-1
EndSplineSet
EndChar

StartChar: Iacute
Encoding: 205 205 143
Width: 293
GlyphClass: 2
Flags: W
LayerCount: 2
Fore
SplineSet
37 764 m 1,0,-1
 194 897 l 1,1,-1
 225 890 l 1,2,-1
 261 818 l 1,3,-1
 68 717 l 1,4,-1
 37 764 l 1,0,-1
112 64 m 1,5,-1
 112 627 l 1,6,-1
 55 631 l 1,7,-1
 55 691 l 1,8,-1
 231 691 l 1,9,-1
 235 635 l 1,10,-1
 181 627 l 1,11,-1
 181 64 l 1,12,-1
 238 60 l 1,13,-1
 238 0 l 1,14,-1
 62 0 l 1,15,-1
 58 56 l 1,16,-1
 112 64 l 1,5,-1
EndSplineSet
EndChar

StartChar: Icircumflex
Encoding: 206 206 144
Width: 293
GlyphClass: 2
Flags: W
LayerCount: 2
Fore
SplineSet
141 884 m 1,0,-1
 157 884 l 1,1,-1
 297 727 l 1,2,-1
 224 727 l 1,3,-1
 148 790 l 1,4,-1
 73 727 l 1,5,-1
 -1 727 l 1,6,-1
 141 884 l 1,0,-1
112 64 m 1,7,-1
 112 627 l 1,8,-1
 55 631 l 1,9,-1
 55 691 l 1,10,-1
 231 691 l 1,11,-1
 235 635 l 1,12,-1
 181 627 l 1,13,-1
 181 64 l 1,14,-1
 238 60 l 1,15,-1
 238 0 l 1,16,-1
 62 0 l 1,17,-1
 58 56 l 1,18,-1
 112 64 l 1,7,-1
EndSplineSet
EndChar

StartChar: Idieresis
Encoding: 207 207 145
Width: 293
GlyphClass: 2
Flags: W
LayerCount: 2
Fore
SplineSet
36 752 m 128,-1,1
 20 769 20 769 20 792.5 c 128,-1,2
 20 816 20 816 36 833 c 128,-1,3
 52 850 52 850 76 850 c 256,4,5
 100 850 100 850 117 833 c 128,-1,6
 134 816 134 816 134 792.5 c 128,-1,7
 134 769 134 769 117 752 c 128,-1,8
 100 735 100 735 76 735 c 256,9,0
 52 735 52 735 36 752 c 128,-1,1
182 752 m 128,-1,11
 165 769 165 769 165 792.5 c 128,-1,12
 165 816 165 816 182 833 c 128,-1,13
 199 850 199 850 223 850 c 256,14,15
 247 850 247 850 263 833 c 128,-1,16
 279 816 279 816 279 792.5 c 128,-1,17
 279 769 279 769 263 752 c 128,-1,18
 247 735 247 735 223 735 c 256,19,10
 199 735 199 735 182 752 c 128,-1,11
112 64 m 1,20,-1
 112 627 l 1,21,-1
 55 631 l 1,22,-1
 55 691 l 1,23,-1
 231 691 l 1,24,-1
 235 635 l 1,25,-1
 181 627 l 1,26,-1
 181 64 l 1,27,-1
 238 60 l 1,28,-1
 238 0 l 1,29,-1
 62 0 l 1,30,-1
 58 56 l 1,31,-1
 112 64 l 1,20,-1
EndSplineSet
EndChar

StartChar: Eth
Encoding: 208 208 146
Width: 606
GlyphClass: 2
Flags: W
LayerCount: 2
Fore
SplineSet
56 56 m 1,0,-1
 113 69 l 1,1,-1
 113 314 l 1,2,-1
 23 314 l 1,3,-1
 23 369 l 1,4,-1
 30 377 l 1,5,-1
 113 377 l 1,6,-1
 113 627 l 1,7,-1
 56 632 l 1,8,-1
 56 691 l 1,9,-1
 199 691 l 2,10,11
 362 691 362 691 458 608 c 1,12,13
 562 516 562 516 562 349 c 0,14,15
 562 175 562 175 467 86 c 1,16,17
 377 0 377 0 212 0 c 2,18,-1
 63 0 l 1,19,-1
 56 56 l 1,0,-1
491 353 m 0,20,21
 491 409 491 409 472 459.5 c 128,-1,22
 453 510 453 510 417 546 c 0,23,24
 342 623 342 623 209 623 c 2,25,-1
 182 623 l 1,26,-1
 182 377 l 1,27,-1
 350 377 l 2,28,29
 357 377 357 377 357 370 c 2,30,-1
 357 314 l 1,31,-1
 182 314 l 1,32,-1
 182 68 l 1,33,-1
 226 68 l 2,34,35
 370 68 370 68 437 156 c 0,36,37
 491 228 491 228 491 353 c 0,20,21
EndSplineSet
EndChar

StartChar: Ntilde
Encoding: 209 209 147
Width: 659
GlyphClass: 2
Flags: W
LayerCount: 2
Fore
SplineSet
504 770 m 1,0,1
 455 727 455 727 420 727 c 0,2,3
 397 727 397 727 381 735 c 128,-1,4
 365 743 365 743 350 752.5 c 128,-1,5
 335 762 335 762 319 770 c 128,-1,6
 303 778 303 778 276 778 c 128,-1,7
 249 778 249 778 233 762.5 c 128,-1,8
 217 747 217 747 206 729 c 1,9,-1
 169 760 l 1,10,-1
 169 776 l 1,11,12
 189 816 189 816 234 834 c 0,13,14
 254 842 254 842 287 842 c 128,-1,15
 320 842 320 842 346.5 825 c 128,-1,16
 373 808 373 808 405 786 c 1,17,-1
 467 836 l 1,18,-1
 504 770 l 1,0,1
174 629 m 1,19,-1
 174 66 l 1,20,-1
 241 56 l 1,21,-1
 241 0 l 1,22,-1
 62 0 l 1,23,-1
 54 56 l 1,24,-1
 112 68 l 1,25,-1
 112 627 l 1,26,-1
 54 632 l 1,27,-1
 54 691 l 1,28,-1
 221 691 l 1,29,-1
 491 75 l 1,30,-1
 491 625 l 1,31,-1
 427 635 l 1,32,-1
 427 691 l 1,33,-1
 605 691 l 1,34,-1
 615 635 l 1,35,-1
 554 623 l 1,36,-1
 554 0 l 1,37,-1
 449 0 l 1,38,-1
 174 629 l 1,19,-1
EndSplineSet
EndChar

StartChar: Ograve
Encoding: 210 210 148
Width: 645
GlyphClass: 2
Flags: W
LayerCount: 2
Fore
SplineSet
415 717 m 1,0,-1
 212 818 l 1,1,-1
 248 890 l 1,2,-1
 279 897 l 1,3,-1
 447 764 l 1,4,-1
 415 717 l 1,0,-1
323 -4 m 0,5,6
 190 -4 190 -4 116 106 c 0,7,8
 50 203 50 203 50 343 c 256,9,10
 50 483 50 483 116 580 c 0,11,12
 149 629 149 629 200.5 660 c 128,-1,13
 252 691 252 691 323 691 c 256,14,15
 394 691 394 691 445.5 660 c 128,-1,16
 497 629 497 629 530 580 c 0,17,18
 595 482 595 482 595 343 c 256,19,20
 595 204 595 204 530 106 c 0,21,22
 497 57 497 57 445.5 26.5 c 128,-1,23
 394 -4 394 -4 323 -4 c 0,5,6
121 341 m 0,24,25
 121 227 121 227 167 152 c 0,26,27
 220 64 220 64 323 64 c 0,28,29
 425 64 425 64 478 152 c 0,30,31
 524 227 524 227 524 341 c 0,32,33
 524 456 524 456 478 533 c 0,34,35
 424 623 424 623 323 623 c 0,36,37
 221 623 221 623 167 533 c 0,38,39
 121 456 121 456 121 341 c 0,24,25
EndSplineSet
EndChar

StartChar: Oacute
Encoding: 211 211 149
Width: 645
GlyphClass: 2
Flags: W
LayerCount: 2
Fore
SplineSet
208 764 m 1,0,-1
 366 897 l 1,1,-1
 396 890 l 1,2,-1
 433 818 l 1,3,-1
 240 717 l 1,4,-1
 208 764 l 1,0,-1
323 -4 m 0,5,6
 190 -4 190 -4 116 106 c 0,7,8
 50 203 50 203 50 343 c 256,9,10
 50 483 50 483 116 580 c 0,11,12
 149 629 149 629 200.5 660 c 128,-1,13
 252 691 252 691 323 691 c 256,14,15
 394 691 394 691 445.5 660 c 128,-1,16
 497 629 497 629 530 580 c 0,17,18
 595 482 595 482 595 343 c 256,19,20
 595 204 595 204 530 106 c 0,21,22
 497 57 497 57 445.5 26.5 c 128,-1,23
 394 -4 394 -4 323 -4 c 0,5,6
121 341 m 0,24,25
 121 227 121 227 167 152 c 0,26,27
 220 64 220 64 323 64 c 0,28,29
 425 64 425 64 478 152 c 0,30,31
 524 227 524 227 524 341 c 0,32,33
 524 456 524 456 478 533 c 0,34,35
 424 623 424 623 323 623 c 0,36,37
 221 623 221 623 167 533 c 0,38,39
 121 456 121 456 121 341 c 0,24,25
EndSplineSet
EndChar

StartChar: Ocircumflex
Encoding: 212 212 150
Width: 645
GlyphClass: 2
Flags: W
LayerCount: 2
Fore
SplineSet
307 884 m 1,0,-1
 323 884 l 1,1,-1
 464 727 l 1,2,-1
 390 727 l 1,3,-1
 314 790 l 1,4,-1
 239 727 l 1,5,-1
 165 727 l 1,6,-1
 307 884 l 1,0,-1
323 -4 m 0,7,8
 190 -4 190 -4 116 106 c 0,9,10
 50 203 50 203 50 343 c 256,11,12
 50 483 50 483 116 580 c 0,13,14
 149 629 149 629 200.5 660 c 128,-1,15
 252 691 252 691 323 691 c 256,16,17
 394 691 394 691 445.5 660 c 128,-1,18
 497 629 497 629 530 580 c 0,19,20
 595 482 595 482 595 343 c 256,21,22
 595 204 595 204 530 106 c 0,23,24
 497 57 497 57 445.5 26.5 c 128,-1,25
 394 -4 394 -4 323 -4 c 0,7,8
121 341 m 0,26,27
 121 227 121 227 167 152 c 0,28,29
 220 64 220 64 323 64 c 0,30,31
 425 64 425 64 478 152 c 0,32,33
 524 227 524 227 524 341 c 0,34,35
 524 456 524 456 478 533 c 0,36,37
 424 623 424 623 323 623 c 0,38,39
 221 623 221 623 167 533 c 0,40,41
 121 456 121 456 121 341 c 0,26,27
EndSplineSet
EndChar

StartChar: Otilde
Encoding: 213 213 151
Width: 645
GlyphClass: 2
Flags: W
LayerCount: 2
Fore
SplineSet
499 770 m 1,0,1
 450 727 450 727 415 727 c 0,2,3
 392 727 392 727 376 735 c 128,-1,4
 360 743 360 743 345 752.5 c 128,-1,5
 330 762 330 762 314 770 c 128,-1,6
 298 778 298 778 271 778 c 128,-1,7
 244 778 244 778 228 762.5 c 128,-1,8
 212 747 212 747 201 729 c 1,9,-1
 164 760 l 1,10,-1
 164 776 l 1,11,12
 184 816 184 816 229 834 c 0,13,14
 249 842 249 842 282 842 c 128,-1,15
 315 842 315 842 341.5 825 c 128,-1,16
 368 808 368 808 400 786 c 1,17,-1
 462 836 l 1,18,-1
 499 770 l 1,0,1
323 -4 m 0,19,20
 190 -4 190 -4 116 106 c 0,21,22
 50 203 50 203 50 343 c 256,23,24
 50 483 50 483 116 580 c 0,25,26
 149 629 149 629 200.5 660 c 128,-1,27
 252 691 252 691 323 691 c 256,28,29
 394 691 394 691 445.5 660 c 128,-1,30
 497 629 497 629 530 580 c 0,31,32
 595 482 595 482 595 343 c 256,33,34
 595 204 595 204 530 106 c 0,35,36
 497 57 497 57 445.5 26.5 c 128,-1,37
 394 -4 394 -4 323 -4 c 0,19,20
121 341 m 0,38,39
 121 227 121 227 167 152 c 0,40,41
 220 64 220 64 323 64 c 0,42,43
 425 64 425 64 478 152 c 0,44,45
 524 227 524 227 524 341 c 0,46,47
 524 456 524 456 478 533 c 0,48,49
 424 623 424 623 323 623 c 0,50,51
 221 623 221 623 167 533 c 0,52,53
 121 456 121 456 121 341 c 0,38,39
EndSplineSet
EndChar

StartChar: Odieresis
Encoding: 214 214 152
Width: 645
GlyphClass: 2
Flags: W
LayerCount: 2
Fore
SplineSet
323 -4 m 0,0,1
 190 -4 190 -4 116 106 c 0,2,3
 50 203 50 203 50 343 c 256,4,5
 50 483 50 483 116 580 c 0,6,7
 149 629 149 629 200.5 660 c 128,-1,8
 252 691 252 691 323 691 c 256,9,10
 394 691 394 691 445.5 660 c 128,-1,11
 497 629 497 629 530 580 c 0,12,13
 595 482 595 482 595 343 c 256,14,15
 595 204 595 204 530 106 c 0,16,17
 497 57 497 57 445.5 26.5 c 128,-1,18
 394 -4 394 -4 323 -4 c 0,0,1
121 341 m 0,19,20
 121 227 121 227 167 152 c 0,21,22
 220 64 220 64 323 64 c 0,23,24
 425 64 425 64 478 152 c 0,25,26
 524 227 524 227 524 341 c 0,27,28
 524 456 524 456 478 533 c 0,29,30
 424 623 424 623 323 623 c 0,31,32
 221 623 221 623 167 533 c 0,33,34
 121 456 121 456 121 341 c 0,19,20
187 793 m 256,35,36
 187 817 187 817 203.5 833.5 c 128,-1,37
 220 850 220 850 243.5 850 c 128,-1,38
 267 850 267 850 284.5 833.5 c 128,-1,39
 302 817 302 817 302 793 c 256,40,41
 302 769 302 769 284.5 752 c 128,-1,42
 267 735 267 735 243.5 735 c 128,-1,43
 220 735 220 735 203.5 752 c 128,-1,44
 187 769 187 769 187 793 c 256,35,36
363 793 m 256,45,46
 363 817 363 817 380.5 833.5 c 128,-1,47
 398 850 398 850 422 850 c 128,-1,48
 446 850 446 850 462 833.5 c 128,-1,49
 478 817 478 817 478 793 c 256,50,51
 478 769 478 769 462 752 c 128,-1,52
 446 735 446 735 422 735 c 128,-1,53
 398 735 398 735 380.5 752 c 128,-1,54
 363 769 363 769 363 793 c 256,45,46
EndSplineSet
EndChar

StartChar: multiply
Encoding: 215 215 153
Width: 513
GlyphClass: 2
Flags: W
LayerCount: 2
Fore
SplineSet
54 186 m 1,0,-1
 212 340 l 1,1,-1
 59 498 l 1,2,-1
 103 542 l 1,3,-1
 257 383 l 1,4,-1
 415 537 l 1,5,-1
 459 492 l 1,6,-1
 301 338 l 1,7,-1
 454 181 l 1,8,-1
 410 136 l 1,9,-1
 256 295 l 1,10,-1
 98 142 l 1,11,-1
 54 186 l 1,0,-1
EndSplineSet
EndChar

StartChar: Oslash
Encoding: 216 216 154
Width: 645
GlyphClass: 2
Flags: W
LayerCount: 2
Fore
SplineSet
200.5 660 m 128,-1,1
 252 691 252 691 317.5 691 c 128,-1,2
 383 691 383 691 433 666 c 1,3,-1
 472 745 l 1,4,-1
 539 745 l 1,5,-1
 538 731 l 1,6,-1
 488 629 l 1,7,8
 543 578 543 578 569 501 c 128,-1,9
 595 424 595 424 595 352 c 128,-1,10
 595 280 595 280 579 218 c 128,-1,11
 563 156 563 156 530 106.5 c 128,-1,12
 497 57 497 57 445.5 26.5 c 128,-1,13
 394 -4 394 -4 321.5 -4 c 128,-1,14
 249 -4 249 -4 193 30 c 1,15,-1
 158 -42 l 1,16,-1
 94 -42 l 1,17,-1
 91 -29 l 1,18,-1
 141 73 l 1,19,20
 94 124 94 124 72 196.5 c 128,-1,21
 50 269 50 269 50 337.5 c 128,-1,22
 50 406 50 406 66 468 c 128,-1,23
 82 530 82 530 115.5 579.5 c 128,-1,0
 149 629 149 629 200.5 660 c 128,-1,1
224 92 m 1,24,25
 264 64 264 64 321 64 c 128,-1,26
 378 64 378 64 416 88 c 128,-1,27
 454 112 454 112 478 152 c 0,28,29
 524 227 524 227 524 341 c 0,30,31
 524 485 524 485 456 564 c 1,32,-1
 224 92 l 1,24,25
403 605 m 1,33,34
 365 623 365 623 316.5 623 c 128,-1,35
 268 623 268 623 229.5 598 c 128,-1,36
 191 573 191 573 167 533 c 0,37,38
 121 456 121 456 121 341 c 0,39,40
 121 218 121 218 174 140 c 1,41,-1
 403 605 l 1,33,34
EndSplineSet
EndChar

StartChar: Ugrave
Encoding: 217 217 155
Width: 628
GlyphClass: 2
Flags: W
LayerCount: 2
Fore
SplineSet
392 717 m 1,0,-1
 189 818 l 1,1,-1
 225 890 l 1,2,-1
 256 897 l 1,3,-1
 424 764 l 1,4,-1
 392 717 l 1,0,-1
417 631 m 1,5,-1
 417 691 l 1,6,-1
 587 691 l 1,7,-1
 591 635 l 1,8,-1
 536 627 l 1,9,-1
 536 202 l 2,10,11
 536 106 536 106 471 50 c 0,12,13
 409 -4 409 -4 313 -4 c 128,-1,14
 217 -4 217 -4 157 52 c 0,15,16
 96 109 96 109 96 202 c 2,17,-1
 96 627 l 1,18,-1
 38 631 l 1,19,-1
 38 691 l 1,20,-1
 215 691 l 1,21,-1
 219 635 l 1,22,-1
 164 627 l 1,23,-1
 164 213 l 2,24,25
 164 141 164 141 205 102 c 128,-1,26
 246 63 246 63 319 63 c 0,27,28
 426 63 426 63 462 144 c 0,29,30
 474 172 474 172 474 213 c 2,31,-1
 474 627 l 1,32,-1
 417 631 l 1,5,-1
EndSplineSet
EndChar

StartChar: Uacute
Encoding: 218 218 156
Width: 628
GlyphClass: 2
Flags: W
LayerCount: 2
Fore
SplineSet
219 764 m 1,0,-1
 377 897 l 1,1,-1
 407 890 l 1,2,-1
 444 818 l 1,3,-1
 251 717 l 1,4,-1
 219 764 l 1,0,-1
417 631 m 1,5,-1
 417 691 l 1,6,-1
 587 691 l 1,7,-1
 591 635 l 1,8,-1
 536 627 l 1,9,-1
 536 202 l 2,10,11
 536 106 536 106 471 50 c 0,12,13
 409 -4 409 -4 313 -4 c 128,-1,14
 217 -4 217 -4 157 52 c 0,15,16
 96 109 96 109 96 202 c 2,17,-1
 96 627 l 1,18,-1
 38 631 l 1,19,-1
 38 691 l 1,20,-1
 215 691 l 1,21,-1
 219 635 l 1,22,-1
 164 627 l 1,23,-1
 164 213 l 2,24,25
 164 141 164 141 205 102 c 128,-1,26
 246 63 246 63 319 63 c 0,27,28
 426 63 426 63 462 144 c 0,29,30
 474 172 474 172 474 213 c 2,31,-1
 474 627 l 1,32,-1
 417 631 l 1,5,-1
EndSplineSet
EndChar

StartChar: Ucircumflex
Encoding: 219 219 157
Width: 628
GlyphClass: 2
Flags: W
LayerCount: 2
Fore
SplineSet
303 884 m 1,0,-1
 319 884 l 1,1,-1
 460 727 l 1,2,-1
 386 727 l 1,3,-1
 310 790 l 1,4,-1
 235 727 l 1,5,-1
 161 727 l 1,6,-1
 303 884 l 1,0,-1
417 631 m 1,7,-1
 417 691 l 1,8,-1
 587 691 l 1,9,-1
 591 635 l 1,10,-1
 536 627 l 1,11,-1
 536 202 l 2,12,13
 536 106 536 106 471 50 c 0,14,15
 409 -4 409 -4 313 -4 c 128,-1,16
 217 -4 217 -4 157 52 c 0,17,18
 96 109 96 109 96 202 c 2,19,-1
 96 627 l 1,20,-1
 38 631 l 1,21,-1
 38 691 l 1,22,-1
 215 691 l 1,23,-1
 219 635 l 1,24,-1
 164 627 l 1,25,-1
 164 213 l 2,26,27
 164 141 164 141 205 102 c 128,-1,28
 246 63 246 63 319 63 c 0,29,30
 426 63 426 63 462 144 c 0,31,32
 474 172 474 172 474 213 c 2,33,-1
 474 627 l 1,34,-1
 417 631 l 1,7,-1
EndSplineSet
EndChar

StartChar: Udieresis
Encoding: 220 220 158
Width: 628
GlyphClass: 2
Flags: W
LayerCount: 2
Fore
SplineSet
417 631 m 1,0,-1
 417 691 l 1,1,-1
 587 691 l 1,2,-1
 591 635 l 1,3,-1
 536 627 l 1,4,-1
 536 202 l 2,5,6
 536 106 536 106 471 50 c 0,7,8
 409 -4 409 -4 313 -4 c 128,-1,9
 217 -4 217 -4 157 52 c 0,10,11
 96 109 96 109 96 202 c 2,12,-1
 96 627 l 1,13,-1
 38 631 l 1,14,-1
 38 691 l 1,15,-1
 215 691 l 1,16,-1
 219 635 l 1,17,-1
 164 627 l 1,18,-1
 164 213 l 2,19,20
 164 141 164 141 205 102 c 128,-1,21
 246 63 246 63 319 63 c 0,22,23
 426 63 426 63 462 144 c 0,24,25
 474 172 474 172 474 213 c 2,26,-1
 474 627 l 1,27,-1
 417 631 l 1,0,-1
164 793 m 256,28,29
 164 817 164 817 180.5 833.5 c 128,-1,30
 197 850 197 850 220.5 850 c 128,-1,31
 244 850 244 850 261.5 833.5 c 128,-1,32
 279 817 279 817 279 793 c 256,33,34
 279 769 279 769 261.5 752 c 128,-1,35
 244 735 244 735 220.5 735 c 128,-1,36
 197 735 197 735 180.5 752 c 128,-1,37
 164 769 164 769 164 793 c 256,28,29
340 793 m 256,38,39
 340 817 340 817 357.5 833.5 c 128,-1,40
 375 850 375 850 399 850 c 128,-1,41
 423 850 423 850 439 833.5 c 128,-1,42
 455 817 455 817 455 793 c 256,43,44
 455 769 455 769 439 752 c 128,-1,45
 423 735 423 735 399 735 c 128,-1,46
 375 735 375 735 357.5 752 c 128,-1,47
 340 769 340 769 340 793 c 256,38,39
EndSplineSet
EndChar

StartChar: Yacute
Encoding: 221 221 159
Width: 539
GlyphClass: 2
Flags: W
LayerCount: 2
Fore
SplineSet
168 764 m 1,0,-1
 326 897 l 1,1,-1
 356 890 l 1,2,-1
 393 818 l 1,3,-1
 200 717 l 1,4,-1
 168 764 l 1,0,-1
189 691 m 1,5,-1
 189 638 l 1,6,-1
 126 628 l 1,7,-1
 278 330 l 1,8,-1
 418 629 l 1,9,-1
 357 637 l 1,10,-1
 357 691 l 1,11,-1
 529 691 l 1,12,-1
 529 631 l 1,13,-1
 486 621 l 1,14,-1
 305 243 l 1,15,-1
 305 70 l 1,16,-1
 420 52 l 1,17,-1
 411 0 l 1,18,-1
 131 0 l 1,19,-1
 121 52 l 1,20,-1
 237 70 l 1,21,-1
 237 257 l 1,22,-1
 50 622 l 1,23,-1
 7 631 l 1,24,-1
 7 691 l 1,25,-1
 189 691 l 1,5,-1
EndSplineSet
EndChar

StartChar: Thorn
Encoding: 222 222 160
Width: 500
GlyphClass: 2
Flags: W
LayerCount: 2
Fore
SplineSet
112 64 m 1,0,-1
 112 627 l 1,1,-1
 55 631 l 1,2,-1
 55 691 l 1,3,-1
 232 691 l 1,4,-1
 236 635 l 1,5,-1
 181 627 l 1,6,-1
 181 561 l 1,7,-1
 224 561 l 2,8,9
 399 561 399 561 454 462 c 0,10,11
 475 425 475 425 475 371 c 0,12,13
 475 270 475 270 398 218 c 0,14,15
 333 175 333 175 221 175 c 2,16,-1
 181 175 l 1,17,-1
 181 64 l 1,18,-1
 291 51 l 1,19,-1
 291 0 l 1,20,-1
 63 0 l 1,21,-1
 58 56 l 1,22,-1
 112 64 l 1,0,-1
217 244 m 2,23,24
 349 244 349 244 388 308 c 0,25,26
 402 332 402 332 402 369.5 c 128,-1,27
 402 407 402 407 388 431 c 128,-1,28
 374 455 374 455 349 468 c 0,29,30
 305 492 305 492 218 492 c 2,31,-1
 181 492 l 1,32,-1
 181 244 l 1,33,-1
 217 244 l 2,23,24
EndSplineSet
EndChar

StartChar: germandbls
Encoding: 223 223 161
Width: 511
GlyphClass: 2
Flags: W
LayerCount: 2
Fore
SplineSet
232 670 m 0,0,1
 150 670 150 670 150 559 c 2,2,-1
 150 0 l 1,3,-1
 35 0 l 1,4,-1
 35 44 l 1,5,-1
 87 55 l 1,6,-1
 87 558 l 2,7,8
 87 641 87 641 128 686 c 1,9,10
 167 727 167 727 232 727 c 128,-1,11
 297 727 297 727 338.5 690 c 128,-1,12
 380 653 380 653 380 585 c 0,13,14
 380 526 380 526 330 468 c 0,15,16
 312 447 312 447 296.5 431.5 c 128,-1,17
 281 416 281 416 281 406.5 c 128,-1,18
 281 397 281 397 283 389.5 c 128,-1,19
 285 382 285 382 291 375 c 0,20,21
 303 360 303 360 341.5 343 c 128,-1,22
 380 326 380 326 407.5 308.5 c 128,-1,23
 435 291 435 291 452 270 c 0,24,25
 483 232 483 232 483 166 c 0,26,27
 483 89 483 89 421 40 c 0,28,29
 366 -4 366 -4 302 -4 c 0,30,31
 256 -4 256 -4 190 20 c 1,32,-1
 214 87 l 1,33,-1
 302 53 l 1,34,35
 357 53 357 53 387 86 c 128,-1,36
 417 119 417 119 417 165 c 128,-1,37
 417 211 417 211 391.5 238.5 c 128,-1,38
 366 266 366 266 318 290.5 c 128,-1,39
 270 315 270 315 246.5 338.5 c 128,-1,40
 223 362 223 362 223 394 c 128,-1,41
 223 426 223 426 237 446.5 c 128,-1,42
 251 467 251 467 268.5 486.5 c 128,-1,43
 286 506 286 506 300 529 c 128,-1,44
 314 552 314 552 314 577 c 128,-1,45
 314 602 314 602 308.5 617 c 128,-1,46
 303 632 303 632 292 644 c 0,47,48
 270 670 270 670 232 670 c 0,0,1
EndSplineSet
EndChar

StartChar: agrave
Encoding: 224 224 162
Width: 448
GlyphClass: 2
Flags: W
LayerCount: 2
Fore
SplineSet
308 40 m 1,0,1
 260 -4 260 -4 190 -4 c 0,2,3
 128 -4 128 -4 86 31 c 0,4,5
 41 68 41 68 41 123.5 c 128,-1,6
 41 179 41 179 68.5 210 c 128,-1,7
 96 241 96 241 136 258 c 0,8,9
 200 285 200 285 303 288 c 1,10,-1
 303 352 l 2,11,12
 303 384 303 384 279 403 c 128,-1,13
 255 422 255 422 215 422 c 0,14,15
 167 422 167 422 146 409 c 1,16,-1
 130 356 l 1,17,-1
 48 371 l 1,18,19
 65 423 65 423 112 452 c 0,20,21
 154 479 154 479 209 479 c 0,22,23
 292 479 292 479 329 440.5 c 128,-1,24
 366 402 366 402 366 337 c 2,25,-1
 366 79 l 2,26,27
 366 50 366 50 389 50 c 0,28,29
 398 50 398 50 410 55 c 1,30,-1
 421 17 l 1,31,32
 400 -4 400 -4 366 -4 c 0,33,34
 320 -4 320 -4 308 40 c 1,0,1
128 184 m 0,35,36
 107 164 107 164 107 130 c 128,-1,37
 107 96 107 96 131 74.5 c 128,-1,38
 155 53 155 53 192 53 c 0,39,40
 267 53 267 53 303 108 c 1,41,-1
 303 232 l 1,42,43
 178 232 178 232 128 184 c 0,35,36
270 554 m 1,44,-1
 130 674 l 1,45,-1
 174 727 l 1,46,-1
 200 727 l 1,47,-1
 304 587 l 1,48,-1
 270 554 l 1,44,-1
EndSplineSet
EndChar

StartChar: aacute
Encoding: 225 225 163
Width: 448
GlyphClass: 2
Flags: W
LayerCount: 2
Fore
SplineSet
308 40 m 1,0,1
 260 -4 260 -4 190 -4 c 0,2,3
 128 -4 128 -4 86 31 c 0,4,5
 41 68 41 68 41 123.5 c 128,-1,6
 41 179 41 179 68.5 210 c 128,-1,7
 96 241 96 241 136 258 c 0,8,9
 200 285 200 285 303 288 c 1,10,-1
 303 352 l 2,11,12
 303 384 303 384 279 403 c 128,-1,13
 255 422 255 422 215 422 c 0,14,15
 167 422 167 422 146 409 c 1,16,-1
 130 356 l 1,17,-1
 48 371 l 1,18,19
 65 423 65 423 112 452 c 0,20,21
 154 479 154 479 209 479 c 0,22,23
 292 479 292 479 329 440.5 c 128,-1,24
 366 402 366 402 366 337 c 2,25,-1
 366 79 l 2,26,27
 366 50 366 50 389 50 c 0,28,29
 398 50 398 50 410 55 c 1,30,-1
 421 17 l 1,31,32
 400 -4 400 -4 366 -4 c 0,33,34
 320 -4 320 -4 308 40 c 1,0,1
128 184 m 0,35,36
 107 164 107 164 107 130 c 128,-1,37
 107 96 107 96 131 74.5 c 128,-1,38
 155 53 155 53 192 53 c 0,39,40
 267 53 267 53 303 108 c 1,41,-1
 303 232 l 1,42,43
 178 232 178 232 128 184 c 0,35,36
149 586 m 1,44,-1
 253 725 l 1,45,-1
 280 725 l 1,46,-1
 324 673 l 1,47,-1
 184 553 l 1,48,-1
 149 586 l 1,44,-1
EndSplineSet
EndChar

StartChar: acircumflex
Encoding: 226 226 164
Width: 448
GlyphClass: 2
Flags: W
LayerCount: 2
Fore
SplineSet
87 548 m 1,0,-1
 203 691 l 1,1,-1
 219 691 l 1,2,-1
 335 550 l 1,3,-1
 332 544 l 1,4,-1
 277 544 l 1,5,-1
 211 602 l 1,6,-1
 145 544 l 1,7,-1
 91 544 l 1,8,-1
 87 548 l 1,0,-1
308 40 m 1,9,10
 260 -4 260 -4 190 -4 c 0,11,12
 128 -4 128 -4 86 31 c 0,13,14
 41 68 41 68 41 123.5 c 128,-1,15
 41 179 41 179 68.5 210 c 128,-1,16
 96 241 96 241 136 258 c 0,17,18
 200 285 200 285 303 288 c 1,19,-1
 303 352 l 2,20,21
 303 384 303 384 279 403 c 128,-1,22
 255 422 255 422 215 422 c 0,23,24
 167 422 167 422 146 409 c 1,25,-1
 130 356 l 1,26,-1
 48 371 l 1,27,28
 65 423 65 423 112 452 c 0,29,30
 154 479 154 479 209 479 c 0,31,32
 292 479 292 479 329 440.5 c 128,-1,33
 366 402 366 402 366 337 c 2,34,-1
 366 79 l 2,35,36
 366 50 366 50 389 50 c 0,37,38
 398 50 398 50 410 55 c 1,39,-1
 421 17 l 1,40,41
 400 -4 400 -4 366 -4 c 0,42,43
 320 -4 320 -4 308 40 c 1,9,10
128 184 m 0,44,45
 107 164 107 164 107 130 c 128,-1,46
 107 96 107 96 131 74.5 c 128,-1,47
 155 53 155 53 192 53 c 0,48,49
 267 53 267 53 303 108 c 1,50,-1
 303 232 l 1,51,52
 178 232 178 232 128 184 c 0,44,45
EndSplineSet
EndChar

StartChar: atilde
Encoding: 227 227 165
Width: 448
GlyphClass: 2
Flags: W
LayerCount: 2
Fore
SplineSet
173 600 m 1,0,1
 132 596 132 596 115 554 c 1,2,-1
 72 580 l 1,3,-1
 73 597 l 1,4,5
 87 621 87 621 108.5 642 c 128,-1,6
 130 663 130 663 166 663 c 0,7,8
 188 663 188 663 212 651.5 c 128,-1,9
 236 640 236 640 249.5 633 c 128,-1,10
 263 626 263 626 275 622 c 1,11,-1
 328 663 l 1,12,-1
 365 601 l 1,13,14
 345 584 345 584 327 573.5 c 128,-1,15
 309 563 309 563 286.5 563 c 128,-1,16
 264 563 264 563 250 569 c 128,-1,17
 236 575 236 575 223.5 581.5 c 128,-1,18
 211 588 211 588 199 594 c 128,-1,19
 187 600 187 600 173 600 c 1,0,1
308 40 m 1,20,21
 260 -4 260 -4 190 -4 c 0,22,23
 128 -4 128 -4 86 31 c 0,24,25
 41 68 41 68 41 123.5 c 128,-1,26
 41 179 41 179 68.5 210 c 128,-1,27
 96 241 96 241 136 258 c 0,28,29
 200 285 200 285 303 288 c 1,30,-1
 303 352 l 2,31,32
 303 384 303 384 279 403 c 128,-1,33
 255 422 255 422 215 422 c 0,34,35
 167 422 167 422 146 409 c 1,36,-1
 130 356 l 1,37,-1
 48 371 l 1,38,39
 65 423 65 423 112 452 c 0,40,41
 154 479 154 479 209 479 c 0,42,43
 292 479 292 479 329 440.5 c 128,-1,44
 366 402 366 402 366 337 c 2,45,-1
 366 79 l 2,46,47
 366 50 366 50 389 50 c 0,48,49
 398 50 398 50 410 55 c 1,50,-1
 421 17 l 1,51,52
 400 -4 400 -4 366 -4 c 0,53,54
 320 -4 320 -4 308 40 c 1,20,21
128 184 m 0,55,56
 107 164 107 164 107 130 c 128,-1,57
 107 96 107 96 131 74.5 c 128,-1,58
 155 53 155 53 192 53 c 0,59,60
 267 53 267 53 303 108 c 1,61,-1
 303 232 l 1,62,63
 178 232 178 232 128 184 c 0,55,56
EndSplineSet
EndChar

StartChar: adieresis
Encoding: 228 228 166
Width: 448
GlyphClass: 2
Flags: W
LayerCount: 2
Fore
SplineSet
103 585 m 128,-1,1
 89 600 89 600 89 619.5 c 128,-1,2
 89 639 89 639 103 653.5 c 128,-1,3
 117 668 117 668 137 668 c 128,-1,4
 157 668 157 668 171.5 653.5 c 128,-1,5
 186 639 186 639 186 619.5 c 128,-1,6
 186 600 186 600 171.5 585 c 128,-1,7
 157 570 157 570 137 570 c 128,-1,0
 117 570 117 570 103 585 c 128,-1,1
242.5 585 m 128,-1,9
 229 600 229 600 229 619.5 c 128,-1,10
 229 639 229 639 242.5 653.5 c 128,-1,11
 256 668 256 668 276 668 c 128,-1,12
 296 668 296 668 310 653.5 c 128,-1,13
 324 639 324 639 324 619.5 c 128,-1,14
 324 600 324 600 310 585 c 128,-1,15
 296 570 296 570 276 570 c 128,-1,8
 256 570 256 570 242.5 585 c 128,-1,9
308 40 m 1,16,17
 260 -4 260 -4 190 -4 c 0,18,19
 128 -4 128 -4 86 31 c 0,20,21
 41 68 41 68 41 123.5 c 128,-1,22
 41 179 41 179 68.5 210 c 128,-1,23
 96 241 96 241 136 258 c 0,24,25
 200 285 200 285 303 288 c 1,26,-1
 303 352 l 2,27,28
 303 384 303 384 279 403 c 128,-1,29
 255 422 255 422 215 422 c 0,30,31
 167 422 167 422 146 409 c 1,32,-1
 130 356 l 1,33,-1
 48 371 l 1,34,35
 65 423 65 423 112 452 c 0,36,37
 154 479 154 479 209 479 c 0,38,39
 292 479 292 479 329 440.5 c 128,-1,40
 366 402 366 402 366 337 c 2,41,-1
 366 79 l 2,42,43
 366 50 366 50 389 50 c 0,44,45
 398 50 398 50 410 55 c 1,46,-1
 421 17 l 1,47,48
 400 -4 400 -4 366 -4 c 0,49,50
 320 -4 320 -4 308 40 c 1,16,17
128 184 m 0,51,52
 107 164 107 164 107 130 c 128,-1,53
 107 96 107 96 131 74.5 c 128,-1,54
 155 53 155 53 192 53 c 0,55,56
 267 53 267 53 303 108 c 1,57,-1
 303 232 l 1,58,59
 178 232 178 232 128 184 c 0,51,52
EndSplineSet
EndChar

StartChar: aring
Encoding: 229 229 167
Width: 448
GlyphClass: 2
Flags: W
LayerCount: 2
Fore
SplineSet
150 536 m 128,-1,1
 124 562 124 562 124 600.5 c 128,-1,2
 124 639 124 639 150 665 c 128,-1,3
 176 691 176 691 214 691 c 256,4,5
 252 691 252 691 278 665 c 128,-1,6
 304 639 304 639 304 600.5 c 128,-1,7
 304 562 304 562 278 536 c 128,-1,8
 252 510 252 510 214 510 c 256,9,0
 176 510 176 510 150 536 c 128,-1,1
186.5 628 m 128,-1,11
 176 618 176 618 176 600.5 c 128,-1,12
 176 583 176 583 186.5 573 c 128,-1,13
 197 563 197 563 214 563 c 256,14,15
 231 563 231 563 241.5 573 c 128,-1,16
 252 583 252 583 252 600.5 c 128,-1,17
 252 618 252 618 241.5 628 c 128,-1,18
 231 638 231 638 214 638 c 256,19,10
 197 638 197 638 186.5 628 c 128,-1,11
308 40 m 1,20,21
 260 -4 260 -4 190 -4 c 0,22,23
 128 -4 128 -4 86 31 c 0,24,25
 41 68 41 68 41 123.5 c 128,-1,26
 41 179 41 179 68.5 210 c 128,-1,27
 96 241 96 241 136 258 c 0,28,29
 200 285 200 285 303 288 c 1,30,-1
 303 352 l 2,31,32
 303 384 303 384 279 403 c 128,-1,33
 255 422 255 422 215 422 c 0,34,35
 167 422 167 422 146 409 c 1,36,-1
 130 356 l 1,37,-1
 48 371 l 1,38,39
 65 423 65 423 112 452 c 0,40,41
 154 479 154 479 209 479 c 0,42,43
 292 479 292 479 329 440.5 c 128,-1,44
 366 402 366 402 366 337 c 2,45,-1
 366 79 l 2,46,47
 366 50 366 50 389 50 c 0,48,49
 398 50 398 50 410 55 c 1,50,-1
 421 17 l 1,51,52
 400 -4 400 -4 366 -4 c 0,53,54
 320 -4 320 -4 308 40 c 1,20,21
128 184 m 0,55,56
 107 164 107 164 107 130 c 128,-1,57
 107 96 107 96 131 74.5 c 128,-1,58
 155 53 155 53 192 53 c 0,59,60
 267 53 267 53 303 108 c 1,61,-1
 303 232 l 1,62,63
 178 232 178 232 128 184 c 0,55,56
EndSplineSet
EndChar

StartChar: ae
Encoding: 230 230 168
Width: 698
GlyphClass: 2
Flags: W
LayerCount: 2
Fore
SplineSet
617 91 m 1,0,-1
 635 36 l 1,1,2
 612 18 612 18 583 8 c 128,-1,3
 554 -2 554 -2 507 -2 c 0,4,5
 402 -2 402 -2 346 79 c 1,6,7
 344 74 344 74 341 70.5 c 128,-1,8
 338 67 338 67 336 63 c 1,9,10
 311 34 311 34 291 22 c 0,11,12
 248 -4 248 -4 203 -4 c 128,-1,13
 158 -4 158 -4 129 7 c 128,-1,14
 100 18 100 18 80 36 c 0,15,16
 41 72 41 72 41 121.5 c 128,-1,17
 41 171 41 171 62 199.5 c 128,-1,18
 83 228 83 228 117 243 c 0,19,20
 171 267 171 267 279 267 c 2,21,-1
 303 267 l 1,22,-1
 303 352 l 2,23,24
 303 373 303 373 286 390 c 0,25,26
 252 422 252 422 206 422 c 0,27,28
 161 422 161 422 146 409 c 1,29,-1
 130 356 l 1,30,-1
 48 371 l 1,31,32
 55 421 55 421 106 452 c 0,33,34
 152 479 152 479 202 479 c 0,35,36
 318 479 318 479 353 399 c 1,37,38
 382 438 382 438 423.5 459.5 c 128,-1,39
 465 481 465 481 511 481 c 0,40,41
 580 481 580 481 622 448 c 128,-1,42
 664 415 664 415 664 358.5 c 128,-1,43
 664 302 664 302 639.5 273 c 128,-1,44
 615 244 615 244 577 230 c 0,45,46
 520 209 520 209 406 209 c 2,47,-1
 369 209 l 1,48,49
 374 128 374 128 426 86 c 0,50,51
 464 56 464 56 522 56 c 128,-1,52
 580 56 580 56 617 91 c 1,0,-1
371 267 m 1,53,-1
 427 266 l 1,54,55
 598 266 598 266 598 346 c 0,56,57
 598 384 598 384 570.5 403.5 c 128,-1,58
 543 423 543 423 513.5 423 c 128,-1,59
 484 423 484 423 461.5 413.5 c 128,-1,60
 439 404 439 404 420 385 c 0,61,62
 379 344 379 344 371 267 c 1,53,-1
121.5 175.5 m 128,-1,64
 107 160 107 160 107 128.5 c 128,-1,65
 107 97 107 97 133 75.5 c 128,-1,66
 159 54 159 54 198 54 c 128,-1,67
 237 54 237 54 264.5 71.5 c 128,-1,68
 292 89 292 89 303 107 c 1,69,-1
 303 211 l 1,70,-1
 270 211 l 2,71,72
 193 211 193 211 164.5 201 c 128,-1,63
 136 191 136 191 121.5 175.5 c 128,-1,64
EndSplineSet
EndChar

StartChar: ccedilla
Encoding: 231 231 169
Width: 406
GlyphClass: 2
Flags: W
LayerCount: 2
Fore
SplineSet
186 68 m 0,0,1
 214 53 214 53 264 53 c 128,-1,2
 314 53 314 53 360 80 c 1,3,-1
 377 31 l 1,4,5
 338 1 338 1 276 -3 c 1,6,-1
 266 -32 l 1,7,8
 296 -34 296 -34 312 -49 c 1,9,10
 343 -75 343 -75 343 -111.5 c 128,-1,11
 343 -148 343 -148 317.5 -172 c 128,-1,12
 292 -196 292 -196 241 -196 c 0,13,14
 214 -196 214 -196 194.5 -189.5 c 128,-1,15
 175 -183 175 -183 157 -176 c 1,16,-1
 188 -116 l 1,17,-1
 243 -150 l 1,18,19
 263 -150 263 -150 276 -140 c 128,-1,20
 289 -130 289 -130 289 -114.5 c 128,-1,21
 289 -99 289 -99 274.5 -86 c 128,-1,22
 260 -73 260 -73 224 -73 c 2,23,-1
 218 -73 l 1,24,-1
 205 -60 l 1,25,-1
 225 -3 l 1,26,27
 136 4 136 4 86 75 c 0,28,29
 43 137 43 137 43 233 c 0,30,31
 43 400 43 400 155 458 c 0,32,33
 194 479 194 479 244 479 c 0,34,35
 333 479 333 479 383 442 c 1,36,-1
 339 373 l 1,37,-1
 280 420 l 1,38,39
 272 422 272 422 261 422 c 2,40,-1
 244 422 l 2,41,42
 170 422 170 422 136 361 c 0,43,44
 109 312 109 312 109 232 c 0,45,46
 109 110 109 110 186 68 c 0,0,1
EndSplineSet
EndChar

StartChar: egrave
Encoding: 232 232 170
Width: 443
GlyphClass: 2
Flags: W
LayerCount: 2
Fore
SplineSet
398 34 m 1,0,1
 346 -4 346 -4 259 -4 c 0,2,3
 154 -4 154 -4 96 65 c 0,4,5
 42 129 42 129 42 232 c 0,6,7
 42 338 42 338 97 406 c 0,8,9
 155 479 155 479 252 479 c 0,10,11
 315 479 315 479 357 444 c 0,12,13
 401 408 401 408 401 351 c 128,-1,14
 401 294 401 294 373.5 262 c 128,-1,15
 346 230 346 230 303 213 c 0,16,17
 232 185 232 185 111 185 c 1,18,19
 121 127 121 127 157.5 89.5 c 128,-1,20
 194 52 194 52 263 52 c 128,-1,21
 332 52 332 52 381 88 c 1,22,-1
 398 34 l 1,0,1
125 244 m 2,23,24
 214 244 214 244 252 256.5 c 128,-1,25
 290 269 290 269 312.5 289.5 c 128,-1,26
 335 310 335 310 335 348 c 0,27,28
 335 385 335 385 308 405 c 0,29,30
 285 422 285 422 250.5 422 c 128,-1,31
 216 422 216 422 190 407.5 c 128,-1,32
 164 393 164 393 146 368 c 0,33,34
 110 317 110 317 108 244 c 1,35,-1
 125 244 l 2,23,24
269 553 m 1,36,-1
 129 673 l 1,37,-1
 173 726 l 1,38,-1
 199 726 l 1,39,-1
 303 586 l 1,40,-1
 269 553 l 1,36,-1
EndSplineSet
EndChar

StartChar: eacute
Encoding: 233 233 171
Width: 443
GlyphClass: 2
Flags: W
LayerCount: 2
Fore
SplineSet
398 34 m 1,0,1
 346 -4 346 -4 259 -4 c 0,2,3
 154 -4 154 -4 96 65 c 0,4,5
 42 129 42 129 42 232 c 0,6,7
 42 338 42 338 97 406 c 0,8,9
 155 479 155 479 252 479 c 0,10,11
 315 479 315 479 357 444 c 0,12,13
 401 408 401 408 401 351 c 128,-1,14
 401 294 401 294 373.5 262 c 128,-1,15
 346 230 346 230 303 213 c 0,16,17
 232 185 232 185 111 185 c 1,18,19
 121 127 121 127 157.5 89.5 c 128,-1,20
 194 52 194 52 263 52 c 128,-1,21
 332 52 332 52 381 88 c 1,22,-1
 398 34 l 1,0,1
125 244 m 2,23,24
 214 244 214 244 252 256.5 c 128,-1,25
 290 269 290 269 312.5 289.5 c 128,-1,26
 335 310 335 310 335 348 c 0,27,28
 335 385 335 385 308 405 c 0,29,30
 285 422 285 422 250.5 422 c 128,-1,31
 216 422 216 422 190 407.5 c 128,-1,32
 164 393 164 393 146 368 c 0,33,34
 110 317 110 317 108 244 c 1,35,-1
 125 244 l 2,23,24
177 586 m 1,36,-1
 281 725 l 1,37,-1
 308 725 l 1,38,-1
 352 673 l 1,39,-1
 212 553 l 1,40,-1
 177 586 l 1,36,-1
EndSplineSet
EndChar

StartChar: ecircumflex
Encoding: 234 234 172
Width: 443
GlyphClass: 2
Flags: W
LayerCount: 2
Fore
SplineSet
120 548 m 1,0,-1
 236 691 l 1,1,-1
 252 691 l 1,2,-1
 368 550 l 1,3,-1
 365 544 l 1,4,-1
 310 544 l 1,5,-1
 244 602 l 1,6,-1
 178 544 l 1,7,-1
 124 544 l 1,8,-1
 120 548 l 1,0,-1
398 34 m 1,9,10
 346 -4 346 -4 259 -4 c 0,11,12
 154 -4 154 -4 96 65 c 0,13,14
 42 129 42 129 42 232 c 0,15,16
 42 338 42 338 97 406 c 0,17,18
 155 479 155 479 252 479 c 0,19,20
 315 479 315 479 357 444 c 0,21,22
 401 408 401 408 401 351 c 128,-1,23
 401 294 401 294 373.5 262 c 128,-1,24
 346 230 346 230 303 213 c 0,25,26
 232 185 232 185 111 185 c 1,27,28
 121 127 121 127 157.5 89.5 c 128,-1,29
 194 52 194 52 263 52 c 128,-1,30
 332 52 332 52 381 88 c 1,31,-1
 398 34 l 1,9,10
125 244 m 2,32,33
 214 244 214 244 252 256.5 c 128,-1,34
 290 269 290 269 312.5 289.5 c 128,-1,35
 335 310 335 310 335 348 c 0,36,37
 335 385 335 385 308 405 c 0,38,39
 285 422 285 422 250.5 422 c 128,-1,40
 216 422 216 422 190 407.5 c 128,-1,41
 164 393 164 393 146 368 c 0,42,43
 110 317 110 317 108 244 c 1,44,-1
 125 244 l 2,32,33
EndSplineSet
EndChar

StartChar: edieresis
Encoding: 235 235 173
Width: 443
GlyphClass: 2
Flags: W
LayerCount: 2
Fore
SplineSet
136 585 m 128,-1,1
 122 600 122 600 122 619.5 c 128,-1,2
 122 639 122 639 136 653.5 c 128,-1,3
 150 668 150 668 170 668 c 128,-1,4
 190 668 190 668 204.5 653.5 c 128,-1,5
 219 639 219 639 219 619.5 c 128,-1,6
 219 600 219 600 204.5 585 c 128,-1,7
 190 570 190 570 170 570 c 128,-1,0
 150 570 150 570 136 585 c 128,-1,1
275.5 585 m 128,-1,9
 262 600 262 600 262 619.5 c 128,-1,10
 262 639 262 639 275.5 653.5 c 128,-1,11
 289 668 289 668 309 668 c 128,-1,12
 329 668 329 668 343 653.5 c 128,-1,13
 357 639 357 639 357 619.5 c 128,-1,14
 357 600 357 600 343 585 c 128,-1,15
 329 570 329 570 309 570 c 128,-1,8
 289 570 289 570 275.5 585 c 128,-1,9
398 34 m 1,16,17
 346 -4 346 -4 259 -4 c 0,18,19
 154 -4 154 -4 96 65 c 0,20,21
 42 129 42 129 42 232 c 0,22,23
 42 338 42 338 97 406 c 0,24,25
 155 479 155 479 252 479 c 0,26,27
 315 479 315 479 357 444 c 0,28,29
 401 408 401 408 401 351 c 128,-1,30
 401 294 401 294 373.5 262 c 128,-1,31
 346 230 346 230 303 213 c 0,32,33
 232 185 232 185 111 185 c 1,34,35
 121 127 121 127 157.5 89.5 c 128,-1,36
 194 52 194 52 263 52 c 128,-1,37
 332 52 332 52 381 88 c 1,38,-1
 398 34 l 1,16,17
125 244 m 2,39,40
 214 244 214 244 252 256.5 c 128,-1,41
 290 269 290 269 312.5 289.5 c 128,-1,42
 335 310 335 310 335 348 c 0,43,44
 335 385 335 385 308 405 c 0,45,46
 285 422 285 422 250.5 422 c 128,-1,47
 216 422 216 422 190 407.5 c 128,-1,48
 164 393 164 393 146 368 c 0,49,50
 110 317 110 317 108 244 c 1,51,-1
 125 244 l 2,39,40
EndSplineSet
EndChar

StartChar: igrave
Encoding: 236 236 174
Width: 249
GlyphClass: 2
Flags: W
LayerCount: 2
Fore
SplineSet
160 451 m 1,0,-1
 160 59 l 1,1,-1
 221 44 l 1,2,-1
 221 0 l 1,3,-1
 46 0 l 1,4,-1
 37 43 l 1,5,-1
 97 58 l 1,6,-1
 97 416 l 1,7,-1
 43 412 l 1,8,-1
 34 463 l 1,9,-1
 133 481 l 1,10,-1
 160 451 l 1,0,-1
174 554 m 1,11,-1
 34 674 l 1,12,-1
 78 727 l 1,13,-1
 104 727 l 1,14,-1
 208 587 l 1,15,-1
 174 554 l 1,11,-1
EndSplineSet
EndChar

StartChar: iacute
Encoding: 237 237 175
Width: 249
GlyphClass: 2
Flags: W
LayerCount: 2
Fore
SplineSet
160 451 m 1,0,-1
 160 59 l 1,1,-1
 221 44 l 1,2,-1
 221 0 l 1,3,-1
 46 0 l 1,4,-1
 37 43 l 1,5,-1
 97 58 l 1,6,-1
 97 416 l 1,7,-1
 43 412 l 1,8,-1
 34 463 l 1,9,-1
 133 481 l 1,10,-1
 160 451 l 1,0,-1
39 585 m 1,11,-1
 143 724 l 1,12,-1
 170 724 l 1,13,-1
 214 672 l 1,14,-1
 74 552 l 1,15,-1
 39 585 l 1,11,-1
EndSplineSet
EndChar

StartChar: icircumflex
Encoding: 238 238 176
Width: 249
GlyphClass: 2
Flags: W
LayerCount: 2
Fore
SplineSet
-11 548 m 1,0,-1
 105 691 l 1,1,-1
 121 691 l 1,2,-1
 237 550 l 1,3,-1
 233 544 l 1,4,-1
 179 544 l 1,5,-1
 113 602 l 1,6,-1
 46 544 l 1,7,-1
 -7 544 l 1,8,-1
 -11 548 l 1,0,-1
160 451 m 1,9,-1
 160 59 l 1,10,-1
 221 44 l 1,11,-1
 221 0 l 1,12,-1
 46 0 l 1,13,-1
 37 43 l 1,14,-1
 97 58 l 1,15,-1
 97 416 l 1,16,-1
 43 412 l 1,17,-1
 34 463 l 1,18,-1
 133 481 l 1,19,-1
 160 451 l 1,9,-1
EndSplineSet
EndChar

StartChar: idieresis
Encoding: 239 239 177
Width: 249
GlyphClass: 2
Flags: W
LayerCount: 2
Fore
SplineSet
17 585 m 128,-1,1
 3 600 3 600 3 619.5 c 128,-1,2
 3 639 3 639 17 653.5 c 128,-1,3
 31 668 31 668 51 668 c 128,-1,4
 71 668 71 668 85 653.5 c 128,-1,5
 99 639 99 639 99 619.5 c 128,-1,6
 99 600 99 600 85 585 c 128,-1,7
 71 570 71 570 51 570 c 128,-1,0
 31 570 31 570 17 585 c 128,-1,1
145.5 585 m 128,-1,9
 132 600 132 600 132 619.5 c 128,-1,10
 132 639 132 639 145.5 653.5 c 128,-1,11
 159 668 159 668 179 668 c 128,-1,12
 199 668 199 668 213 653.5 c 128,-1,13
 227 639 227 639 227 619.5 c 128,-1,14
 227 600 227 600 213 585 c 128,-1,15
 199 570 199 570 179 570 c 128,-1,8
 159 570 159 570 145.5 585 c 128,-1,9
160 451 m 1,16,-1
 160 59 l 1,17,-1
 221 44 l 1,18,-1
 221 0 l 1,19,-1
 46 0 l 1,20,-1
 37 43 l 1,21,-1
 97 58 l 1,22,-1
 97 416 l 1,23,-1
 43 412 l 1,24,-1
 34 463 l 1,25,-1
 133 481 l 1,26,-1
 160 451 l 1,16,-1
EndSplineSet
EndChar

StartChar: eth
Encoding: 240 240 178
Width: 511
GlyphClass: 2
Flags: W
LayerCount: 2
Fore
SplineSet
370 574 m 1,0,1
 459 451 459 451 459 298 c 0,2,3
 459 99 459 99 357 25 c 0,4,5
 317 -4 317 -4 258.5 -4 c 128,-1,6
 200 -4 200 -4 161 14.5 c 128,-1,7
 122 33 122 33 96 65 c 0,8,9
 43 128 43 128 43 231 c 0,10,11
 43 330 43 330 96 394 c 0,12,13
 150 458 150 458 237 458 c 256,14,15
 324 458 324 458 378 411 c 1,16,17
 358 485 358 485 314 544 c 1,18,-1
 197 482 l 1,19,-1
 169 528 l 1,20,-1
 275 589 l 1,21,22
 226 638 226 638 159 675 c 1,23,-1
 188 728 l 1,24,25
 267 690 267 690 331 622 c 1,26,-1
 450 692 l 1,27,-1
 483 633 l 1,28,-1
 370 574 l 1,0,1
237 401 m 0,29,30
 209 401 209 401 185 388 c 128,-1,31
 161 375 161 375 144 352 c 0,32,33
 111 305 111 305 111 230 c 0,34,35
 111 140 111 140 156 92 c 0,36,37
 192 53 192 53 242.5 53 c 128,-1,38
 293 53 293 53 320 74 c 128,-1,39
 347 95 347 95 362 128 c 0,40,41
 388 183 388 183 390 275 c 1,42,43
 384 334 384 334 337 370 c 0,44,45
 296 401 296 401 237 401 c 0,29,30
EndSplineSet
EndChar

StartChar: ntilde
Encoding: 241 241 179
Width: 505
GlyphClass: 2
Flags: W
LayerCount: 2
Fore
SplineSet
216 600 m 1,0,1
 175 596 175 596 158 554 c 1,2,-1
 115 580 l 1,3,-1
 116 597 l 1,4,5
 130 621 130 621 151.5 642 c 128,-1,6
 173 663 173 663 209 663 c 0,7,8
 231 663 231 663 255 651.5 c 128,-1,9
 279 640 279 640 292.5 633 c 128,-1,10
 306 626 306 626 318 622 c 1,11,-1
 371 663 l 1,12,-1
 408 601 l 1,13,14
 388 584 388 584 370 573.5 c 128,-1,15
 352 563 352 563 329.5 563 c 128,-1,16
 307 563 307 563 293 569 c 128,-1,17
 279 575 279 575 266.5 581.5 c 128,-1,18
 254 588 254 588 242 594 c 128,-1,19
 230 600 230 600 216 600 c 1,0,1
273 422 m 0,20,21
 206 422 206 422 158 380 c 1,22,-1
 158 59 l 1,23,-1
 219 44 l 1,24,-1
 219 0 l 1,25,-1
 46 0 l 1,26,-1
 40 43 l 1,27,-1
 95 58 l 1,28,-1
 95 420 l 1,29,-1
 41 416 l 1,30,-1
 32 463 l 1,31,-1
 133 481 l 1,32,-1
 155 440 l 1,33,34
 211 479 211 479 279 479 c 128,-1,35
 347 479 347 479 384 442.5 c 128,-1,36
 421 406 421 406 421 334 c 2,37,-1
 421 58 l 1,38,-1
 482 44 l 1,39,-1
 482 0 l 1,40,-1
 302 0 l 1,41,-1
 298 44 l 1,42,-1
 358 58 l 1,43,-1
 358 327 l 2,44,45
 358 422 358 422 273 422 c 0,20,21
EndSplineSet
EndChar

StartChar: ograve
Encoding: 242 242 180
Width: 489
GlyphClass: 2
Flags: W
LayerCount: 2
Fore
SplineSet
42 241 m 0,0,1
 42 288 42 288 55 332 c 128,-1,2
 68 376 68 376 94 409 c 0,3,4
 149 481 149 481 244 481 c 0,5,6
 345 481 345 481 398 407 c 0,7,8
 447 340 447 340 447 240 c 256,9,10
 447 140 447 140 398 72 c 1,11,12
 345 -4 345 -4 244 -4 c 0,13,14
 147 -4 147 -4 91 72 c 0,15,16
 42 139 42 139 42 241 c 0,0,1
115 290.5 m 128,-1,18
 108 256 108 256 108 226 c 128,-1,19
 108 196 108 196 115.5 165 c 128,-1,20
 123 134 123 134 140 110 c 0,21,22
 177 54 177 54 244 54 c 0,23,24
 315 54 315 54 351 112 c 0,25,26
 381 161 381 161 381 235 c 0,27,28
 381 356 381 356 308 406 c 0,29,30
 282 423 282 423 243.5 423 c 128,-1,31
 205 423 205 423 179 403 c 128,-1,32
 153 383 153 383 137.5 354 c 128,-1,17
 122 325 122 325 115 290.5 c 128,-1,18
317 553 m 1,33,-1
 177 673 l 1,34,-1
 221 726 l 1,35,-1
 247 726 l 1,36,-1
 351 586 l 1,37,-1
 317 553 l 1,33,-1
EndSplineSet
EndChar

StartChar: oacute
Encoding: 243 243 181
Width: 489
GlyphClass: 2
Flags: W
LayerCount: 2
Fore
SplineSet
42 241 m 0,0,1
 42 288 42 288 55 332 c 128,-1,2
 68 376 68 376 94 409 c 0,3,4
 149 481 149 481 244 481 c 0,5,6
 345 481 345 481 398 407 c 0,7,8
 447 340 447 340 447 240 c 256,9,10
 447 140 447 140 398 72 c 1,11,12
 345 -4 345 -4 244 -4 c 0,13,14
 147 -4 147 -4 91 72 c 0,15,16
 42 139 42 139 42 241 c 0,0,1
115 290.5 m 128,-1,18
 108 256 108 256 108 226 c 128,-1,19
 108 196 108 196 115.5 165 c 128,-1,20
 123 134 123 134 140 110 c 0,21,22
 177 54 177 54 244 54 c 0,23,24
 315 54 315 54 351 112 c 0,25,26
 381 161 381 161 381 235 c 0,27,28
 381 356 381 356 308 406 c 0,29,30
 282 423 282 423 243.5 423 c 128,-1,31
 205 423 205 423 179 403 c 128,-1,32
 153 383 153 383 137.5 354 c 128,-1,17
 122 325 122 325 115 290.5 c 128,-1,18
170 586 m 1,33,-1
 274 725 l 1,34,-1
 301 725 l 1,35,-1
 345 673 l 1,36,-1
 205 553 l 1,37,-1
 170 586 l 1,33,-1
EndSplineSet
EndChar

StartChar: ocircumflex
Encoding: 244 244 182
Width: 489
GlyphClass: 2
Flags: W
LayerCount: 2
Fore
SplineSet
122 548 m 1,0,-1
 238 691 l 1,1,-1
 254 691 l 1,2,-1
 369 550 l 1,3,-1
 366 544 l 1,4,-1
 312 544 l 1,5,-1
 245 602 l 1,6,-1
 179 544 l 1,7,-1
 126 544 l 1,8,-1
 122 548 l 1,0,-1
42 241 m 0,9,10
 42 288 42 288 55 332 c 128,-1,11
 68 376 68 376 94 409 c 0,12,13
 149 481 149 481 244 481 c 0,14,15
 345 481 345 481 398 407 c 0,16,17
 447 340 447 340 447 240 c 256,18,19
 447 140 447 140 398 72 c 1,20,21
 345 -4 345 -4 244 -4 c 0,22,23
 147 -4 147 -4 91 72 c 0,24,25
 42 139 42 139 42 241 c 0,9,10
115 290.5 m 128,-1,27
 108 256 108 256 108 226 c 128,-1,28
 108 196 108 196 115.5 165 c 128,-1,29
 123 134 123 134 140 110 c 0,30,31
 177 54 177 54 244 54 c 0,32,33
 315 54 315 54 351 112 c 0,34,35
 381 161 381 161 381 235 c 0,36,37
 381 356 381 356 308 406 c 0,38,39
 282 423 282 423 243.5 423 c 128,-1,40
 205 423 205 423 179 403 c 128,-1,41
 153 383 153 383 137.5 354 c 128,-1,26
 122 325 122 325 115 290.5 c 128,-1,27
EndSplineSet
EndChar

StartChar: otilde
Encoding: 245 245 183
Width: 489
GlyphClass: 2
Flags: W
LayerCount: 2
Fore
SplineSet
195 600 m 1,0,1
 154 596 154 596 137 554 c 1,2,-1
 94 580 l 1,3,-1
 95 597 l 1,4,5
 109 621 109 621 130.5 642 c 128,-1,6
 152 663 152 663 188 663 c 0,7,8
 210 663 210 663 234 651.5 c 128,-1,9
 258 640 258 640 271.5 633 c 128,-1,10
 285 626 285 626 297 622 c 1,11,-1
 350 663 l 1,12,-1
 387 601 l 1,13,14
 367 584 367 584 349 573.5 c 128,-1,15
 331 563 331 563 308.5 563 c 128,-1,16
 286 563 286 563 272 569 c 128,-1,17
 258 575 258 575 245.5 581.5 c 128,-1,18
 233 588 233 588 221 594 c 128,-1,19
 209 600 209 600 195 600 c 1,0,1
42 241 m 0,20,21
 42 288 42 288 55 332 c 128,-1,22
 68 376 68 376 94 409 c 0,23,24
 149 481 149 481 244 481 c 0,25,26
 345 481 345 481 398 407 c 0,27,28
 447 340 447 340 447 240 c 256,29,30
 447 140 447 140 398 72 c 1,31,32
 345 -4 345 -4 244 -4 c 0,33,34
 147 -4 147 -4 91 72 c 0,35,36
 42 139 42 139 42 241 c 0,20,21
115 290.5 m 128,-1,38
 108 256 108 256 108 226 c 128,-1,39
 108 196 108 196 115.5 165 c 128,-1,40
 123 134 123 134 140 110 c 0,41,42
 177 54 177 54 244 54 c 0,43,44
 315 54 315 54 351 112 c 0,45,46
 381 161 381 161 381 235 c 0,47,48
 381 356 381 356 308 406 c 0,49,50
 282 423 282 423 243.5 423 c 128,-1,51
 205 423 205 423 179 403 c 128,-1,52
 153 383 153 383 137.5 354 c 128,-1,37
 122 325 122 325 115 290.5 c 128,-1,38
EndSplineSet
EndChar

StartChar: odieresis
Encoding: 246 246 184
Width: 489
GlyphClass: 2
Flags: W
LayerCount: 2
Fore
SplineSet
146 585 m 128,-1,1
 132 600 132 600 132 619.5 c 128,-1,2
 132 639 132 639 146 653.5 c 128,-1,3
 160 668 160 668 180 668 c 128,-1,4
 200 668 200 668 214.5 653.5 c 128,-1,5
 229 639 229 639 229 619.5 c 128,-1,6
 229 600 229 600 214.5 585 c 128,-1,7
 200 570 200 570 180 570 c 128,-1,0
 160 570 160 570 146 585 c 128,-1,1
285.5 585 m 128,-1,9
 272 600 272 600 272 619.5 c 128,-1,10
 272 639 272 639 285.5 653.5 c 128,-1,11
 299 668 299 668 319 668 c 128,-1,12
 339 668 339 668 353 653.5 c 128,-1,13
 367 639 367 639 367 619.5 c 128,-1,14
 367 600 367 600 353 585 c 128,-1,15
 339 570 339 570 319 570 c 128,-1,8
 299 570 299 570 285.5 585 c 128,-1,9
42 241 m 0,16,17
 42 288 42 288 55 332 c 128,-1,18
 68 376 68 376 94 409 c 0,19,20
 149 481 149 481 244 481 c 0,21,22
 345 481 345 481 398 407 c 0,23,24
 447 340 447 340 447 240 c 256,25,26
 447 140 447 140 398 72 c 1,27,28
 345 -4 345 -4 244 -4 c 0,29,30
 147 -4 147 -4 91 72 c 0,31,32
 42 139 42 139 42 241 c 0,16,17
115 290.5 m 128,-1,34
 108 256 108 256 108 226 c 128,-1,35
 108 196 108 196 115.5 165 c 128,-1,36
 123 134 123 134 140 110 c 0,37,38
 177 54 177 54 244 54 c 0,39,40
 315 54 315 54 351 112 c 0,41,42
 381 161 381 161 381 235 c 0,43,44
 381 356 381 356 308 406 c 0,45,46
 282 423 282 423 243.5 423 c 128,-1,47
 205 423 205 423 179 403 c 128,-1,48
 153 383 153 383 137.5 354 c 128,-1,33
 122 325 122 325 115 290.5 c 128,-1,34
EndSplineSet
EndChar

StartChar: divide
Encoding: 247 247 185
Width: 414
GlyphClass: 2
Flags: W
LayerCount: 2
Fore
SplineSet
56 360 m 1,0,-1
 358 360 l 1,1,-1
 358 297 l 1,2,-1
 56 297 l 1,3,-1
 56 360 l 1,0,-1
172.5 145 m 128,-1,5
 157 160 157 160 157 181.5 c 128,-1,6
 157 203 157 203 172.5 218.5 c 128,-1,7
 188 234 188 234 209.5 234 c 128,-1,8
 231 234 231 234 246 218.5 c 128,-1,9
 261 203 261 203 261 181.5 c 128,-1,10
 261 160 261 160 246 145 c 128,-1,11
 231 130 231 130 209.5 130 c 128,-1,4
 188 130 188 130 172.5 145 c 128,-1,5
172.5 435 m 128,-1,13
 157 450 157 450 157 471.5 c 128,-1,14
 157 493 157 493 172.5 508.5 c 128,-1,15
 188 524 188 524 209.5 524 c 128,-1,16
 231 524 231 524 246 508.5 c 128,-1,17
 261 493 261 493 261 471.5 c 128,-1,18
 261 450 261 450 246 435 c 128,-1,19
 231 420 231 420 209.5 420 c 128,-1,12
 188 420 188 420 172.5 435 c 128,-1,13
EndSplineSet
EndChar

StartChar: oslash
Encoding: 248 248 186
Width: 489
GlyphClass: 2
Flags: W
LayerCount: 2
Fore
SplineSet
156.5 461.5 m 128,-1,1
 194 481 194 481 240.5 481 c 128,-1,2
 287 481 287 481 330 463 c 1,3,-1
 399 602 l 1,4,-1
 450 602 l 1,5,-1
 449 587 l 1,6,-1
 373 435 l 1,7,8
 411 401 411 401 429 349 c 128,-1,9
 447 297 447 297 447 245 c 128,-1,10
 447 193 447 193 435 149.5 c 128,-1,11
 423 106 423 106 398 72 c 1,12,13
 345 -4 345 -4 244 -4 c 0,14,15
 200 -4 200 -4 162 12 c 1,16,-1
 111 -90 l 1,17,-1
 63 -90 l 1,18,-1
 60 -77 l 1,19,-1
 119 41 l 1,20,21
 79 76 79 76 60.5 129 c 128,-1,22
 42 182 42 182 42 235 c 128,-1,23
 42 288 42 288 55 332 c 128,-1,24
 68 376 68 376 93.5 409 c 128,-1,0
 119 442 119 442 156.5 461.5 c 128,-1,1
302 408 m 1,25,26
 276 423 276 423 240.5 423 c 128,-1,27
 205 423 205 423 179 403 c 128,-1,28
 153 383 153 383 138 354 c 0,29,30
 108 299 108 299 108 228 c 0,31,32
 108 149 108 149 148 99 c 1,33,-1
 302 408 l 1,25,26
189 66 m 1,34,35
 213 54 213 54 247.5 54 c 128,-1,36
 282 54 282 54 308.5 70 c 128,-1,37
 335 86 335 86 351 112 c 0,38,39
 381 161 381 161 381 235 c 0,40,41
 381 316 381 316 342 373 c 1,42,-1
 189 66 l 1,34,35
EndSplineSet
EndChar

StartChar: ugrave
Encoding: 249 249 187
Width: 490
GlyphClass: 2
Flags: W
LayerCount: 2
Fore
SplineSet
348 37 m 1,0,1
 298 -4 298 -4 231 -4 c 0,2,3
 129 -4 129 -4 94 80 c 0,4,5
 82 110 82 110 82 156 c 2,6,-1
 82 415 l 1,7,-1
 28 415 l 1,8,-1
 19 463 l 1,9,-1
 120 481 l 1,10,-1
 145 453 l 1,11,-1
 145 159 l 2,12,13
 145 92 145 92 182 68 c 0,14,15
 204 54 204 54 238.5 54 c 128,-1,16
 273 54 273 54 302.5 68 c 128,-1,17
 332 82 332 82 344 101 c 1,18,-1
 344 415 l 1,19,-1
 290 415 l 1,20,-1
 283 463 l 1,21,-1
 383 482 l 1,22,-1
 407 453 l 1,23,-1
 407 73 l 2,24,25
 407 51 407 51 430 51 c 1,26,-1
 448 54 l 1,27,-1
 456 19 l 1,28,29
 450 12 450 12 435 4 c 128,-1,30
 420 -4 420 -4 399 -4 c 0,31,32
 359 -4 359 -4 348 37 c 1,0,1
266 553 m 1,33,-1
 126 673 l 1,34,-1
 170 726 l 1,35,-1
 196 726 l 1,36,-1
 300 586 l 1,37,-1
 266 553 l 1,33,-1
EndSplineSet
EndChar

StartChar: uacute
Encoding: 250 250 188
Width: 490
GlyphClass: 2
Flags: W
LayerCount: 2
Fore
SplineSet
348 37 m 1,0,1
 298 -4 298 -4 231 -4 c 0,2,3
 129 -4 129 -4 94 80 c 0,4,5
 82 110 82 110 82 156 c 2,6,-1
 82 415 l 1,7,-1
 28 415 l 1,8,-1
 19 463 l 1,9,-1
 120 481 l 1,10,-1
 145 453 l 1,11,-1
 145 159 l 2,12,13
 145 92 145 92 182 68 c 0,14,15
 204 54 204 54 238.5 54 c 128,-1,16
 273 54 273 54 302.5 68 c 128,-1,17
 332 82 332 82 344 101 c 1,18,-1
 344 415 l 1,19,-1
 290 415 l 1,20,-1
 283 463 l 1,21,-1
 383 482 l 1,22,-1
 407 453 l 1,23,-1
 407 73 l 2,24,25
 407 51 407 51 430 51 c 1,26,-1
 448 54 l 1,27,-1
 456 19 l 1,28,29
 450 12 450 12 435 4 c 128,-1,30
 420 -4 420 -4 399 -4 c 0,31,32
 359 -4 359 -4 348 37 c 1,0,1
170 586 m 1,33,-1
 274 725 l 1,34,-1
 301 725 l 1,35,-1
 345 673 l 1,36,-1
 205 553 l 1,37,-1
 170 586 l 1,33,-1
EndSplineSet
EndChar

StartChar: ucircumflex
Encoding: 251 251 189
Width: 490
GlyphClass: 2
Flags: W
LayerCount: 2
Fore
SplineSet
114 548 m 1,0,-1
 230 691 l 1,1,-1
 246 691 l 1,2,-1
 362 550 l 1,3,-1
 358 544 l 1,4,-1
 304 544 l 1,5,-1
 238 602 l 1,6,-1
 171 544 l 1,7,-1
 118 544 l 1,8,-1
 114 548 l 1,0,-1
348 37 m 1,9,10
 298 -4 298 -4 231 -4 c 0,11,12
 129 -4 129 -4 94 80 c 0,13,14
 82 110 82 110 82 156 c 2,15,-1
 82 415 l 1,16,-1
 28 415 l 1,17,-1
 19 463 l 1,18,-1
 120 481 l 1,19,-1
 145 453 l 1,20,-1
 145 159 l 2,21,22
 145 92 145 92 182 68 c 0,23,24
 204 54 204 54 238.5 54 c 128,-1,25
 273 54 273 54 302.5 68 c 128,-1,26
 332 82 332 82 344 101 c 1,27,-1
 344 415 l 1,28,-1
 290 415 l 1,29,-1
 283 463 l 1,30,-1
 383 482 l 1,31,-1
 407 453 l 1,32,-1
 407 73 l 2,33,34
 407 51 407 51 430 51 c 1,35,-1
 448 54 l 1,36,-1
 456 19 l 1,37,38
 450 12 450 12 435 4 c 128,-1,39
 420 -4 420 -4 399 -4 c 0,40,41
 359 -4 359 -4 348 37 c 1,9,10
EndSplineSet
EndChar

StartChar: udieresis
Encoding: 252 252 190
Width: 490
GlyphClass: 2
Flags: W
LayerCount: 2
Fore
SplineSet
144 585 m 128,-1,1
 130 600 130 600 130 619.5 c 128,-1,2
 130 639 130 639 144 653.5 c 128,-1,3
 158 668 158 668 178 668 c 128,-1,4
 198 668 198 668 212 653.5 c 128,-1,5
 226 639 226 639 226 619.5 c 128,-1,6
 226 600 226 600 212 585 c 128,-1,7
 198 570 198 570 178 570 c 128,-1,0
 158 570 158 570 144 585 c 128,-1,1
282.5 585 m 128,-1,9
 269 600 269 600 269 619.5 c 128,-1,10
 269 639 269 639 282.5 653.5 c 128,-1,11
 296 668 296 668 316 668 c 128,-1,12
 336 668 336 668 350.5 653.5 c 128,-1,13
 365 639 365 639 365 619.5 c 128,-1,14
 365 600 365 600 350.5 585 c 128,-1,15
 336 570 336 570 316 570 c 128,-1,8
 296 570 296 570 282.5 585 c 128,-1,9
348 37 m 1,16,17
 298 -4 298 -4 231 -4 c 0,18,19
 129 -4 129 -4 94 80 c 0,20,21
 82 110 82 110 82 156 c 2,22,-1
 82 415 l 1,23,-1
 28 415 l 1,24,-1
 19 463 l 1,25,-1
 120 481 l 1,26,-1
 145 453 l 1,27,-1
 145 159 l 2,28,29
 145 92 145 92 182 68 c 0,30,31
 204 54 204 54 238.5 54 c 128,-1,32
 273 54 273 54 302.5 68 c 128,-1,33
 332 82 332 82 344 101 c 1,34,-1
 344 415 l 1,35,-1
 290 415 l 1,36,-1
 283 463 l 1,37,-1
 383 482 l 1,38,-1
 407 453 l 1,39,-1
 407 73 l 2,40,41
 407 51 407 51 430 51 c 1,42,-1
 448 54 l 1,43,-1
 456 19 l 1,44,45
 450 12 450 12 435 4 c 128,-1,46
 420 -4 420 -4 399 -4 c 0,47,48
 359 -4 359 -4 348 37 c 1,16,17
EndSplineSet
EndChar

StartChar: yacute
Encoding: 253 253 191
Width: 449
GlyphClass: 2
Flags: W
LayerCount: 2
Fore
SplineSet
42 -185 m 1,0,1
 72 -215 72 -215 100 -215 c 0,2,3
 136 -215 136 -215 162 -152 c 0,4,5
 168 -135 168 -135 173 -120 c 2,6,-1
 199 -47 l 1,7,-1
 45 425 l 1,8,-1
 11 425 l 1,9,-1
 3 474 l 1,10,-1
 98 480 l 1,11,-1
 235 54 l 1,12,-1
 367 425 l 1,13,-1
 331 425 l 1,14,-1
 323 474 l 1,15,-1
 419 480 l 1,16,-1
 436 445 l 1,17,18
 388 314 388 314 333 163.5 c 128,-1,19
 278 13 278 13 245 -74.5 c 128,-1,20
 212 -162 212 -162 202 -185.5 c 128,-1,21
 192 -209 192 -209 178 -228 c 0,22,23
 146 -273 146 -273 99 -273 c 0,24,25
 57 -273 57 -273 11 -237 c 1,26,-1
 42 -185 l 1,0,1
176 586 m 1,27,-1
 280 725 l 1,28,-1
 307 725 l 1,29,-1
 351 673 l 1,30,-1
 211 553 l 1,31,-1
 176 586 l 1,27,-1
EndSplineSet
EndChar

StartChar: thorn
Encoding: 254 254 192
Width: 486
GlyphClass: 2
Flags: W
LayerCount: 2
Fore
SplineSet
135 24 m 1,0,-1
 138 -49 l 1,1,-1
 138 -208 l 1,2,-1
 259 -229 l 1,3,-1
 259 -273 l 1,4,-1
 25 -273 l 1,5,-1
 16 -229 l 1,6,-1
 75 -215 l 1,7,-1
 75 670 l 1,8,-1
 14 666 l 1,9,-1
 6 717 l 1,10,-1
 111 735 l 1,11,-1
 138 706 l 1,12,-1
 138 444 l 1,13,14
 181 481 181 481 248 481 c 0,15,16
 331 481 331 481 386 418 c 0,17,18
 444 351 444 351 444 243 c 0,19,20
 444 111 444 111 370 46 c 0,21,22
 339 18 339 18 303 7 c 128,-1,23
 267 -4 267 -4 239 -4 c 0,24,25
 178 -4 178 -4 135 24 c 1,0,-1
174 65 m 128,-1,27
 199 54 199 54 227.5 54 c 128,-1,28
 256 54 256 54 281.5 61.5 c 128,-1,29
 307 69 307 69 328 90 c 0,30,31
 377 137 377 137 377 237 c 128,-1,32
 377 337 377 337 331 385 c 0,33,34
 295 423 295 423 242 423 c 0,35,36
 208 423 208 423 179.5 409 c 128,-1,37
 151 395 151 395 138 371 c 1,38,-1
 138 87 l 1,39,26
 149 76 149 76 174 65 c 128,-1,27
EndSplineSet
EndChar

StartChar: ydieresis
Encoding: 255 255 193
Width: 449
GlyphClass: 2
Flags: W
LayerCount: 2
Fore
SplineSet
124 585 m 128,-1,1
 110 600 110 600 110 619.5 c 128,-1,2
 110 639 110 639 124 653.5 c 128,-1,3
 138 668 138 668 158 668 c 128,-1,4
 178 668 178 668 192 653.5 c 128,-1,5
 206 639 206 639 206 619.5 c 128,-1,6
 206 600 206 600 192 585 c 128,-1,7
 178 570 178 570 158 570 c 128,-1,0
 138 570 138 570 124 585 c 128,-1,1
262.5 585 m 128,-1,9
 249 600 249 600 249 619.5 c 128,-1,10
 249 639 249 639 262.5 653.5 c 128,-1,11
 276 668 276 668 296 668 c 128,-1,12
 316 668 316 668 330.5 653.5 c 128,-1,13
 345 639 345 639 345 619.5 c 128,-1,14
 345 600 345 600 330.5 585 c 128,-1,15
 316 570 316 570 296 570 c 128,-1,8
 276 570 276 570 262.5 585 c 128,-1,9
42 -185 m 1,16,17
 72 -215 72 -215 100 -215 c 0,18,19
 136 -215 136 -215 162 -152 c 0,20,21
 168 -135 168 -135 173 -120 c 2,22,-1
 199 -47 l 1,23,-1
 45 425 l 1,24,-1
 11 425 l 1,25,-1
 3 474 l 1,26,-1
 98 480 l 1,27,-1
 235 54 l 1,28,-1
 367 425 l 1,29,-1
 331 425 l 1,30,-1
 323 474 l 1,31,-1
 419 480 l 1,32,-1
 436 445 l 1,33,34
 388 314 388 314 333 163.5 c 128,-1,35
 278 13 278 13 245 -74.5 c 128,-1,36
 212 -162 212 -162 202 -185.5 c 128,-1,37
 192 -209 192 -209 178 -228 c 0,38,39
 146 -273 146 -273 99 -273 c 0,40,41
 57 -273 57 -273 11 -237 c 1,42,-1
 42 -185 l 1,16,17
EndSplineSet
EndChar

StartChar: OE
Encoding: 338 338 194
Width: 858
GlyphClass: 2
Flags: W
LayerCount: 2
Fore
SplineSet
387 0 m 1,0,1
 359 -4 359 -4 331 -4 c 0,2,3
 195 -4 195 -4 117 106 c 0,4,5
 48 204 48 204 48 343 c 0,6,7
 48 404 48 404 65.5 467 c 128,-1,8
 83 530 83 530 117.5 580.5 c 128,-1,9
 152 631 152 631 203.5 663 c 128,-1,10
 255 695 255 695 323 695 c 2,11,-1
 335 695 l 2,12,13
 369 695 369 695 397 691 c 1,14,-1
 788 691 l 1,15,-1
 808 520 l 1,16,-1
 760 520 l 1,17,-1
 726 623 l 1,18,-1
 516 623 l 1,19,-1
 516 377 l 1,20,-1
 688 377 l 1,21,-1
 688 314 l 1,22,-1
 516 314 l 1,23,-1
 516 68 l 1,24,-1
 736 68 l 1,25,-1
 771 171 l 1,26,-1
 818 171 l 1,27,-1
 799 0 l 1,28,-1
 387 0 l 1,0,1
236 88 m 128,-1,30
 276 64 276 64 340.5 64 c 128,-1,31
 405 64 405 64 447 102 c 1,32,-1
 447 591 l 1,33,34
 424 611 424 611 398 617.5 c 128,-1,35
 372 624 372 624 328.5 624 c 128,-1,36
 285 624 285 624 244.5 599 c 128,-1,37
 204 574 204 574 176 534 c 0,38,39
 119 449 119 449 119 341 c 0,40,41
 119 229 119 229 170 152 c 0,42,29
 196 112 196 112 236 88 c 128,-1,30
EndSplineSet
EndChar

StartChar: oe
Encoding: 339 339 195
Width: 782
GlyphClass: 2
Flags: W
LayerCount: 2
Fore
SplineSet
414 96 m 1,0,1
 361 -4 361 -4 244 -4 c 0,2,3
 147 -4 147 -4 91 72 c 0,4,5
 42 139 42 139 42 240 c 0,6,7
 42 342 42 342 94 409 c 0,8,9
 149 481 149 481 244 481 c 0,10,11
 310 481 310 481 352.5 451.5 c 128,-1,12
 395 422 395 422 418 375 c 1,13,14
 446 423 446 423 491 451.5 c 128,-1,15
 536 480 536 480 591 480 c 0,16,17
 654 480 654 480 696 446 c 1,18,19
 740 409 740 409 740 352 c 128,-1,20
 740 295 740 295 714 263 c 128,-1,21
 688 231 688 231 646 214 c 0,22,23
 578 186 578 186 450 186 c 1,24,25
 460 128 460 128 496.5 90.5 c 128,-1,26
 533 53 533 53 602 53 c 128,-1,27
 671 53 671 53 720 89 c 1,28,-1
 737 35 l 1,29,30
 685 -3 685 -3 598 -3 c 0,31,32
 471 -3 471 -3 414 96 c 1,0,1
115 290.5 m 128,-1,34
 108 256 108 256 108 226 c 128,-1,35
 108 196 108 196 115.5 165 c 128,-1,36
 123 134 123 134 140 110 c 0,37,38
 177 54 177 54 244 54 c 0,39,40
 313 54 313 54 349 110 c 0,41,42
 379 155 379 155 381 228 c 1,43,-1
 381 235 l 2,44,45
 381 356 381 356 308 406 c 0,46,47
 282 423 282 423 243.5 423 c 128,-1,48
 205 423 205 423 179 403 c 128,-1,49
 153 383 153 383 137.5 354 c 128,-1,33
 122 325 122 325 115 290.5 c 128,-1,34
464 245 m 2,50,51
 553 245 553 245 591 257.5 c 128,-1,52
 629 270 629 270 651.5 290.5 c 128,-1,53
 674 311 674 311 674 349 c 0,54,55
 674 386 674 386 647 406 c 0,56,57
 624 423 624 423 589.5 423 c 128,-1,58
 555 423 555 423 529 408.5 c 128,-1,59
 503 394 503 394 486 370 c 0,60,61
 449 318 449 318 447 245 c 1,62,-1
 464 245 l 2,50,51
EndSplineSet
EndChar

StartChar: endash
Encoding: 8211 8211 196
Width: 495
GlyphClass: 2
Flags: W
LayerCount: 2
Fore
SplineSet
61 363 m 1,0,-1
 432 363 l 1,1,-1
 432 301 l 1,2,-1
 61 301 l 1,3,-1
 61 363 l 1,0,-1
EndSplineSet
EndChar

StartChar: emdash
Encoding: 8212 8212 197
Width: 725
GlyphClass: 2
Flags: W
LayerCount: 2
Fore
SplineSet
61 363 m 1,0,-1
 662 363 l 1,1,-1
 662 301 l 1,2,-1
 61 301 l 1,3,-1
 61 363 l 1,0,-1
EndSplineSet
EndChar

StartChar: quoteleft
Encoding: 8216 8216 198
Width: 187
GlyphClass: 2
Flags: W
LayerCount: 2
Fore
SplineSet
57 449 m 1,0,1
 46 488 46 488 46 531 c 0,2,3
 46 617 46 617 102 700 c 1,4,-1
 145 675 l 1,5,-1
 145 665 l 1,6,-1
 112 578 l 1,7,-1
 135 462 l 1,8,-1
 57 449 l 1,0,1
EndSplineSet
EndChar

StartChar: quoteright
Encoding: 8217 8217 199
Width: 181
GlyphClass: 2
Flags: W
LayerCount: 2
Fore
SplineSet
129 701 m 1,0,1
 140 657 140 657 140 616 c 0,2,3
 140 533 140 533 84 450 c 1,4,-1
 41 475 l 1,5,-1
 41 485 l 1,6,-1
 74 572 l 1,7,-1
 51 688 l 1,8,-1
 129 701 l 1,0,1
EndSplineSet
EndChar

StartChar: quotesinglbase
Encoding: 8218 8218 200
Width: 207
GlyphClass: 2
Flags: W
LayerCount: 2
Fore
SplineSet
129 136 m 1,0,1
 153 88 153 88 153 53.5 c 128,-1,2
 153 19 153 19 145 -5.5 c 128,-1,3
 137 -30 137 -30 126 -51 c 0,4,5
 108 -84 108 -84 81 -115 c 1,6,-1
 45 -93 l 1,7,-1
 45 -79 l 1,8,-1
 84 9 l 1,9,-1
 45 108 l 1,10,-1
 129 136 l 1,0,1
EndSplineSet
EndChar

StartChar: quotedblleft
Encoding: 8220 8220 201
Width: 295
GlyphClass: 2
Flags: W
LayerCount: 2
Fore
SplineSet
170 475 m 1,0,1
 159 514 159 514 159 557 c 0,2,3
 159 643 159 643 215 726 c 1,4,-1
 258 701 l 1,5,-1
 258 691 l 1,6,-1
 225 604 l 1,7,-1
 248 488 l 1,8,-1
 170 475 l 1,0,1
147 691 m 1,9,-1
 114 604 l 1,10,-1
 137 475 l 1,11,-1
 59 459 l 1,12,13
 58 462 58 462 56.5 472 c 128,-1,14
 55 482 55 482 53 495 c 0,15,16
 48 528 48 528 48 564 c 0,17,18
 48 643 48 643 104 726 c 1,19,-1
 147 701 l 1,20,-1
 147 691 l 1,9,-1
EndSplineSet
EndChar

StartChar: quotedblright
Encoding: 8221 8221 202
Width: 292
GlyphClass: 2
Flags: W
LayerCount: 2
Fore
SplineSet
129 701 m 1,0,1
 140 657 140 657 140 616 c 0,2,3
 140 533 140 533 84 450 c 1,4,-1
 41 475 l 1,5,-1
 41 485 l 1,6,-1
 74 572 l 1,7,-1
 51 688 l 1,8,-1
 129 701 l 1,0,1
152 485 m 1,9,-1
 185 572 l 1,10,-1
 162 701 l 1,11,-1
 240 717 l 1,12,13
 251 673 251 673 251 624 c 0,14,15
 251 533 251 533 195 450 c 1,16,-1
 152 475 l 1,17,-1
 152 485 l 1,9,-1
EndSplineSet
EndChar

StartChar: quotedblbase
Encoding: 8222 8222 203
Width: 321
GlyphClass: 2
Flags: W
LayerCount: 2
Fore
SplineSet
125 136 m 1,0,1
 149 88 149 88 149 53.5 c 128,-1,2
 149 19 149 19 141 -5.5 c 128,-1,3
 133 -30 133 -30 122 -51 c 0,4,5
 104 -84 104 -84 77 -115 c 1,6,-1
 41 -93 l 1,7,-1
 41 -79 l 1,8,-1
 80 9 l 1,9,-1
 41 108 l 1,10,-1
 125 136 l 1,0,1
159 -79 m 1,11,-1
 198 9 l 1,12,-1
 159 131 l 1,13,-1
 243 156 l 1,14,15
 255 132 255 132 261 96 c 128,-1,16
 267 60 267 60 267 39.5 c 128,-1,17
 267 19 267 19 259 -5.5 c 128,-1,18
 251 -30 251 -30 240 -51 c 0,19,20
 222 -84 222 -84 195 -115 c 1,21,-1
 159 -93 l 1,22,-1
 159 -79 l 1,11,-1
EndSplineSet
EndChar

StartChar: bullet
Encoding: 8226 8226 204
Width: 252
GlyphClass: 2
Flags: W
LayerCount: 2
Fore
SplineSet
49 383 m 256,0,1
 49 415 49 415 71.5 438 c 128,-1,2
 94 461 94 461 126 461 c 256,3,4
 158 461 158 461 181 438 c 128,-1,5
 204 415 204 415 204 383 c 256,6,7
 204 351 204 351 181 328.5 c 128,-1,8
 158 306 158 306 126 306 c 256,9,10
 94 306 94 306 71.5 328.5 c 128,-1,11
 49 351 49 351 49 383 c 256,0,1
EndSplineSet
EndChar

StartChar: guilsinglleft
Encoding: 8249 8249 205
Width: 351
GlyphClass: 2
Flags: W
LayerCount: 2
Fore
SplineSet
14 314 m 1,0,-1
 287 530 l 1,1,-1
 292 528 l 1,2,-1
 292 458 l 1,3,-1
 94 301 l 1,4,-1
 292 145 l 1,5,-1
 292 73 l 1,6,-1
 286 70 l 1,7,-1
 14 288 l 1,8,-1
 14 314 l 1,0,-1
EndSplineSet
EndChar

StartChar: guilsinglright
Encoding: 8250 8250 206
Width: 351
GlyphClass: 2
Flags: W
LayerCount: 2
Fore
SplineSet
337 288 m 1,0,-1
 65 70 l 1,1,-1
 59 73 l 1,2,-1
 59 145 l 1,3,-1
 257 301 l 1,4,-1
 59 458 l 1,5,-1
 59 528 l 1,6,-1
 64 530 l 1,7,-1
 337 314 l 1,8,-1
 337 288 l 1,0,-1
EndSplineSet
EndChar

StartChar: Euro
Encoding: 8364 8364 207
Width: 573
GlyphClass: 2
Flags: W
LayerCount: 2
Fore
SplineSet
504 99 m 1,0,-1
 529 38 l 1,1,2
 503 20 503 20 461 8 c 128,-1,3
 419 -4 419 -4 365.5 -4 c 128,-1,4
 312 -4 312 -4 265 14.5 c 128,-1,5
 218 33 218 33 186 66 c 0,6,7
 124 129 124 129 109 247 c 1,8,-1
 34 247 l 1,9,-1
 34 310 l 1,10,-1
 104 310 l 1,11,-1
 104 350 l 2,12,13
 104 360 104 360 105 371 c 1,14,-1
 34 371 l 1,15,-1
 34 434 l 1,16,-1
 111 434 l 1,17,18
 140 619 140 619 266 672 c 0,19,20
 310 691 310 691 359 691 c 0,21,22
 441 691 441 691 504 678 c 1,23,-1
 526 520 l 1,24,-1
 469 520 l 1,25,-1
 441 618 l 1,26,27
 433 619 433 619 418.5 621 c 128,-1,28
 404 623 404 623 366.5 623 c 128,-1,29
 329 623 329 623 296 608.5 c 128,-1,30
 263 594 263 594 240 569 c 0,31,32
 198 523 198 523 182 434 c 1,33,-1
 457 434 l 1,34,-1
 457 371 l 1,35,-1
 176 371 l 1,36,37
 175 363 175 363 175 354 c 2,38,-1
 175 310 l 1,39,-1
 456 310 l 1,40,-1
 456 247 l 1,41,-1
 181 247 l 1,42,43
 194 161 194 161 236 116 c 0,44,45
 285 64 285 64 367 64 c 128,-1,46
 449 64 449 64 504 99 c 1,0,-1
EndSplineSet
EndChar

StartChar: currency.
Encoding: 65539 -1 208
Width: 554
GlyphClass: 2
Flags: W
LayerCount: 2
Fore
SplineSet
106 222 m 1,0,1
 67 275 67 275 67 346 c 256,2,3
 67 417 67 417 106 470 c 1,4,-1
 47 530 l 1,5,-1
 93 576 l 1,6,-1
 152 517 l 1,7,8
 205 558 205 558 276 558 c 128,-1,9
 347 558 347 558 402 518 c 1,10,-1
 461 576 l 1,11,-1
 507 530 l 1,12,-1
 448 471 l 1,13,14
 489 418 489 418 489 346 c 256,15,16
 489 274 489 274 448 221 c 1,17,-1
 507 163 l 1,18,-1
 461 117 l 1,19,-1
 402 175 l 1,20,21
 350 135 350 135 277.5 135 c 128,-1,22
 205 135 205 135 152 176 c 1,23,-1
 93 117 l 1,24,-1
 47 163 l 1,25,-1
 106 222 l 1,0,1
135 346 m 0,26,27
 135 314 135 314 145.5 287 c 128,-1,28
 156 260 156 260 175 240 c 0,29,30
 216 198 216 198 278 198 c 128,-1,31
 340 198 340 198 381 240 c 0,32,33
 421 282 421 282 421 346 c 0,34,35
 421 409 421 409 381 452 c 0,36,37
 341 496 341 496 278 496 c 128,-1,38
 215 496 215 496 175 452 c 0,39,40
 135 409 135 409 135 346 c 0,26,27
EndSplineSet
EndChar
